<svg xmlns="http://www.w3.org/2000/svg" width="106.549" height="27.074" viewBox="0 0 106.549 27.074">
  <g id="ing" transform="translate(-340.258 -278.295)">
    <path id="Path_3082" data-name="Path 3082" d="M340.919,289.155a2.329,2.329,0,0,1,1.7.516,2.827,2.827,0,0,1,.562,2.075v13.09c0,1.811-.38,2.619-2.621,2.619h-.307v.8h10.07v-.8l-.3,0c-2.22-.027-2.595-.83-2.595-2.619v-13.09a2.815,2.815,0,0,1,.561-2.069,2.365,2.365,0,0,1,1.735-.523h.6v-.815h-10.07v.815Z" transform="translate(0 -3.366)" fill="#d3dcde" fill-rule="evenodd"/>
    <path id="Path_3083" data-name="Path 3083" d="M379.962,301.58a11.379,11.379,0,0,1-.2-1.275v-5.978c-.039-3.486.437-5.221-2.612-5.208v-.783h7.012v.783c-3.139-.013-2.745,1.723-2.762,5.208v13.96l-1-.011-15.142-15.845a11.432,11.432,0,0,1,.2,1.274v9.79c-.086,3.571.357,4,2.658,3.961v.816H360.8v-.816c2.3,0,2.757-.3,2.754-4.252V293.79l-.019-1.531c.086-1.982-.646-3.132-2.881-3.113v-.783h6.73l12.575,13.217Z" transform="translate(-6.835 -3.364)" fill="#d3dcde" fill-rule="evenodd"/>
    <path id="Path_3084" data-name="Path 3084" d="M418.232,287.762h-.773l-.035.265c-.053.395-.209,1.057-.659,1.057a2.308,2.308,0,0,1-.808-.225,14.226,14.226,0,0,0-5.3-1.1,11.825,11.825,0,0,0-8.49,3.353,10.6,10.6,0,0,0-3.044,7.614,8.944,8.944,0,0,0,3.367,7.043c2.269,1.941,4.813,2.769,8.507,2.769a13.74,13.74,0,0,0,7.544-1.893l.473-.257v-5.223c0-2.226.273-2.573,2.084-2.646l.3-.011v-.776h-8.85v.776l.295.011c2.018.078,2.4.44,2.4,2.281v4.841A6.661,6.661,0,0,1,411.28,307a7.272,7.272,0,0,1-5.224-2.17,9.236,9.236,0,0,1-2.416-6.669c0-2.883.767-5.341,2.349-6.921a6.7,6.7,0,0,1,4.837-1.958,8.664,8.664,0,0,1,5.039,1.808,5.91,5.91,0,0,1,2.108,3.222l.066.219h.755l-.562-6.773Z" transform="translate(-19.724 -3.172)" fill="#d3dcde" fill-rule="evenodd"/>
    <path id="Path_3085" data-name="Path 3085" d="M470.254,304.861a2.432,2.432,0,0,0,1.406-.424,6.456,6.456,0,0,0,4.655-1.071,9.732,9.732,0,0,0,1.811-1.9,6.869,6.869,0,0,0,1.015-1.892,8.791,8.791,0,0,0,.4-1.331,12.666,12.666,0,0,0-.477-6.621c-.129-.381-.276-.75-.436-1.1a11.48,11.48,0,0,0-3.906-4.911,7.845,7.845,0,0,1-2.571-2.676c-.317-.286-.622-.665-1.033-.733a1.587,1.587,0,0,1,.267.584l-.024.03a1.511,1.511,0,0,1-1.077-.5l.329-.3a1.768,1.768,0,0,0-.4-.119c-1.256-.143-2.289.437-3.4.716l-.018.062c.685.3.827,1.059,1.226,1.569.1-.118.267-.032.4-.043.2.011.386.156.578.105a1.824,1.824,0,0,0-.118-.447.829.829,0,0,1,.392,0c.361.211.939-.037,1.164.447a6.782,6.782,0,0,0-1.183.205c.026.156.182.28.168.436a3.92,3.92,0,0,0-1.045-.267l-.019.056a3.6,3.6,0,0,0,1.762,1.063c.94.217,1.767-.23,2.674-.074a10.425,10.425,0,0,1,4.961,5.572c.041.106.08.214.116.324a10.787,10.787,0,0,1,.13,6.621,8.106,8.106,0,0,1-1.429,2.42,4.98,4.98,0,0,1-.816.8,3.662,3.662,0,0,1-3.273.723c-.074-.051-.224-.064-.2-.194.041-.173.08-.349.114-.529a13.129,13.129,0,0,0,.234-3.139c0-.045,0-.091,0-.136a11.98,11.98,0,0,0-.94-4.269,14.914,14.914,0,0,0-1.341-2.353,5.566,5.566,0,0,0-2.493-2.053,1.868,1.868,0,0,0-1.9.329,1.284,1.284,0,0,0-.436,1.146,3.91,3.91,0,0,1-1.792.578,4.933,4.933,0,0,1-.492.071,2.755,2.755,0,0,1-.464-.018,4.6,4.6,0,0,1-2.19-1.008c-.013-.324-.032-.628-.045-.971a1.167,1.167,0,0,1-.659-.927l.031-.031a2.654,2.654,0,0,1,.554.267,4.1,4.1,0,0,0-.416-1.387c-.225-.094-.449-.168-.66-.281a1.061,1.061,0,0,1-.436-.721c.217.211.6.137.765.361a12.717,12.717,0,0,0-.778-2.645c-.243-.585-.878-.852-1.313-1.281-.168-.207-.237-.493-.541-.524-.249-.062-.269-.342-.311-.523.155.019.285.124.416.149a4.691,4.691,0,0,0-1.654-2.632l-.168.106a10.388,10.388,0,0,1-1.163.093,1.593,1.593,0,0,1,.7-.467,1.674,1.674,0,0,0-.842-.31,1.733,1.733,0,0,1-.813.354l-.032-.025c-.006-.224-.057-.5.28-.555a1.955,1.955,0,0,0-1.19,0c-.092.243-.359.461-.34.748a5.091,5.091,0,0,1-.529.609,5.757,5.757,0,0,1,.285-1.325c-.279.106-.564.255-.839.386a11.45,11.45,0,0,0-1.38-.7c-.043-.019-.136-.037-.118.044.4.292.248.84.291,1.256l-.256-.211c-.124-.317-.483-.547-.545-.9a4.741,4.741,0,0,0-1.087.361l-.054.031a.876.876,0,0,1,.684.461,8.042,8.042,0,0,1-1.27-.194c-.043-.043-.08-.093-.15-.087a2.376,2.376,0,0,0-.6.386,4.2,4.2,0,0,0-1.071,1.45.932.932,0,0,1,.429.105c-.236.143-.441.386-.672.523a5.728,5.728,0,0,0-.087,1.046,4.642,4.642,0,0,0-.541.822,12.186,12.186,0,0,0-.429,4.056c-.125.119-.287.194-.4.287l.013,1.269h.031c.056-.267.373-.416.566-.6h.062c-.031.286-.068.573-.074.865l-.36.3c-.362.317-.057.8-.087,1.2.025.1.043.26.118.286a1.705,1.705,0,0,1,.268-.4c.156-.037.292-.162.435-.18a6.635,6.635,0,0,1-.311.914,1.109,1.109,0,0,0-.19.156.457.457,0,0,0-.128.23,28.332,28.332,0,0,0,1.225,4.318c-.341.579-.535,1.261-.82,1.858-.041.084-.077.17-.112.255-.286.723-.373,1.533-.728,2.228a2.6,2.6,0,0,0-.461-.243,1.873,1.873,0,0,0-1.942.436,1.666,1.666,0,0,0-1.227.224,1.631,1.631,0,0,0-.544.665,1.351,1.351,0,0,0-.1.592,1.432,1.432,0,0,0-.522.79,2.456,2.456,0,0,0,.491,1.888Z" transform="translate(-32.986 -0.022)" fill="#fff" fill-rule="evenodd"/>
    <path id="Path_3086" data-name="Path 3086" d="M479.925,296.916c-.006.162-.124.343-.019.479.15-.168.4-.162.6-.237a4.917,4.917,0,0,1,1.6.249c-.13-.206-.217-.436-.36-.622-.287-.074-.722.124-.771-.3-.174-.15-.449-.043-.628-.032a1.407,1.407,0,0,0-.418.461Z" transform="translate(-46.777 -6.069)" fill="#fff" fill-rule="evenodd"/>
    <path id="Path_3087" data-name="Path 3087" d="M451.349,289.089l-.009-.007v.007Z" transform="translate(-37.22 -3.614)" fill="#fff" fill-rule="evenodd"/>
    <path id="Path_3088" data-name="Path 3088" d="M454.6,296.6l.374-.361a.084.084,0,0,1,.074.032l-.032.69a.97.97,0,0,0,.641.237c.019-.187.162-.317.243-.479.068-.131.025-.324.162-.418l.043.044a2.051,2.051,0,0,0,.138.616c.013.1.031.224.043.311a1.552,1.552,0,0,0,.735-.162,2.788,2.788,0,0,1,.105-.648c.057-.074-.068-.211.087-.2.087.186.243.379.33.578a2.439,2.439,0,0,0,.6-1.343c-.105-.144-.267-.144-.392-.237a4.68,4.68,0,0,0-3.435.118,1.584,1.584,0,0,0,.287,1.226Z" transform="translate(-38.209 -5.593)" fill="#fff" fill-rule="evenodd"/>
    <path id="Path_3089" data-name="Path 3089" d="M439.876,314.586a9.677,9.677,0,0,0,.03,1.4.716.716,0,0,0,.461.348l.031-.317c.075-.443-.162-.912.088-1.285a3,3,0,0,1,.5.223,1.091,1.091,0,0,0-.424-1.138l-.684.765Z" transform="translate(-33.373 -11.904)" fill="#fff" fill-rule="evenodd"/>
    <path id="Path_3090" data-name="Path 3090" d="M442.053,313.495a3.657,3.657,0,0,0-.13,2.392,2.766,2.766,0,0,0,.491-.373,2.588,2.588,0,0,1,.237-1.7,1.106,1.106,0,0,1,.628.673,1.151,1.151,0,0,0,.194-.971c.013-.273-.3-.211-.449-.324.051-.23.044-.5.287-.627l-.747.074a3.509,3.509,0,0,0-.51.852Z" transform="translate(-34.013 -11.484)" fill="#fff" fill-rule="evenodd"/>
    <path id="Path_3091" data-name="Path 3091" d="M444.506,315.734c.031.056,0,.156.062.168.094-.523.517-.861.747-1.322.111-.156.105-.373.286-.492.243,0,.418.175.654.194.074.056-.039.105-.044.167a6.109,6.109,0,0,0-.18,1.211h.043a6.327,6.327,0,0,0,.8-1.124l.043-.354c.056-.423-.4-.7-.7-.87l.268-.342-.373-.131a1.7,1.7,0,0,0-1.133.566,5.062,5.062,0,0,0-.467,2.33Z" transform="translate(-34.93 -11.574)" fill="#fff" fill-rule="evenodd"/>
    <path id="Path_3092" data-name="Path 3092" d="M447.024,311.3c.143.044.273-.075.416-.012a3.769,3.769,0,0,1,1.6.908l.51,1.3.255-.8-.168-.437c-.142-.311-.535-.285-.8-.3-.111-.124.007-.268.045-.386.13-.442-.411-.418-.629-.6.013-.268-.311-.174-.492-.2l-.062-.074a.128.128,0,0,0-.18-.013c-.013-.018-.037-.031-.025-.062l-.138.031a.883.883,0,0,0-.329.64Z" transform="translate(-35.774 -10.834)" fill="#fff" fill-rule="evenodd"/>
    <path id="Path_3093" data-name="Path 3093" d="M447.566,309.169a.4.4,0,0,0,.131.211c.281-.074.547-.267.871-.15a4.918,4.918,0,0,0,1.357.952l.18-.031c.112.038.237.044.311.168.069.168-.105.268-.162.4.281.2.168.573.342.821l.448-.6c-.105-.261.006-.709-.4-.733a.392.392,0,0,1-.224-.362c-.267-.243-.6-.348-.865-.6-.217-.174-.348-.442-.629-.5a2.325,2.325,0,0,0-.627-.211c-.418-.062-.454.435-.729.628Z" transform="translate(-35.955 -10.132)" fill="#fff" fill-rule="evenodd"/>
    <path id="Path_3094" data-name="Path 3094" d="M448.464,307.328l.075.118c.311-.019.592-.156.9-.15.2.126.473.119.684.224a2.39,2.39,0,0,0,.6.648c.5.074.784.616.959,1.014v-.194a1.326,1.326,0,0,0-.106-.821c-.124-.125-.3-.206-.435-.318a.255.255,0,0,1,.019-.193,4.041,4.041,0,0,0-.715-.478c-.33-.48-.965-.349-1.469-.48l-.5.629Z" transform="translate(-36.256 -9.517)" fill="#fff" fill-rule="evenodd"/>
    <path id="Path_3095" data-name="Path 3095" d="M448.449,300.547c.055.193.122.437.16.642.174-.386.518-.559.823-.877a1.579,1.579,0,0,0-.585-.212v-.011c-.138.136-.349.273-.4.459Z" transform="translate(-36.251 -7.302)" fill="#fff" fill-rule="evenodd"/>
    <path id="Path_3096" data-name="Path 3096" d="M450.149,303.188l.28-.286a1.767,1.767,0,0,0,.554-.983.8.8,0,0,0-.653.031,7.878,7.878,0,0,0-.181,1.238Z" transform="translate(-36.821 -7.896)" fill="#fff" fill-rule="evenodd"/>
    <path id="Path_3097" data-name="Path 3097" d="M450.457,304.531a1.81,1.81,0,0,0,1.2-.13l.348-1.12a.851.851,0,0,0-.328-.019,2.727,2.727,0,0,1-1.215,1.27Z" transform="translate(-36.924 -8.361)" fill="#fff" fill-rule="evenodd"/>
    <path id="Path_3098" data-name="Path 3098" d="M450.591,298.771a2.491,2.491,0,0,0,1.225,1c-.056-.522-.5-.884-.733-1.331l-.013-.15a2.324,2.324,0,0,0-.586-.386,2.89,2.89,0,0,0,.106.865Z" transform="translate(-36.931 -6.571)" fill="#fff" fill-rule="evenodd"/>
    <path id="Path_3099" data-name="Path 3099" d="M452.928,304.716a2.184,2.184,0,0,0,.989-.094c.443-.1.686-.59.835-.97H454.2l-.6.584a4.831,4.831,0,0,0-.672.479Z" transform="translate(-37.752 -8.496)" fill="#fff" fill-rule="evenodd"/>
    <path id="Path_3100" data-name="Path 3100" d="M452.828,298.355a3.626,3.626,0,0,0,.579,1.345l.074-.927-.654-.418Z" transform="translate(-37.718 -6.721)" fill="#fff" fill-rule="evenodd"/>
    <path id="Path_3101" data-name="Path 3101" d="M455.507,301.378a4.6,4.6,0,0,0-.128-.989c-.187-.125-.449-.112-.641-.236a1.827,1.827,0,0,0,.769,1.225Z" transform="translate(-38.358 -7.324)" fill="#fff" fill-rule="evenodd"/>
    <path id="Path_3102" data-name="Path 3102" d="M455.044,306.007a6.166,6.166,0,0,0,1.132-.461c.23-.329.579-.629.629-1.015-.287.081-.535-.011-.8.119a2.05,2.05,0,0,1-.572.834c-.05.211-.28.355-.386.523Z" transform="translate(-38.461 -8.791)" fill="#fff" fill-rule="evenodd"/>
    <path id="Path_3103" data-name="Path 3103" d="M455.96,307.886l.467.61a.947.947,0,0,0,.777-.088l-.168-.553a2.171,2.171,0,0,1-1.077.031Z" transform="translate(-38.768 -9.905)" fill="#fff" fill-rule="evenodd"/>
    <path id="Path_3104" data-name="Path 3104" d="M457.131,300.974l.18.822a1.653,1.653,0,0,0,.513-1.419,1.952,1.952,0,0,1-.693.6Z" transform="translate(-39.16 -7.399)" fill="#fff" fill-rule="evenodd"/>
    <path id="Path_3105" data-name="Path 3105" d="M458.973,303.456a.6.6,0,0,0,.106.324c.486.174.535.765.984.989a1.116,1.116,0,0,0,.883-.149c-.192-.218-.411-.368-.6-.6-.132-.056-.262-.137-.255-.3l-1.121-.267Z" transform="translate(-39.777 -8.431)" fill="#fff" fill-rule="evenodd"/>
    <path id="Path_3106" data-name="Path 3106" d="M459.51,307.657a1.445,1.445,0,0,0,.8.435c-.049-.068.031,0,.044-.043l-.374-.821c-.185,0-.379.043-.553.03a1.647,1.647,0,0,0,.086.4Z" transform="translate(-39.928 -9.695)" fill="#fff" fill-rule="evenodd"/>
    <path id="Path_3107" data-name="Path 3107" d="M460.114,301.431a4.805,4.805,0,0,1-.3-1.343c-.187.223-.38.367-.555.6-.08.46.577.573.852.746Z" transform="translate(-39.872 -7.302)" fill="#fff" fill-rule="evenodd"/>
    <path id="Path_3108" data-name="Path 3108" d="M461.589,300.6c.224.292.715.192.99.105-.131-.224-.553-.354-.627-.6a5.4,5.4,0,0,0-.269-1.238,1.769,1.769,0,0,0-.094,1.73Z" transform="translate(-40.588 -6.894)" fill="#fff" fill-rule="evenodd"/>
    <path id="Path_3109" data-name="Path 3109" d="M462.278,303.355a2.558,2.558,0,0,0,2.1.791c.062-.044.168-.038.181-.118-.255-.162-.529-.286-.791-.436l-.3-.436h-.136a5.415,5.415,0,0,1-1.059.2Z" transform="translate(-40.885 -8.33)" fill="#fff" fill-rule="evenodd"/>
    <path id="Path_3110" data-name="Path 3110" d="M462.3,310.481h.043a3.363,3.363,0,0,1,1.257-.523c.119.044.044.174.149.225.269-.112.592-.087.865-.181a1.871,1.871,0,0,1,.865.162c.211.279.61.249.884.435l-.044-.435a2.794,2.794,0,0,0-2.315-.716l-.019-.087a1.492,1.492,0,0,0-.609.131,3.159,3.159,0,0,0-.779.224,7.665,7.665,0,0,0-.3.765Z" transform="translate(-40.891 -10.409)" fill="#fff" fill-rule="evenodd"/>
    <path id="Path_3111" data-name="Path 3111" d="M462.9,298.979a1.053,1.053,0,0,0,1.014.479,1.183,1.183,0,0,1-.467-.716c.063-.554-.547-.6-.846-.884a3.739,3.739,0,0,0,.3,1.121Z" transform="translate(-40.992 -6.555)" fill="#fff" fill-rule="evenodd"/>
    <path id="Path_3112" data-name="Path 3112" d="M462.953,312.223h.073c.331-.206.81-.051,1.133-.268.181-.094.192.155.318.223.3.187.341.747.771.616.516.268.386.9.4,1.358l.479-.3c-.044-.243.092-.537-.063-.748-.118-.267-.442-.292-.6-.509.187-.317-.237-.467-.324-.7l.025-.031.659.087a.982.982,0,0,1,.373.616c.517.087.641.672.823,1.046.106-.255.149-.53.255-.778.006-.206-.268-.206-.4-.3a1.114,1.114,0,0,0-.46-.809,6.847,6.847,0,0,0-1.706-.461l-.523.162c-.286.068-.591-.019-.809.18-.323.025-.348.381-.428.611Z" transform="translate(-41.111 -11.049)" fill="#fff" fill-rule="evenodd"/>
    <path id="Path_3113" data-name="Path 3113" d="M463.448,308.327l.118.056c.254-.119.51-.255.778-.355.416-.118.74.355,1.089.056.13-.093.241.043.341.118.15.274.5.255.759.33-.13-.354-.291-.84-.746-.9a4.347,4.347,0,0,1-.567-.18c-.478-.528-.789.436-1.313.2a1.45,1.45,0,0,0-.46.673Z" transform="translate(-41.277 -9.717)" fill="#fff" fill-rule="evenodd"/>
    <path id="Path_3114" data-name="Path 3114" d="M463.626,313.344c.2.167.4.454.714.416.388.181.225.691.437.959l.224-.2-.019-.011.032-.032.013.019a1.187,1.187,0,0,0-.132-.735c-.143-.1-.311.007-.448-.087a.63.63,0,0,0-.286-.422c-.1-.075-.231.025-.342.019l-.193.075Z" transform="translate(-41.336 -11.703)" fill="#fff" fill-rule="evenodd"/>
    <path id="Path_3115" data-name="Path 3115" d="M464.8,301.874a3.209,3.209,0,0,0,.921.79,1.473,1.473,0,0,0,.884.087,5.717,5.717,0,0,1-.735-.728c-.087-.124-.106-.279-.224-.392a1.752,1.752,0,0,0-.846.243Z" transform="translate(-41.728 -7.819)" fill="#fff" fill-rule="evenodd"/>
    <path id="Path_3116" data-name="Path 3116" d="M465.312,298.473c.287.354.728.211,1.133.224v-.043l-.622-.523a1.668,1.668,0,0,0-.511.342Z" transform="translate(-41.901 -6.646)" fill="#fff" fill-rule="evenodd"/>
    <path id="Path_3117" data-name="Path 3117" d="M448.084,289.271l.36,1.12c-.007-.635.286-1.163.224-1.811l.268-.4-.567.175a2.1,2.1,0,0,0-.286.914Z" transform="translate(-36.129 -3.313)" fill="#fff" fill-rule="evenodd"/>
    <path id="Path_3118" data-name="Path 3118" d="M448.449,286.39l.491-.287v-.728a2.607,2.607,0,0,0-.478.5l-.013.51Z" transform="translate(-36.251 -2.372)" fill="#fff" fill-rule="evenodd"/>
    <path id="Path_3119" data-name="Path 3119" d="M458.653,286.085a.689.689,0,0,1-.448.224,2.126,2.126,0,0,0,.18-1.687,2.36,2.36,0,0,0,.417-.149l-.013-.012.343-.3c.454-.311.279-.9.448-1.344-.224-.348-.292-.771-.616-1.065l.019-.011c-.256-.324-.716-.287-1.065-.449-.461-.156-.815.162-1.144.374-.143.024-.056.211-.211.2a6.394,6.394,0,0,0-.255.734,2.492,2.492,0,0,0-1.773.33,2.614,2.614,0,0,0-.884-.317c-.223-.043-.479.038-.64-.088-.237-.267-.287-.752-.692-.821-.142-.049-.173-.2-.173-.342-.269-.043-.505-.167-.767-.224-.4-.181-.715.106-1.014.3a3.141,3.141,0,0,0-.4.15,5.719,5.719,0,0,0-.578,1.089,2.27,2.27,0,0,0,.342.865,1.76,1.76,0,0,0,.97.884,3.681,3.681,0,0,0,0,1.973l-.011.007-.02.017a.342.342,0,0,1-.172-.017h-.008a2.711,2.711,0,0,0,.82,1.561c.162.057.125.249.194.374a.287.287,0,0,1,.03.223,4.879,4.879,0,0,0-2.613.653c-.2.1-.112.374-.13.567a4.79,4.79,0,0,1,1.792-.746,2.7,2.7,0,0,1,.865-.013l.031.535a7.888,7.888,0,0,0-2.184,1.244,2.544,2.544,0,0,0,.031.579l.566-.461a6.758,6.758,0,0,1,1.748-1,2.184,2.184,0,0,0,.567.535,4.251,4.251,0,0,1,1.226-.535c.23-.136.6-.012.746-.285l.106-.567c-.019-.013-.031-.037-.063-.031a.857.857,0,0,1-.46-.8.842.842,0,0,1-.33.087c-.1-.025-.193-.049-.237-.149-.007-.125-.068-.311.055-.4a2.412,2.412,0,0,1,1.438-.223c.38.049.928.03,1.057.479-.017.13-.006.273-.136.36s-.293-.007-.418-.062a1.028,1.028,0,0,1-.61.747l.044.361c.043.162.055.429.311.374a5.449,5.449,0,0,1,1.63.778,3.931,3.931,0,0,0,.435-.554,8.129,8.129,0,0,1,2.476,1.642l.033-.522a8.533,8.533,0,0,0-2.36-1.451,3.248,3.248,0,0,0,.075-.51,6.107,6.107,0,0,1,2.744.84l-.013-.448a6.1,6.1,0,0,0-2.825-.778.323.323,0,0,1-.043-.193,1.383,1.383,0,0,0,.971-1.046c.255-.292.622-.609.535-1.045.011-.035.024-.074.037-.111a.514.514,0,0,0,.025-.324Z" transform="translate(-36.362 -0.935)" fill="#fff" fill-rule="evenodd"/>
    <path id="Path_3120" data-name="Path 3120" d="M464.929,290.25l.51-.162.056-.286c.144-.418-.161-.729-.311-1.059l-.255,1.506Z" transform="translate(-41.773 -3.501)" fill="#fff" fill-rule="evenodd"/>
    <path id="Path_3121" data-name="Path 3121" d="M466.863,293.6c.243.267.479.7.91.565a2.738,2.738,0,0,0-.194-.491c-.112-.132-.149-.5-.373-.373-.168-.112-.211-.3-.317-.449a4.325,4.325,0,0,0-.026.747Z" transform="translate(-42.42 -4.878)" fill="#fff" fill-rule="evenodd"/>
    <path id="Path_3122" data-name="Path 3122" d="M467,296.656c.094.132.118.3.211.418a1,1,0,0,0,.622.074c.187-.043.305.162.479.043-.217-.137-.348-.386-.554-.565-.243-.194-.5-.025-.759.03Z" transform="translate(-42.466 -6.112)" fill="#fff" fill-rule="evenodd"/>
    <path id="Path_3123" data-name="Path 3123" d="M467.439,300.888a2.388,2.388,0,0,0,1.548.418c.063-.032.168-.025.18-.1a9.351,9.351,0,0,0-1.1-.555c-.206-.317-.473.081-.735.056.007.075.081.132.106.181Z" transform="translate(-42.578 -7.449)" fill="#fff" fill-rule="evenodd"/>
    <path id="Path_3124" data-name="Path 3124" d="M469.437,309.332l.094.2c.094.647.5,1.244.279,1.954.188.131.243.348.361.523h.031a4.17,4.17,0,0,0-.031-1.643c.057-.491-.441-.778-.734-1.033Z" transform="translate(-43.283 -10.399)" fill="#fff" fill-rule="evenodd"/>
    <path id="Path_3125" data-name="Path 3125" d="M469.6,299.6a1.389,1.389,0,0,0,1.213.15,3.722,3.722,0,0,1-.691-.448l-.522.3Z" transform="translate(-43.338 -7.038)" fill="#fff" fill-rule="evenodd"/>
    <path id="Path_3126" data-name="Path 3126" d="M471.906,302.35a.676.676,0,0,0,.33.61,1.425,1.425,0,0,0,.193-.46,1.142,1.142,0,0,0-.448-.691,1.521,1.521,0,0,0-.074.541Z" transform="translate(-44.109 -7.879)" fill="#fff" fill-rule="evenodd"/>
    <path id="Path_3127" data-name="Path 3127" d="M471.934,306.512c-.044.292.28.33.416.492.113.136-.074.23-.074.36a1.686,1.686,0,0,1,.373,1.059,10.163,10.163,0,0,0,.287-1.133c-.025-.273-.46-.217-.392-.523a1.355,1.355,0,0,0-.106-.9c-.025-.045-.081-.132-.13-.106-.113.255-.392.435-.374.746Z" transform="translate(-44.119 -9.203)" fill="#fff" fill-rule="evenodd"/>
    <path id="Path_3128" data-name="Path 3128" d="M473.219,304.231l.324.628c.143-.018.235-.156.348-.255.087-.261-.144-.43-.211-.641-.057-.149,0-.349-.106-.479-.08-.049-.174-.13-.268-.106l-.086.853Z" transform="translate(-44.551 -8.403)" fill="#fff" fill-rule="evenodd"/>
    <path id="Path_3129" data-name="Path 3129" d="M473.845,302.175a1.81,1.81,0,0,1,.684.652c.219.635.567,1.208.823,1.824.094.429.168.812.286,1.236.044.111.019.328.193.311.049-.473.143-.927.149-1.419a1.886,1.886,0,0,0-.554-.418v-.043c.025-.106.112-.23.243-.211.055-.063.223-.125.149-.237-.324-.324-.305-.882-.822-.981a.469.469,0,0,1-.242-.435,1.478,1.478,0,0,0-.909-.279Z" transform="translate(-44.76 -8.001)" fill="#fff" fill-rule="evenodd"/>
    <path id="Path_3130" data-name="Path 3130" d="M474.281,306.842c.318.292.206.715.181,1.108-.049.237.249.1.343.223a1.361,1.361,0,0,1,.011,1.015,6.082,6.082,0,0,0,.492-.759c-.007-.106.13-.156.125-.286.056-.181-.156-.1-.243-.119s-.156-.069-.132-.168a1.521,1.521,0,0,0-.049-1c-.074-.255.031-.6-.087-.821-.2.273-.791.335-.642.8Z" transform="translate(-44.898 -9.296)" fill="#fff" fill-rule="evenodd"/>
    <path id="Path_3131" data-name="Path 3131" d="M475.165,300.6c.554.561.959,1.124,1.555,1.665a6.493,6.493,0,0,0-.031-.7,1.641,1.641,0,0,0-.386-.416c-.441-.044-.672-.639-1.138-.546Z" transform="translate(-45.203 -7.469)" fill="#fff" fill-rule="evenodd"/>
    <path id="Path_3132" data-name="Path 3132" d="M477.345,305.015a.911.911,0,0,0,.061.162,8.038,8.038,0,0,1,.642,1.238c-.05-.46.261-1.033-.15-1.387-.055-.149-.243-.1-.36-.087l-.193.074Z" transform="translate(-45.933 -8.922)" fill="#fff" fill-rule="evenodd"/>
    <path id="Path_3133" data-name="Path 3133" d="M479.591,311.529c.174.08.4-.063.567-.162a.508.508,0,0,1,.4.13c.049.1,0,.192.017.286a3.792,3.792,0,0,1,1.071.46l.105-.105a.731.731,0,0,0-.386-.61c-.13-.076-.324-.031-.416-.15a.642.642,0,0,0,.056-.36.894.894,0,0,1-.5-.162c-.105-.03-.2-.117-.286,0-.311.211-.33.523-.628.673Z" transform="translate(-46.686 -10.89)" fill="#fff" fill-rule="evenodd"/>
    <path id="Path_3134" data-name="Path 3134" d="M480.223,299.6a1.126,1.126,0,0,0,.448-.2c.416-.38,1.021-.126,1.5-.132a3.357,3.357,0,0,0-.342-.479,1.432,1.432,0,0,0-.535-.15c-.424-.248-.709.168-1.033.373a.693.693,0,0,0-.043.586Z" transform="translate(-46.881 -6.791)" fill="#fff" fill-rule="evenodd"/>
    <path id="Path_3135" data-name="Path 3135" d="M480.24,301.467c0-.017,0-.037.019-.043.056.051-.007.168.087.193a3.569,3.569,0,0,0,.46-.3c.418,0,.667-.4,1.077-.4a6.141,6.141,0,0,1,1.96.6,1.347,1.347,0,0,0-.746-.953.514.514,0,0,0-.5.15c-.418.262-.2-.38-.492-.392a3.081,3.081,0,0,1-1.194.213c-.249.092-.424.323-.7.3a1.571,1.571,0,0,0,.031.64Z" transform="translate(-46.887 -7.378)" fill="#fff" fill-rule="evenodd"/>
    <path id="Path_3136" data-name="Path 3136" d="M480.649,303.639c.13.136.348.111.535.136l.541-.211c.006-.1-.162-.126-.126-.237.15-.168.356-.051.541-.119.263-.037.53-.3.791-.105-.006.031.013.075-.011.105-.082.193.056.311.2.386.305.057.59.336.9.211a5.505,5.505,0,0,0-.162-.734c-.254-.044-.434-.255-.672-.342a.51.51,0,0,1-.373.162c-.479-.112-1.052-.41-1.537-.105-.174.211-.485.149-.722.241a2.725,2.725,0,0,0,.094.611Z" transform="translate(-47.009 -8.162)" fill="#fff" fill-rule="evenodd"/>
    <path id="Path_3137" data-name="Path 3137" d="M480.972,309.486c-.038.106-.143.281.049.33.4.013.91-.192,1.221.118.105.082.056.249.049.355l.523.436a4.429,4.429,0,0,0,.149-.779.876.876,0,0,0-.316-.523c-.343,0-.543-.4-.91-.35-.192-.045-.36.127-.554.127a3.081,3.081,0,0,0-.211.286Z" transform="translate(-47.127 -10.31)" fill="#fff" fill-rule="evenodd"/>
    <path id="Path_3138" data-name="Path 3138" d="M481.214,305.118c.081.168.175.441.33.461a1.763,1.763,0,0,1,1.313-.087c.137.025.137.18.106.281.211.124.467.223.69.36l-.061-.373c-.013-.4-.524-.443-.555-.841a2.469,2.469,0,0,0-1.325-.074c-.144.131-.349.112-.523.15-.012.049.019.08.025.124Z" transform="translate(-47.22 -8.876)" fill="#fff" fill-rule="evenodd"/>
    <path id="Path_3139" data-name="Path 3139" d="M481.388,307.813c.243-.068.4-.336.66-.36a1.214,1.214,0,0,1,1,.51c.15.1.118.355.311.355a6.241,6.241,0,0,1,.033-.9c-.263-.436-.908-.1-1.152-.61l-.46.031c-.33.08-.243.467-.287.728-.037.081-.111.143-.105.243Z" transform="translate(-47.288 -9.555)" fill="#fff" fill-rule="evenodd"/>
    <path id="Path_3140" data-name="Path 3140" d="M484.821,312.149c.194.386.618.678.661,1.12a2.1,2.1,0,0,0,.237-.386c-.007-.126-.15-.126-.207-.224-.056-.162.032-.3.057-.449a1.215,1.215,0,0,0-.492-.584l-.256.523Z" transform="translate(-48.438 -11.168)" fill="#fff" fill-rule="evenodd"/>
    <path id="Path_3141" data-name="Path 3141" d="M485.974,310.6l.448.61a1.607,1.607,0,0,0,.118-1.12c-.043-.069-.124-.18-.237-.131-.168.175-.192.442-.329.642Z" transform="translate(-48.824 -10.607)" fill="#fff" fill-rule="evenodd"/>
    <path id="Path_3142" data-name="Path 3142" d="M483.231,285.106a1.306,1.306,0,0,0,.51.168.655.655,0,0,1,.461-.074c.23.149.51-.032.777-.019a2.86,2.86,0,0,0-.777-.491c-.349.074-.628.322-.971.416Z" transform="translate(-47.905 -2.143)" fill="#fff" fill-rule="evenodd"/>
    <path id="Path_3143" data-name="Path 3143" d="M486.891,286.115c.329.031.565.323.789.567a1.109,1.109,0,0,1,.66.448l-.106-.33a2.107,2.107,0,0,0-.491-.846,2.425,2.425,0,0,0-.852.162Z" transform="translate(-49.132 -2.566)" fill="#fff" fill-rule="evenodd"/>
    <path id="Path_3144" data-name="Path 3144" d="M451.531,282.09l.181.019c.485.243,1.27.367,1.313,1.071a3.836,3.836,0,0,0-1.355.852c-.3-.305-.9-.137-1-.672.094-.5.273-1.138.864-1.27Z" transform="translate(-36.994 -1.272)" fill="#ec6500" fill-rule="evenodd"/>
    <path id="Path_3145" data-name="Path 3145" d="M452.623,286.826c.565-.049,1.113.03,1.7-.019a.751.751,0,0,1,.361.33c-.019.672-.224,1.313-.256,2a.922.922,0,0,0-.565.6,4.987,4.987,0,0,0-.66.311.656.656,0,0,1,.094-.7c.243-.342.871-.261.821-.8.162-.262.007-.6.013-.872-.062-.2-.124.068-.223.063a.812.812,0,0,1-.578-.043c-.132-.138-.294-.249-.33-.436a1.023,1.023,0,0,1-.467-.4l.094-.024Z" transform="translate(-37.618 -2.852)" fill="#ec6500" fill-rule="evenodd"/>
    <path id="Path_3146" data-name="Path 3146" d="M453.689,292.931c.267.037.547-.081.777.049a.447.447,0,0,1-.285.15l-.418.193c-.156-.038-.068-.287-.074-.392Z" transform="translate(-38.001 -4.899)" fill="#ec6500" fill-rule="evenodd"/>
    <path id="Path_3147" data-name="Path 3147" d="M455.067,285.02c.267-.087.555-.267.841-.18a4.031,4.031,0,0,0-.523.721l-.852-.017a1.2,1.2,0,0,1,.535-.524Z" transform="translate(-38.289 -2.185)" fill="#ec6500" fill-rule="evenodd"/>
    <path id="Path_3148" data-name="Path 3148" d="M458.842,284.8c.354-.062.334.4.659.418.056.074.138.142.106.254a5.408,5.408,0,0,1-.673.087c-.279-.156-.1-.641-.541-.61-.024-.037-.074-.112-.011-.136a1.043,1.043,0,0,1,.461-.013Z" transform="translate(-39.569 -2.175)" fill="#ec6500" fill-rule="evenodd"/>
    <path id="Path_3149" data-name="Path 3149" d="M458.715,287.182a.85.85,0,0,1,.616-.281l1.612.031c.068.062-.062.118-.062.192-.1.094-.243.119-.33.206-.211.007-.194.254-.342.36-.231.23-.566.126-.834.088a.717.717,0,0,1-.243-.269l-.075.074c.094.349.068.735.137,1.089l.386.255c.006.573.68.418.971.735a1.733,1.733,0,0,1-.354.554,2.08,2.08,0,0,0-.791-.479c-.025-.337-.392-.535-.6-.7-.056-.61-.068-1.232-.167-1.824l.074-.03Z" transform="translate(-39.666 -2.884)" fill="#ec6500" fill-rule="evenodd"/>
    <path id="Path_3150" data-name="Path 3150" d="M459.583,293.1h.747l-.094.392-.747-.317c-.017-.062.051-.081.094-.074Z" transform="translate(-39.949 -4.959)" fill="#ec6500" fill-rule="evenodd"/>
    <path id="Path_3151" data-name="Path 3151" d="M461.412,282.405l.554-.174a5.638,5.638,0,0,1,.908.547,2.2,2.2,0,0,1,.088,1.469c-.169.187-.535,0-.672.3h-.025a2.737,2.737,0,0,0-1.332-1.375,1.154,1.154,0,0,1,.479-.765Z" transform="translate(-40.434 -1.319)" fill="#ec6500" fill-rule="evenodd"/>
    <path id="Path_3152" data-name="Path 3152" d="M466.948,304.8h3.32a2.426,2.426,0,0,0,1.406-.424,6.459,6.459,0,0,0,4.655-1.07,9.72,9.72,0,0,0,1.809-1.9,6.861,6.861,0,0,0,1.016-1.892,8.72,8.72,0,0,0,.4-1.332,12.677,12.677,0,0,0-.475-6.621c-.13-.38-.276-.749-.437-1.1a11.467,11.467,0,0,0-3.905-4.911,7.863,7.863,0,0,1-2.571-2.676c-.318-.287-.623-.667-1.034-.735a1.605,1.605,0,0,1,.269.585l-.025.032a1.512,1.512,0,0,1-1.077-.5l.33-.3a1.736,1.736,0,0,0-.4-.118,9.161,9.161,0,0,0-3.4.715l-.019.062c.684.305.827,1.057,1.225,1.569.1-.119.268-.032.4-.045.2.013.386.156.578.106a1.749,1.749,0,0,0-.118-.447c.118-.057.261-.007.392,0,.36.211.94-.038,1.164.447a6.767,6.767,0,0,0-1.183.2c.025.156.181.281.168.437a3.9,3.9,0,0,0-1.046-.269l-.018.056a3.6,3.6,0,0,0,1.761,1.065c.94.217,1.767-.231,2.675-.075a10.426,10.426,0,0,1,4.96,5.572c.041.106.08.214.116.322a10.78,10.78,0,0,1,.13,6.621,8.108,8.108,0,0,1-1.429,2.421,5.112,5.112,0,0,1-.816.8,3.66,3.66,0,0,1-3.272.721c-.074-.049-.225-.063-.2-.193.043-.173.08-.35.114-.529a13.168,13.168,0,0,0,.235-3.139c0-.045,0-.091-.005-.136a12,12,0,0,0-.941-4.269,14.834,14.834,0,0,0-1.341-2.353,5.564,5.564,0,0,0-2.493-2.054,1.867,1.867,0,0,0-1.9.33,1.276,1.276,0,0,0-.436,1.144,3.892,3.892,0,0,1-1.793.579c-.16.014-.325.073-.491.071a2.667,2.667,0,0,1-.464-.019,4.581,4.581,0,0,1-2.192-1.008c-.013-.323-.031-.628-.045-.969a1.175,1.175,0,0,1-.658-.928l.031-.031a2.6,2.6,0,0,1,.553.268,4.064,4.064,0,0,0-.416-1.388c-.225-.094-.45-.168-.661-.281a1.065,1.065,0,0,1-.434-.722c.217.212.6.138.765.362a12.647,12.647,0,0,0-.778-2.645c-.243-.585-.878-.852-1.313-1.282-.168-.2-.237-.491-.541-.523-.249-.062-.268-.342-.311-.523a4.3,4.3,0,0,1,.417.15,4.7,4.7,0,0,0-1.655-2.632l-.168.105a10.406,10.406,0,0,1-1.164.093,1.6,1.6,0,0,1,.7-.467,1.675,1.675,0,0,0-.842-.311,1.717,1.717,0,0,1-.813.354l-.03-.024c-.007-.224-.059-.5.278-.554a1.936,1.936,0,0,0-1.189,0c-.094.243-.359.46-.341.746a5.052,5.052,0,0,1-.529.61,5.82,5.82,0,0,1,.285-1.325c-.279.105-.564.254-.837.386a11.545,11.545,0,0,0-1.38-.7c-.045-.019-.138-.038-.119.043.4.292.248.84.291,1.257l-.255-.211c-.124-.318-.483-.548-.546-.9a4.738,4.738,0,0,0-1.086.362l-.055.031a.878.878,0,0,1,.684.46,8.078,8.078,0,0,1-1.269-.192c-.044-.045-.08-.094-.15-.087a2.382,2.382,0,0,0-.6.386,4.194,4.194,0,0,0-1.07,1.45.947.947,0,0,1,.43.106c-.235.143-.442.386-.672.523a5.718,5.718,0,0,0-.088,1.046,4.748,4.748,0,0,0-.541.821,12.188,12.188,0,0,0-.428,4.057c-.126.118-.287.194-.4.287l.013,1.269h.031c.056-.268.374-.417.566-.6h.063c-.031.286-.068.572-.075.865l-.36.3c-.36.318-.055.8-.087,1.194.026.106.043.261.119.287a1.679,1.679,0,0,1,.267-.4c.156-.038.293-.162.435-.18a6.539,6.539,0,0,1-.311.914,1.088,1.088,0,0,0-.19.156.454.454,0,0,0-.126.232,27.961,27.961,0,0,0,1.224,4.317c-.342.578-.536,1.26-.822,1.858-.041.083-.077.168-.112.255-.285.723-.373,1.531-.728,2.228a2.455,2.455,0,0,0-.46-.243,1.876,1.876,0,0,0-1.942.435,1.669,1.669,0,0,0-1.227.224,1.634,1.634,0,0,0-.544.667,1.35,1.35,0,0,0-.1.59,1.426,1.426,0,0,0-.522.791,2.45,2.45,0,0,0,.491,1.888Z" transform="translate(-32.991)" fill="#fff" fill-rule="evenodd"/>
    <path id="Path_3153" data-name="Path 3153" d="M479.08,291.552c-.13-.38-.276-.749-.437-1.1a11.467,11.467,0,0,0-3.905-4.911,7.863,7.863,0,0,1-2.571-2.676c-.318-.287-.623-.667-1.034-.735a1.605,1.605,0,0,1,.269.585l-.025.032a1.512,1.512,0,0,1-1.077-.5l.33-.3a1.736,1.736,0,0,0-.4-.118,9.161,9.161,0,0,0-3.4.715l-.019.062c.684.305.827,1.057,1.225,1.569.1-.119.268-.032.4-.045.2.013.386.156.578.106a1.749,1.749,0,0,0-.118-.447c.118-.057.261-.007.392,0,.36.211.94-.038,1.164.447a6.767,6.767,0,0,0-1.183.2c.025.156.181.281.168.437a3.9,3.9,0,0,0-1.046-.269l-.018.056a3.6,3.6,0,0,0,1.761,1.065c.94.217,1.767-.231,2.675-.075a10.426,10.426,0,0,1,4.96,5.572c.041.106.08.214.116.322a10.78,10.78,0,0,1,.13,6.621,8.108,8.108,0,0,1-1.429,2.421,5.112,5.112,0,0,1-.816.8,3.66,3.66,0,0,1-3.272.721c-.074-.049-.225-.063-.2-.193.043-.173.08-.35.114-.529a13.168,13.168,0,0,0,.235-3.139c0-.045,0-.091-.005-.136a12,12,0,0,0-.941-4.269,14.834,14.834,0,0,0-1.341-2.353,5.564,5.564,0,0,0-2.493-2.054,1.867,1.867,0,0,0-1.9.33,1.276,1.276,0,0,0-.436,1.144,3.892,3.892,0,0,1-1.793.579c-.16.014-.325.073-.491.071a2.667,2.667,0,0,1-.464-.019,4.581,4.581,0,0,1-2.192-1.008c-.013-.323-.031-.628-.045-.969a1.175,1.175,0,0,1-.658-.928l.031-.031a2.6,2.6,0,0,1,.553.268,4.064,4.064,0,0,0-.416-1.388c-.225-.094-.45-.168-.661-.281a1.065,1.065,0,0,1-.434-.722c.217.212.6.138.765.362a12.647,12.647,0,0,0-.778-2.645c-.243-.585-.878-.852-1.313-1.282-.168-.2-.237-.491-.541-.523-.249-.062-.268-.342-.311-.523a4.3,4.3,0,0,1,.417.15,4.7,4.7,0,0,0-1.655-2.632l-.168.105a10.406,10.406,0,0,1-1.164.093,1.6,1.6,0,0,1,.7-.467,1.675,1.675,0,0,0-.842-.311,1.717,1.717,0,0,1-.813.354l-.03-.024c-.007-.224-.059-.5.278-.554a1.936,1.936,0,0,0-1.189,0c-.094.243-.359.46-.341.746a5.052,5.052,0,0,1-.529.61,5.82,5.82,0,0,1,.285-1.325c-.279.105-.564.254-.837.386a11.545,11.545,0,0,0-1.38-.7c-.045-.019-.138-.038-.119.043.4.292.248.84.291,1.257l-.255-.211c-.124-.318-.483-.548-.546-.9a4.738,4.738,0,0,0-1.086.362l-.055.031a.878.878,0,0,1,.684.46,8.078,8.078,0,0,1-1.269-.192c-.044-.045-.08-.094-.15-.087a2.382,2.382,0,0,0-.6.386,4.194,4.194,0,0,0-1.07,1.45.947.947,0,0,1,.43.106c-.235.143-.442.386-.672.523a5.718,5.718,0,0,0-.088,1.046,4.748,4.748,0,0,0-.541.821,12.188,12.188,0,0,0-.428,4.057c-.126.118-.287.194-.4.287l.013,1.269h.031c.056-.268.374-.417.566-.6h.063c-.031.286-.068.572-.075.865l-.36.3c-.36.318-.055.8-.087,1.194.026.106.043.261.119.287a1.679,1.679,0,0,1,.267-.4c.156-.038.293-.162.435-.18a6.539,6.539,0,0,1-.311.914,1.088,1.088,0,0,0-.19.156.454.454,0,0,0-.126.232,27.961,27.961,0,0,0,1.224,4.317c-.342.578-.536,1.26-.822,1.858-.041.083-.077.168-.112.255-.285.723-.373,1.531-.728,2.228a2.455,2.455,0,0,0-.46-.243,1.876,1.876,0,0,0-1.942.435,1.669,1.669,0,0,0-1.227.224,1.634,1.634,0,0,0-.544.667,1.35,1.35,0,0,0-.1.59,1.426,1.426,0,0,0-.522.791,2.45,2.45,0,0,0,.491,1.888h11a3.59,3.59,0,0,1-.424-.691c-.236-.356-.074-.859-.1-1.27.223-.452.452-.907.708-1.349.053-.088.1-.176.158-.262l.5-.194c.267,0,.493-.193.747-.124.342.342.342-.342.673-.374a1.893,1.893,0,0,1,1.972.629c0,.087.138.087.106.168-.1.03-.194-.032-.3-.032-.473-.118-1.027-.418-1.493-.149-.018.111-.043.225-.064.336a3.382,3.382,0,0,0-.055.348,1.883,1.883,0,0,1,.791.541,1.262,1.262,0,0,1,.778-.541,1.8,1.8,0,0,1,.747.223c.392.362.2.978.162,1.438.354.2.746.311,1.106.5a1.734,1.734,0,0,1-.6.287l-.6-.119c-.068-.049-.187-.049-.213-.136a3.14,3.14,0,0,0-.565.765h8.524a4.509,4.509,0,0,0-.4-.691,3.546,3.546,0,0,1-.124-1.282l.8-1.214a7.309,7.309,0,0,1,1.4-.087.478.478,0,0,0,.068-.037c.2-.136.256-.45.548-.412a1.605,1.605,0,0,1,1.313.33.539.539,0,0,1-.04.081c-.164.263-.471-.031-.7.049-.093.1.045.217.062.33.082.111-.08.1-.136.118a.423.423,0,0,1-.373-.118c-.025-.031-.006-.068-.056-.074a1.941,1.941,0,0,0-.317.565,1.553,1.553,0,0,1,.4.449c.143.2-.112.36-.162.541a.054.054,0,0,1-.094,0c-.131-.074-.243-.262-.386-.213-.125.555.043,1.108-.031,1.662a4.74,4.74,0,0,0,.79,0l.106-1.17a3.836,3.836,0,0,1,1.089-1.974c.572-.39.94.381,1.362.648.069.013.045.087.075.13-.007.125-.136.174-.223.212-.262.092-.455-.193-.616-.362-.156.168-.224.392-.4.524l.062.018a1.355,1.355,0,0,1,.45.7.786.786,0,0,1-.374.616,6.2,6.2,0,0,1-.416-.9c.006.013-.007.019-.019.032-.342.092-.435.477-.492.791.019.3-.211.428-.149.733h4.437a2.426,2.426,0,0,0,1.406-.424,6.459,6.459,0,0,0,4.655-1.07,9.72,9.72,0,0,0,1.809-1.9,6.861,6.861,0,0,0,1.016-1.892,8.72,8.72,0,0,0,.4-1.332,12.677,12.677,0,0,0-.475-6.621Z" transform="translate(-32.991)" fill="#d3dcde" fill-rule="evenodd"/>
    <path id="Path_3154" data-name="Path 3154" d="M456.452,314.889c.243-.156.635-.194.691-.554a.87.87,0,0,0-.3-.194l-.255.075a3.152,3.152,0,0,1,.15-.479l.821-.267a6.684,6.684,0,0,0-.193,1.269,4.578,4.578,0,0,0,.493,1.842h-.884c-.1-.585-.71-1.008-.523-1.692Z" transform="translate(-38.921 -11.786)" fill="#d3dcde" fill-rule="evenodd"/>
    <path id="Path_3155" data-name="Path 3155" d="M459.18,314.479h.05l.6.543.087-.019c-.049.635-.08,1.257-.087,1.916h-.646a7.929,7.929,0,0,1-.324-1.929,2.95,2.95,0,0,1,.324-.511Z" transform="translate(-39.737 -12.124)" fill="#d3dcde" fill-rule="evenodd"/>
    <path id="Path_3156" data-name="Path 3156" d="M461.232,315.154c.119-.156.169-.418.4-.448a.636.636,0,0,1,.449.149c.218.273.005.622-.074.9a10.488,10.488,0,0,1-.375,1.245h-.628l.223-1.842Z" transform="translate(-40.459 -12.2)" fill="#d3dcde" fill-rule="evenodd"/>
    <path id="Path_3157" data-name="Path 3157" d="M475.43,314.743c.137.175.181.411.386.567a1.176,1.176,0,0,0,.136-.952l-.18-.181c.23-.056.473-.074.7-.118a2.605,2.605,0,0,0-.255,1.014c.006.561.1,1.12.149,1.706h-.684a3.768,3.768,0,0,1-.479-1.706,1.539,1.539,0,0,1,.224-.33Z" transform="translate(-45.216 -11.983)" fill="#d3dcde" fill-rule="evenodd"/>
    <path id="Path_3158" data-name="Path 3158" d="M479.938,296.851c-.006.162-.124.342-.019.479.15-.168.4-.162.6-.237a4.9,4.9,0,0,1,1.6.249c-.13-.206-.217-.436-.361-.622-.287-.076-.722.124-.771-.3-.174-.149-.448-.043-.628-.031a1.4,1.4,0,0,0-.418.461Z" transform="translate(-46.781 -6.047)" fill="#fff" fill-rule="evenodd"/>
    <path id="Path_3159" data-name="Path 3159" d="M451.363,289.022l-.009-.007v.007Z" transform="translate(-37.224 -3.592)" fill="#fff" fill-rule="evenodd"/>
    <path id="Path_3160" data-name="Path 3160" d="M454.614,296.533l.373-.36a.084.084,0,0,1,.074.03l-.031.691a.969.969,0,0,0,.64.237c.019-.186.162-.318.243-.479.068-.13.025-.324.162-.416l.044.043a1.979,1.979,0,0,0,.137.616c.013.1.03.224.043.311a1.541,1.541,0,0,0,.735-.162,2.769,2.769,0,0,1,.106-.646c.056-.075-.069-.213.086-.206.088.187.243.379.331.579a2.434,2.434,0,0,0,.6-1.345c-.105-.143-.267-.143-.392-.237a4.68,4.68,0,0,0-3.434.119,1.58,1.58,0,0,0,.286,1.226Z" transform="translate(-38.213 -5.571)" fill="#fff" fill-rule="evenodd"/>
    <path id="Path_3161" data-name="Path 3161" d="M439.889,314.522a9.574,9.574,0,0,0,.031,1.4.709.709,0,0,0,.461.348l.03-.317c.075-.442-.162-.911.088-1.284a3.015,3.015,0,0,1,.5.223,1.091,1.091,0,0,0-.424-1.139l-.684.767Z" transform="translate(-33.378 -11.881)" fill="#fff" fill-rule="evenodd"/>
    <path id="Path_3162" data-name="Path 3162" d="M442.066,313.428a3.673,3.673,0,0,0-.13,2.393,2.818,2.818,0,0,0,.491-.373,2.585,2.585,0,0,1,.237-1.7,1.105,1.105,0,0,1,.628.672,1.15,1.15,0,0,0,.194-.97c.012-.274-.3-.211-.448-.324.049-.23.043-.5.286-.628l-.746.074a3.517,3.517,0,0,0-.511.852Z" transform="translate(-34.018 -11.461)" fill="#fff" fill-rule="evenodd"/>
    <path id="Path_3163" data-name="Path 3163" d="M444.519,315.669c.032.056,0,.156.063.168.092-.523.516-.861.747-1.323.111-.154.106-.373.286-.491.243,0,.417.174.654.193.074.056-.038.106-.045.168a6.094,6.094,0,0,0-.18,1.21h.043a6.371,6.371,0,0,0,.8-1.123l.043-.354c.056-.424-.4-.7-.7-.871l.269-.343-.374-.13a1.7,1.7,0,0,0-1.133.567,5.061,5.061,0,0,0-.467,2.329Z" transform="translate(-34.934 -11.552)" fill="#fff" fill-rule="evenodd"/>
    <path id="Path_3164" data-name="Path 3164" d="M447.038,311.237c.142.043.273-.074.416-.013a3.789,3.789,0,0,1,1.6.908l.509,1.3.255-.8-.168-.436c-.143-.31-.535-.285-.8-.3-.112-.126.006-.269.044-.386.13-.442-.411-.417-.628-.6.013-.267-.311-.174-.492-.2l-.062-.074a.126.126,0,0,0-.181-.013c-.011-.019-.037-.032-.025-.062l-.136.03a.877.877,0,0,0-.33.642Z" transform="translate(-35.778 -10.813)" fill="#fff" fill-rule="evenodd"/>
    <path id="Path_3165" data-name="Path 3165" d="M447.579,309.1a.406.406,0,0,0,.131.211c.28-.074.549-.268.871-.149a4.91,4.91,0,0,0,1.357.951l.181-.031c.111.037.235.043.31.168.07.168-.105.267-.16.4.279.205.168.573.341.822l.448-.6c-.105-.262.006-.71-.4-.735a.392.392,0,0,1-.225-.361c-.267-.243-.6-.348-.864-.6-.219-.173-.349-.441-.628-.5a2.308,2.308,0,0,0-.629-.211c-.417-.063-.454.435-.729.629Z" transform="translate(-35.96 -10.111)" fill="#fff" fill-rule="evenodd"/>
    <path id="Path_3166" data-name="Path 3166" d="M448.479,307.261l.075.12c.311-.019.59-.156.9-.15.206.124.473.117.684.224a2.384,2.384,0,0,0,.6.646c.5.075.784.618.959,1.015v-.192a1.345,1.345,0,0,0-.105-.823c-.125-.124-.306-.2-.436-.316a.26.26,0,0,1,.019-.193,4.155,4.155,0,0,0-.716-.479c-.33-.479-.964-.348-1.468-.479l-.5.628Z" transform="translate(-36.261 -9.495)" fill="#fff" fill-rule="evenodd"/>
    <path id="Path_3167" data-name="Path 3167" d="M448.462,300.481c.056.194.123.436.161.642.173-.386.517-.561.822-.878a1.586,1.586,0,0,0-.584-.211v-.013c-.138.137-.349.275-.4.46Z" transform="translate(-36.255 -7.28)" fill="#fff" fill-rule="evenodd"/>
    <path id="Path_3168" data-name="Path 3168" d="M450.163,303.123l.279-.286a1.767,1.767,0,0,0,.554-.984.8.8,0,0,0-.652.032,7.856,7.856,0,0,0-.181,1.238Z" transform="translate(-36.825 -7.874)" fill="#fff" fill-rule="evenodd"/>
    <path id="Path_3169" data-name="Path 3169" d="M450.471,304.466a1.805,1.805,0,0,0,1.2-.132l.349-1.119c-.113-.007-.225-.057-.331-.019a2.722,2.722,0,0,1-1.214,1.27Z" transform="translate(-36.929 -8.339)" fill="#fff" fill-rule="evenodd"/>
    <path id="Path_3170" data-name="Path 3170" d="M450.6,298.706a2.515,2.515,0,0,0,1.225,1c-.055-.523-.5-.884-.733-1.332l-.013-.15a2.3,2.3,0,0,0-.585-.386,2.915,2.915,0,0,0,.106.865Z" transform="translate(-36.936 -6.549)" fill="#fff" fill-rule="evenodd"/>
    <path id="Path_3171" data-name="Path 3171" d="M452.942,304.652a2.216,2.216,0,0,0,.99-.094c.442-.106.685-.591.834-.97h-.554l-.6.584a4.462,4.462,0,0,0-.673.479Z" transform="translate(-37.756 -8.475)" fill="#fff" fill-rule="evenodd"/>
    <path id="Path_3172" data-name="Path 3172" d="M452.841,298.29a3.641,3.641,0,0,0,.58,1.344l.074-.927-.654-.418Z" transform="translate(-37.723 -6.7)" fill="#fff" fill-rule="evenodd"/>
    <path id="Path_3173" data-name="Path 3173" d="M455.521,301.313a4.55,4.55,0,0,0-.129-.989c-.187-.125-.448-.112-.641-.236a1.832,1.832,0,0,0,.77,1.225Z" transform="translate(-38.363 -7.302)" fill="#fff" fill-rule="evenodd"/>
    <path id="Path_3174" data-name="Path 3174" d="M455.057,305.941a6.138,6.138,0,0,0,1.134-.46c.23-.33.578-.628.628-1.014-.287.08-.535-.013-.8.118a2.054,2.054,0,0,1-.573.834c-.049.211-.279.354-.386.522Z" transform="translate(-38.465 -8.769)" fill="#fff" fill-rule="evenodd"/>
    <path id="Path_3175" data-name="Path 3175" d="M455.974,307.82l.467.61a.946.946,0,0,0,.777-.086l-.166-.554a2.169,2.169,0,0,1-1.078.03Z" transform="translate(-38.772 -9.883)" fill="#fff" fill-rule="evenodd"/>
    <path id="Path_3176" data-name="Path 3176" d="M457.144,300.909l.18.821a1.647,1.647,0,0,0,.513-1.418,1.929,1.929,0,0,1-.693.6Z" transform="translate(-39.164 -7.377)" fill="#fff" fill-rule="evenodd"/>
    <path id="Path_3177" data-name="Path 3177" d="M458.989,303.39a.587.587,0,0,0,.105.324c.485.174.535.765.984.989a1.1,1.1,0,0,0,.882-.15c-.192-.217-.41-.367-.6-.6-.13-.056-.261-.136-.255-.3l-1.119-.268Z" transform="translate(-39.783 -8.408)" fill="#fff" fill-rule="evenodd"/>
    <path id="Path_3178" data-name="Path 3178" d="M459.525,307.592a1.451,1.451,0,0,0,.8.435c-.05-.069.031,0,.044-.043l-.373-.823c-.187.007-.381.045-.554.033a1.656,1.656,0,0,0,.087.4Z" transform="translate(-39.933 -9.672)" fill="#fff" fill-rule="evenodd"/>
    <path id="Path_3179" data-name="Path 3179" d="M460.127,301.366a4.877,4.877,0,0,1-.3-1.345c-.186.224-.38.368-.555.6-.08.46.578.573.852.747Z" transform="translate(-39.876 -7.28)" fill="#fff" fill-rule="evenodd"/>
    <path id="Path_3180" data-name="Path 3180" d="M461.6,300.535c.225.294.716.193.99.106-.131-.224-.552-.356-.627-.6a5.327,5.327,0,0,0-.268-1.238,1.766,1.766,0,0,0-.1,1.729Z" transform="translate(-40.592 -6.873)" fill="#fff" fill-rule="evenodd"/>
    <path id="Path_3181" data-name="Path 3181" d="M462.291,303.29a2.556,2.556,0,0,0,2.1.791c.062-.043.168-.038.181-.118-.255-.162-.529-.287-.791-.436l-.3-.436h-.136a5.436,5.436,0,0,1-1.059.2Z" transform="translate(-40.889 -8.308)" fill="#fff" fill-rule="evenodd"/>
    <path id="Path_3182" data-name="Path 3182" d="M462.31,310.416h.045a3.3,3.3,0,0,1,1.255-.523c.119.044.045.174.151.223.267-.111.59-.087.864-.18a1.862,1.862,0,0,1,.865.161c.213.281.609.249.884.436l-.045-.436a2.8,2.8,0,0,0-2.315-.715L464,309.3a1.494,1.494,0,0,0-.61.13,3.173,3.173,0,0,0-.778.224,7.349,7.349,0,0,0-.3.765Z" transform="translate(-40.895 -10.387)" fill="#fff" fill-rule="evenodd"/>
    <path id="Path_3183" data-name="Path 3183" d="M462.911,298.914a1.052,1.052,0,0,0,1.015.479,1.179,1.179,0,0,1-.467-.716c.062-.555-.548-.6-.846-.884a3.807,3.807,0,0,0,.3,1.12Z" transform="translate(-40.997 -6.533)" fill="#fff" fill-rule="evenodd"/>
    <path id="Path_3184" data-name="Path 3184" d="M462.966,312.157h.074c.329-.2.809-.049,1.132-.267.181-.094.193.156.317.223.3.186.343.747.772.616.515.267.386.9.4,1.356l.479-.3c-.044-.243.094-.535-.062-.747-.119-.268-.443-.292-.6-.509.187-.318-.236-.469-.324-.7l.025-.03.66.087a.982.982,0,0,1,.373.616c.516.087.64.672.821,1.045.106-.254.149-.529.255-.778.007-.2-.268-.2-.4-.3a1.109,1.109,0,0,0-.46-.809,6.793,6.793,0,0,0-1.7-.46l-.523.161c-.287.069-.592-.019-.809.18-.324.026-.348.38-.429.61Z" transform="translate(-41.115 -11.027)" fill="#fff" fill-rule="evenodd"/>
    <path id="Path_3185" data-name="Path 3185" d="M463.461,308.261l.118.057c.256-.119.51-.255.778-.355.416-.118.74.355,1.089.055.13-.092.243.045.341.119.151.273.5.254.761.328-.132-.354-.294-.839-.747-.9a4.412,4.412,0,0,1-.566-.181c-.479-.529-.791.436-1.314.2a1.454,1.454,0,0,0-.46.672Z" transform="translate(-41.281 -9.695)" fill="#fff" fill-rule="evenodd"/>
    <path id="Path_3186" data-name="Path 3186" d="M463.639,313.277c.2.168.4.454.716.417.386.18.224.691.435.959l.224-.2-.019-.013.032-.031.013.018a1.185,1.185,0,0,0-.132-.734c-.142-.1-.31.007-.448-.087a.62.62,0,0,0-.286-.422c-.1-.077-.23.024-.342.017l-.193.074Z" transform="translate(-41.341 -11.681)" fill="#fff" fill-rule="evenodd"/>
    <path id="Path_3187" data-name="Path 3187" d="M464.809,301.809a3.231,3.231,0,0,0,.921.791,1.481,1.481,0,0,0,.884.086,5.671,5.671,0,0,1-.735-.727c-.087-.125-.106-.281-.224-.392a1.732,1.732,0,0,0-.846.243Z" transform="translate(-41.733 -7.797)" fill="#fff" fill-rule="evenodd"/>
    <path id="Path_3188" data-name="Path 3188" d="M465.327,298.409c.285.354.727.211,1.132.223v-.044l-.622-.523a1.646,1.646,0,0,0-.509.343Z" transform="translate(-41.906 -6.625)" fill="#fff" fill-rule="evenodd"/>
    <path id="Path_3189" data-name="Path 3189" d="M448.1,289.207l.36,1.12c-.007-.636.287-1.165.225-1.811l.267-.4-.567.175a2.109,2.109,0,0,0-.286.915Z" transform="translate(-36.133 -3.291)" fill="#fff" fill-rule="evenodd"/>
    <path id="Path_3190" data-name="Path 3190" d="M448.462,286.325l.492-.286v-.729a2.666,2.666,0,0,0-.479.5l-.013.511Z" transform="translate(-36.255 -2.35)" fill="#fff" fill-rule="evenodd"/>
    <path id="Path_3191" data-name="Path 3191" d="M458.667,286.02a.689.689,0,0,1-.448.224,2.124,2.124,0,0,0,.181-1.686,2.527,2.527,0,0,0,.416-.149l-.013-.013.343-.3c.453-.311.279-.9.448-1.345-.224-.348-.293-.771-.616-1.064l.019-.013c-.255-.324-.716-.286-1.064-.448-.461-.156-.816.162-1.146.373-.143.025-.056.211-.211.2a6.266,6.266,0,0,0-.255.735,2.486,2.486,0,0,0-1.773.33,2.579,2.579,0,0,0-.884-.318c-.224-.045-.479.037-.64-.087-.237-.267-.287-.753-.692-.821-.144-.051-.174-.207-.174-.343-.268-.045-.5-.168-.765-.224-.4-.181-.715.106-1.014.3a3.008,3.008,0,0,0-.4.148,5.834,5.834,0,0,0-.579,1.09,2.3,2.3,0,0,0,.342.865,1.755,1.755,0,0,0,.97.884,3.675,3.675,0,0,0,0,1.972l-.01.007-.02.019a.324.324,0,0,1-.172-.019H450.5a2.723,2.723,0,0,0,.821,1.562c.162.056.124.249.192.373a.292.292,0,0,1,.032.224,4.888,4.888,0,0,0-2.615.654c-.2.1-.112.373-.13.566a4.8,4.8,0,0,1,1.792-.747,2.742,2.742,0,0,1,.865-.013l.031.537a7.866,7.866,0,0,0-2.183,1.245,2.43,2.43,0,0,0,.031.578l.567-.461a6.716,6.716,0,0,1,1.747-1,2.219,2.219,0,0,0,.567.535,4.194,4.194,0,0,1,1.225-.535c.23-.137.6-.013.747-.286l.105-.567c-.018-.013-.031-.038-.062-.032a.855.855,0,0,1-.461-.8.838.838,0,0,1-.33.086c-.1-.024-.192-.049-.237-.15-.005-.124-.069-.311.057-.4a2.42,2.42,0,0,1,1.438-.225c.379.051.927.031,1.059.479-.019.132-.007.275-.138.362s-.292-.007-.416-.063a1.034,1.034,0,0,1-.609.747l.043.36c.043.162.056.43.311.373a5.507,5.507,0,0,1,1.63.778,3.743,3.743,0,0,0,.435-.554,8.17,8.17,0,0,1,2.478,1.644l.03-.523a8.473,8.473,0,0,0-2.359-1.45,3.3,3.3,0,0,0,.076-.511,6.122,6.122,0,0,1,2.743.84l-.013-.448a6.09,6.09,0,0,0-2.824-.778.308.308,0,0,1-.044-.193,1.382,1.382,0,0,0,.971-1.045c.256-.293.622-.61.535-1.045.011-.037.024-.074.037-.112a.517.517,0,0,0,.026-.324Z" transform="translate(-36.367 -0.914)" fill="#fff" fill-rule="evenodd"/>
    <path id="Path_3192" data-name="Path 3192" d="M464.943,290.185l.509-.162.057-.286c.142-.418-.162-.728-.311-1.059l-.255,1.506Z" transform="translate(-41.778 -3.479)" fill="#fff" fill-rule="evenodd"/>
    <path id="Path_3193" data-name="Path 3193" d="M466.877,293.534c.243.268.479.7.909.567a2.676,2.676,0,0,0-.193-.492c-.112-.13-.15-.5-.373-.373-.169-.112-.211-.3-.318-.447a4.306,4.306,0,0,0-.025.746Z" transform="translate(-42.424 -4.856)" fill="#fff" fill-rule="evenodd"/>
    <path id="Path_3194" data-name="Path 3194" d="M467.01,296.591c.094.13.119.3.211.418a1.011,1.011,0,0,0,.624.074c.186-.044.3.161.477.043-.217-.136-.348-.386-.553-.566-.243-.192-.5-.024-.76.031Z" transform="translate(-42.47 -6.09)" fill="#fff" fill-rule="evenodd"/>
    <path id="Path_3195" data-name="Path 3195" d="M467.453,300.824a2.406,2.406,0,0,0,1.549.416c.062-.031.168-.025.18-.1-.355-.125-.727-.479-1.1-.554-.2-.317-.473.08-.735.056.006.074.08.13.106.181Z" transform="translate(-42.583 -7.428)" fill="#fff" fill-rule="evenodd"/>
    <path id="Path_3196" data-name="Path 3196" d="M469.45,309.268l.094.2c.094.648.5,1.245.279,1.954.188.132.243.349.362.523h.031a4.178,4.178,0,0,0-.031-1.642c.056-.492-.442-.779-.735-1.033Z" transform="translate(-43.288 -10.378)" fill="#fff" fill-rule="evenodd"/>
    <path id="Path_3197" data-name="Path 3197" d="M469.612,299.535a1.391,1.391,0,0,0,1.213.149,3.841,3.841,0,0,1-.69-.448l-.523.3Z" transform="translate(-43.342 -7.017)" fill="#fff" fill-rule="evenodd"/>
    <path id="Path_3198" data-name="Path 3198" d="M471.919,302.284a.684.684,0,0,0,.33.611,1.448,1.448,0,0,0,.192-.461,1.148,1.148,0,0,0-.447-.692,1.554,1.554,0,0,0-.075.541Z" transform="translate(-44.114 -7.857)" fill="#fff" fill-rule="evenodd"/>
    <path id="Path_3199" data-name="Path 3199" d="M471.948,306.447c-.045.293.279.33.416.492.113.136-.075.23-.075.36a1.684,1.684,0,0,1,.375,1.058,10.556,10.556,0,0,0,.285-1.132c-.025-.275-.46-.217-.392-.522a1.353,1.353,0,0,0-.106-.9c-.024-.043-.081-.13-.13-.105-.112.254-.392.435-.373.746Z" transform="translate(-44.123 -9.181)" fill="#fff" fill-rule="evenodd"/>
    <path id="Path_3200" data-name="Path 3200" d="M473.232,304.166l.324.628c.142-.019.236-.156.348-.255.087-.261-.143-.429-.211-.642-.056-.149,0-.348-.106-.477-.08-.051-.173-.132-.267-.107l-.087.853Z" transform="translate(-44.555 -8.381)" fill="#fff" fill-rule="evenodd"/>
    <path id="Path_3201" data-name="Path 3201" d="M473.858,302.108a1.812,1.812,0,0,1,.685.654c.218.635.566,1.207.822,1.823.093.43.168.813.285,1.235.045.112.019.33.194.311.049-.473.143-.928.15-1.419a1.847,1.847,0,0,0-.555-.417v-.044c.025-.105.113-.23.243-.211.055-.063.224-.124.149-.237-.324-.324-.305-.88-.821-.981a.473.473,0,0,1-.243-.435,1.477,1.477,0,0,0-.909-.281Z" transform="translate(-44.765 -7.979)" fill="#fff" fill-rule="evenodd"/>
    <path id="Path_3202" data-name="Path 3202" d="M474.3,306.776c.316.293.205.715.18,1.108-.049.237.249.1.342.224a1.357,1.357,0,0,1,.013,1.015,6.054,6.054,0,0,0,.491-.761c-.005-.105.132-.156.126-.286.056-.18-.156-.1-.243-.118s-.156-.068-.13-.168a1.524,1.524,0,0,0-.051-.995c-.074-.256.032-.6-.087-.823-.2.275-.791.336-.64.8Z" transform="translate(-44.903 -9.274)" fill="#fff" fill-rule="evenodd"/>
    <path id="Path_3203" data-name="Path 3203" d="M475.178,300.532c.554.56.959,1.123,1.556,1.664a7.031,7.031,0,0,0-.031-.7,1.628,1.628,0,0,0-.388-.417c-.441-.043-.671-.638-1.138-.544Z" transform="translate(-45.207 -7.447)" fill="#fff" fill-rule="evenodd"/>
    <path id="Path_3204" data-name="Path 3204" d="M477.357,304.948a.874.874,0,0,0,.064.162,8.1,8.1,0,0,1,.641,1.238c-.051-.461.261-1.032-.15-1.387-.056-.15-.241-.1-.36-.088l-.194.074Z" transform="translate(-45.937 -8.9)" fill="#fff" fill-rule="evenodd"/>
    <path id="Path_3205" data-name="Path 3205" d="M479.6,311.463c.174.081.4-.062.567-.162a.514.514,0,0,1,.4.132c.049.1,0,.192.019.286a3.775,3.775,0,0,1,1.069.46l.106-.106a.732.732,0,0,0-.386-.61c-.13-.075-.324-.031-.416-.15a.651.651,0,0,0,.055-.36.9.9,0,0,1-.5-.162c-.106-.032-.2-.119-.287,0-.312.211-.33.522-.629.672Z" transform="translate(-46.69 -10.868)" fill="#fff" fill-rule="evenodd"/>
    <path id="Path_3206" data-name="Path 3206" d="M480.236,299.534a1.13,1.13,0,0,0,.448-.2c.418-.38,1.02-.124,1.506-.13a3.344,3.344,0,0,0-.343-.479,1.427,1.427,0,0,0-.535-.149c-.424-.249-.709.168-1.033.373a.692.692,0,0,0-.043.586Z" transform="translate(-46.886 -6.769)" fill="#fff" fill-rule="evenodd"/>
    <path id="Path_3207" data-name="Path 3207" d="M480.253,301.4c0-.019,0-.038.019-.043.057.049-.006.168.087.192a3.635,3.635,0,0,0,.461-.3c.417,0,.666-.4,1.076-.4a6.21,6.21,0,0,1,1.96.6,1.342,1.342,0,0,0-.746-.951.511.511,0,0,0-.5.149c-.416.262-.2-.38-.491-.392a3.091,3.091,0,0,1-1.2.211c-.249.094-.424.324-.7.3a1.6,1.6,0,0,0,.03.641Z" transform="translate(-46.892 -7.357)" fill="#fff" fill-rule="evenodd"/>
    <path id="Path_3208" data-name="Path 3208" d="M480.662,303.572c.13.138.348.112.535.138l.541-.212c.006-.1-.162-.124-.124-.237.149-.168.354-.049.541-.118.26-.037.529-.3.79-.106-.007.032.011.075-.013.106-.081.193.056.311.205.386.3.056.59.336.895.211a5.484,5.484,0,0,0-.161-.734c-.255-.044-.436-.255-.672-.342a.507.507,0,0,1-.373.162c-.479-.113-1.053-.412-1.537-.106-.175.212-.486.15-.723.243a2.746,2.746,0,0,0,.094.61Z" transform="translate(-47.013 -8.139)" fill="#fff" fill-rule="evenodd"/>
    <path id="Path_3209" data-name="Path 3209" d="M480.986,309.421c-.037.106-.144.279.051.33.4.012.908-.193,1.219.118.106.081.056.249.049.356l.523.435a4.447,4.447,0,0,0,.15-.778.871.871,0,0,0-.317-.522c-.343,0-.541-.4-.91-.352-.192-.043-.36.128-.554.128a3.054,3.054,0,0,0-.211.286Z" transform="translate(-47.132 -10.288)" fill="#fff" fill-rule="evenodd"/>
    <path id="Path_3210" data-name="Path 3210" d="M481.228,305.052c.081.168.175.442.33.461a1.772,1.772,0,0,1,1.313-.086c.136.024.136.18.106.279.211.124.466.224.69.36l-.062-.373c-.013-.4-.523-.442-.554-.84a2.458,2.458,0,0,0-1.326-.074c-.143.13-.349.113-.522.149-.013.049.017.081.024.124Z" transform="translate(-47.225 -8.854)" fill="#fff" fill-rule="evenodd"/>
    <path id="Path_3211" data-name="Path 3211" d="M481.4,307.747c.243-.069.4-.335.661-.361a1.219,1.219,0,0,1,1,.511c.149.1.118.354.311.354a6.158,6.158,0,0,1,.03-.9c-.26-.435-.908-.1-1.151-.61l-.46.032c-.33.081-.243.467-.285.729-.038.08-.113.143-.107.241Z" transform="translate(-47.292 -9.533)" fill="#fff" fill-rule="evenodd"/>
    <path id="Path_3212" data-name="Path 3212" d="M484.837,312.083c.192.386.616.678.659,1.119a1.981,1.981,0,0,0,.236-.386c-.006-.124-.149-.124-.2-.223-.057-.162.03-.3.055-.448a1.22,1.22,0,0,0-.492-.585l-.254.523Z" transform="translate(-48.443 -11.146)" fill="#fff" fill-rule="evenodd"/>
    <path id="Path_3213" data-name="Path 3213" d="M485.988,310.538l.448.611a1.608,1.608,0,0,0,.118-1.12c-.043-.069-.124-.181-.235-.13-.168.174-.194.442-.33.64Z" transform="translate(-48.829 -10.585)" fill="#fff" fill-rule="evenodd"/>
    <path id="Path_3214" data-name="Path 3214" d="M483.245,285.041a1.3,1.3,0,0,0,.511.168.651.651,0,0,1,.461-.074c.23.149.509-.031.778-.019a2.885,2.885,0,0,0-.778-.491c-.35.074-.629.324-.971.417Z" transform="translate(-47.91 -2.121)" fill="#fff" fill-rule="evenodd"/>
    <path id="Path_3215" data-name="Path 3215" d="M486.9,286.049c.33.031.567.324.791.567a1.113,1.113,0,0,1,.659.448l-.105-.329a2.117,2.117,0,0,0-.492-.847,2.426,2.426,0,0,0-.852.162Z" transform="translate(-49.136 -2.544)" fill="#fff" fill-rule="evenodd"/>
    <path id="Path_3216" data-name="Path 3216" d="M451.545,282.025l.182.019c.484.243,1.268.366,1.313,1.07a3.811,3.811,0,0,0-1.357.852c-.3-.3-.9-.137-1-.672.094-.5.273-1.14.865-1.27Z" transform="translate(-36.999 -1.25)" fill="#d3dcde" fill-rule="evenodd"/>
    <path id="Path_3217" data-name="Path 3217" d="M452.636,286.762c.567-.051,1.114.03,1.7-.019a.743.743,0,0,1,.36.328c-.019.673-.224,1.314-.255,2a.917.917,0,0,0-.567.6,4.905,4.905,0,0,0-.66.311.66.66,0,0,1,.094-.7c.243-.342.872-.262.822-.8.162-.261.007-.6.011-.87-.062-.206-.124.068-.223.062a.8.8,0,0,1-.578-.044c-.132-.136-.293-.249-.33-.435a1.023,1.023,0,0,1-.467-.4l.094-.024Z" transform="translate(-37.622 -2.831)" fill="#d3dcde" fill-rule="evenodd"/>
    <path id="Path_3218" data-name="Path 3218" d="M453.7,292.864c.267.038.547-.081.777.051a.441.441,0,0,1-.286.15l-.418.192c-.155-.037-.068-.286-.074-.392Z" transform="translate(-38.005 -4.877)" fill="#d3dcde" fill-rule="evenodd"/>
    <path id="Path_3219" data-name="Path 3219" d="M455.08,284.955c.267-.087.554-.267.84-.18a4.068,4.068,0,0,0-.523.721l-.852-.019a1.214,1.214,0,0,1,.535-.523Z" transform="translate(-38.294 -2.163)" fill="#d3dcde" fill-rule="evenodd"/>
    <path id="Path_3220" data-name="Path 3220" d="M458.856,284.739c.354-.062.335.4.659.416.057.074.138.143.106.255a5.322,5.322,0,0,1-.672.087c-.281-.156-.1-.641-.541-.609-.025-.038-.074-.113-.013-.137a1.035,1.035,0,0,1,.461-.013Z" transform="translate(-39.574 -2.153)" fill="#d3dcde" fill-rule="evenodd"/>
    <path id="Path_3221" data-name="Path 3221" d="M458.728,287.115a.85.85,0,0,1,.616-.279l1.611.03c.068.063-.062.119-.062.193-.1.094-.243.12-.33.205-.212.006-.193.255-.342.361-.23.231-.566.124-.835.088a.743.743,0,0,1-.243-.268l-.075.074c.094.349.07.735.138,1.089l.386.255c.007.572.678.416.971.733a1.723,1.723,0,0,1-.354.554,2.119,2.119,0,0,0-.791-.479c-.026-.335-.392-.535-.6-.7-.057-.61-.069-1.233-.168-1.824l.074-.031Z" transform="translate(-39.67 -2.862)" fill="#d3dcde" fill-rule="evenodd"/>
    <path id="Path_3222" data-name="Path 3222" d="M459.6,293.03h.747l-.094.392-.747-.317c-.018-.062.051-.08.094-.074Z" transform="translate(-39.954 -4.937)" fill="#d3dcde" fill-rule="evenodd"/>
    <path id="Path_3223" data-name="Path 3223" d="M461.425,282.341l.554-.175a5.555,5.555,0,0,1,.908.548,2.191,2.191,0,0,1,.087,1.468c-.168.186-.535,0-.672.3h-.025a2.726,2.726,0,0,0-1.332-1.375,1.15,1.15,0,0,1,.479-.765Z" transform="translate(-40.438 -1.297)" fill="#d3dcde" fill-rule="evenodd"/>
  </g>
</svg>
