<svg xmlns="http://www.w3.org/2000/svg" width="117" height="36.653" viewBox="0 0 117 36.653">
  <g id="kompania" transform="translate(-99.484 -142.787)">
    <g id="Group_1321" data-name="Group 1321" transform="translate(99.484 142.787)">
      <path id="Path_3224" data-name="Path 3224" d="M126.463,166.486l0-.006.025.006a9.735,9.735,0,0,0,.512-5.847,10.118,10.118,0,0,1-6.426-3.15.853.853,0,0,0-.542-.292c-.475-.049-.78.6-.742,1.373a8.335,8.335,0,0,0,1.049,3.965c1.165,1.929,3.226,3.248,6.122,3.95m-9.627,4.009c-.007.564.534.987,1.1,1.546a7.669,7.669,0,0,1,1.712,2.6c.187.5.266.742.514.713a.787.787,0,0,0,.333-.116,9.437,9.437,0,0,0,2.613-2.911,8.064,8.064,0,0,0,1.338-4.211,11.263,11.263,0,0,1-3.98-2.349l-.009.016-.018-.017a13.558,13.558,0,0,1-2.826,3.768c-.432.42-.769.645-.771.963m-3.787,1.4c-1.267,1.849-2.642,3.552-1.86,5.5a3.331,3.331,0,0,0,2.956,2.034v.007a.012.012,0,0,1,.015,0,.011.011,0,0,1,.014,0v0a.013.013,0,0,1,.014,0,.012.012,0,0,1,.014,0v-.007a3.339,3.339,0,0,0,2.964-2.024c.793-1.945-.578-3.654-1.837-5.506a3.894,3.894,0,0,1-.9-1.9,2.49,2.49,0,0,1,1.056-1.74A12.041,12.041,0,0,0,118,165.48a2.832,2.832,0,0,0-.043-3.442,2.181,2.181,0,0,0-1.56-.767,2.229,2.229,0,0,0-.995.176,5.5,5.5,0,0,1-1.178.5,4.856,4.856,0,0,1-1.2-.5,2.235,2.235,0,0,0-.845-.182,2.167,2.167,0,0,0-1.711.757,2.837,2.837,0,0,0-.056,3.448,11.878,11.878,0,0,0,2.5,2.792,2.486,2.486,0,0,1,1.044,1.75,3.86,3.86,0,0,1-.9,1.887m-5.134-6.132a11.236,11.236,0,0,1-3.98,2.348,8.066,8.066,0,0,0,1.338,4.211,9.415,9.415,0,0,0,2.613,2.911.8.8,0,0,0,.328.116c.251.032.33-.212.519-.711a7.643,7.643,0,0,1,1.712-2.6c.561-.56,1.1-.982,1.095-1.547,0-.317-.339-.542-.771-.962a13.564,13.564,0,0,1-2.826-3.768l-.018.016-.009-.017m-6.5-5.126a9.733,9.733,0,0,0,.512,5.847l.024-.006,0,.007c2.9-.7,4.956-2.022,6.122-3.95a8.336,8.336,0,0,0,1.049-3.965c.038-.772-.265-1.417-.736-1.374a.847.847,0,0,0-.548.292,10.118,10.118,0,0,1-6.426,3.151m27.092-1.939a13.864,13.864,0,0,0-11.445-10.947c-.087-.015-.181-.024-.27-.038h.022a1,1,0,0,1-.926-1.242s.464-2.49.543-2.982c.1-.63-1.132-1.055-1.513-.3-.644,1.271-1.47,2.856-1.893,3.594a1.639,1.639,0,0,1-.87.834,14.653,14.653,0,0,0-12.671,10.9c.042.007.084.01.126.015v.006c4.8.775,8.186-4.729,9.736-4.641,1.1.356,1.647,5.168,4.628,5.821l.085.01.039.01a2.453,2.453,0,0,0,.327.025c3.11-.241,3.64-5.662,4.787-5.808a.637.637,0,0,1,.131,0c1.384.322,3.729,4.192,7.348,4.731a5.681,5.681,0,0,0,1.817.02" transform="translate(-99.484 -142.787)" fill="#d3dcde"/>
      <path id="Path_3225" data-name="Path 3225" d="M239.69,193.414a4.363,4.363,0,1,1,4.478-4.355,4.2,4.2,0,0,1-4.478,4.355m0-7.035a2.642,2.642,0,1,0,2.471,2.63,2.434,2.434,0,0,0-2.471-2.63" transform="translate(-195.72 -172.498)" fill="#d3dcde"/>
    </g>
    <path id="Path_3226" data-name="Path 3226" d="M260.331,222.469l-2.447,8.441H255.89l-1.6-5.786-1.6,5.786H250.69l-2.447-8.441h2.068l1.469,5.688,1.517-5.688h1.981l1.529,5.688,1.456-5.688Z" transform="translate(-105.475 -56.498)" fill="#d3dcde"/>
    <g id="Group_1322" data-name="Group 1322" transform="translate(155.278 165.837)">
      <path id="Path_3227" data-name="Path 3227" d="M295.716,230.728a4.363,4.363,0,1,1,4.478-4.355,4.205,4.205,0,0,1-4.478,4.355m0-7.034a2.641,2.641,0,1,0,2.471,2.63,2.434,2.434,0,0,0-2.471-2.63" transform="translate(-291.238 -222.005)" fill="#d3dcde"/>
    </g>
    <path id="Path_3228" data-name="Path 3228" d="M335.371,222.469l-2.447,8.441H330.93l-1.6-5.786-1.6,5.786H325.73l-2.447-8.441h2.068l1.468,5.688,1.517-5.688h1.982l1.529,5.688,1.456-5.688Z" transform="translate(-158.681 -56.498)" fill="#d3dcde"/>
    <g id="Group_1323" data-name="Group 1323" transform="translate(193.395 165.873)">
      <path id="Path_3229" data-name="Path 3229" d="M427.525,230.119a3.591,3.591,0,0,1-2.288.7,4.577,4.577,0,0,1-3-1.272l.979-1.443a3.479,3.479,0,0,0,2.2,1.065c.636,0,1.125-.306,1.125-.869s-.624-.8-.991-.93-1-.355-1.285-.477a3.308,3.308,0,0,1-1-.612,2.085,2.085,0,0,1-.66-1.627,2.378,2.378,0,0,1,.881-1.848,3.451,3.451,0,0,1,2.227-.673,4.162,4.162,0,0,1,2.679,1.04l-.845,1.382a2.914,2.914,0,0,0-1.884-.857c-.636,0-1.1.245-1.1.759s.477.71.856.856.991.367,1.26.478a3.372,3.372,0,0,1,1.175.685,2.207,2.207,0,0,1,.661,1.627,2.554,2.554,0,0,1-.991,2.018" transform="translate(-422.24 -222.13)" fill="#d3dcde"/>
    </g>
    <path id="Path_3230" data-name="Path 3230" d="M337.9,185.16h-2.515l.263.823-2.919,7.616h2.056l.6-1.7H338.4l.6,1.7h2.153Zm-2.063,5.2,1.052-2.865,1.052,2.865Z" transform="translate(-165.38 -30.044)" fill="#d3dcde"/>
    <path id="Path_3231" data-name="Path 3231" d="M208.985,185.155l.3,1.7,0,6.741h1.969v-2.776l.673-.747,2.116,3.523h2.373l-3.181-5.077,2.973-3.364h-2.349l-2.606,3.082v-3.082Z" transform="translate(-77.64 -30.039)" fill="#d3dcde"/>
    <path id="Path_3232" data-name="Path 3232" d="M279.779,185.152H277.27l-1.737,5.554h-.024l-1.758-5.539h-2.842l.2,1.7-.5,6.729h1.945l.306-5.75h.037l1.823,5.75h1.566l1.811-5.75h.024l.331,5.75H280.4Z" transform="translate(-121.338 -30.038)" fill="#d3dcde"/>
    <path id="Path_3233" data-name="Path 3233" d="M370.146,185.152l-.008,5.609-3.568-5.594h-2.361l.236,1.586v6.841h1.933l.017-5.7,3.653,5.7h2.031v-8.441Z" transform="translate(-187.699 -30.038)" fill="#d3dcde"/>
    <path id="Path_3234" data-name="Path 3234" d="M398.934,185.2l0,1.63v6.8h1.982V185.2Z" transform="translate(-212.32 -30.074)" fill="#d3dcde"/>
    <path id="Path_3235" data-name="Path 3235" d="M237.323,222.449l0,1.59V230.9h1.982v-8.441Z" transform="translate(-97.733 -56.483)" fill="#d3dcde"/>
    <path id="Path_3236" data-name="Path 3236" d="M414.629,185.16h-2.515l.263.823-2.919,7.616h2.056l.6-1.7h3.009l.6,1.7h2.154Zm-2.063,5.2,1.052-2.865,1.052,2.865Z" transform="translate(-219.783 -30.044)" fill="#d3dcde"/>
    <path id="Path_3237" data-name="Path 3237" d="M369.293,222.411h-2.515l.264.823-2.919,7.616h2.055l.6-1.7h3.009l.6,1.7h2.154Zm-2.063,5.2,1.052-2.865,1.052,2.865Z" transform="translate(-187.638 -56.456)" fill="#d3dcde"/>
    <path id="Path_3238" data-name="Path 3238" d="M448.419,222.573l.3,1.7,0,6.741h1.97v-2.777l.673-.746,2.117,3.523h2.373l-3.181-5.077,2.973-3.364H453.3l-2.606,3.082v-3.082Z" transform="translate(-247.407 -56.57)" fill="#d3dcde"/>
    <path id="Path_3239" data-name="Path 3239" d="M477.836,222.578H475.32l.263.823-2.919,7.616h2.056l.6-1.7h3.01l.6,1.7h2.153Zm-2.063,5.2,1.052-2.865,1.052,2.865Z" transform="translate(-264.597 -56.575)" fill="#d3dcde"/>
    <g id="Group_1324" data-name="Group 1324" transform="translate(131.331 155.084)">
      <path id="Path_3240" data-name="Path 3240" d="M409.772,242.113l-2.141-3.487a2.411,2.411,0,0,0,.583-.276c-.894-.042-1.884-.085-2.371.642l1.715,3.121Z" transform="translate(-348.55 -222.827)" fill="#d3dcde"/>
      <path id="Path_3241" data-name="Path 3241" d="M398.7,226.687H397.8l0-2.76h.862a1.416,1.416,0,0,1,1.593,1.373c0,.6-.191,1.386-1.556,1.386m.105-4.288-3.22,0,.246,1.659v6.78h1.982l0-2.624h1c.869,0,3.452-.044,3.452-2.915,0-1.225-.867-2.9-3.456-2.9" transform="translate(-341.274 -211.531)" fill="#d3dcde"/>
      <path id="Path_3242" data-name="Path 3242" d="M313.743,189.707h-.773l-.006-3.084h.812c1.454,0,1.812.968,1.812,1.521,0,1.07-.652,1.564-1.845,1.564m.189-4.658-2.936,0v8.439h1.982l0-2.237h.756c.915,0,3.907,0,3.907-3.11,0-1.149-.78-3.094-3.7-3.094" transform="translate(-281.299 -185.049)" fill="#d3dcde"/>
      <path id="Path_3243" data-name="Path 3243" d="M212.007,227.207h-.847l-.006-3.084h.812c1.454,0,1.812.968,1.812,1.521,0,1.07-.578,1.564-1.771,1.564m.115-4.658-3.184,0,.246,1.659v6.78h1.982l0-2.237h.965c.915,0,3.7,0,3.7-3.11,0-1.149-.78-3.094-3.7-3.094" transform="translate(-208.938 -211.638)" fill="#d3dcde"/>
    </g>
  </g>
</svg>
