<svg xmlns="http://www.w3.org/2000/svg" width="119.802" height="28.838" viewBox="0 0 119.802 28.838">
  <g id="play" transform="translate(-841.673 -13903)">
    <path id="Path_3075" data-name="Path 3075" d="M188.779,49.792h-4.731V69H203.42V64.784H188.779Z" transform="translate(692.465 13862.791)" fill="#d3dcde"/>
    <path id="Path_3076" data-name="Path 3076" d="M70.285,49.555H51.262V68.838h4.79V64.852h1.557c3.881,0,7.765-.031,11.648.019a2.711,2.711,0,0,0,2.24-1A10.171,10.171,0,0,0,70.285,49.555ZM68.731,60.431H56.149v-6.4H68.677A6.7,6.7,0,0,1,68.731,60.431Z" transform="translate(799.839 13862.983)" fill="#d3dcde"/>
    <path id="Path_3077" data-name="Path 3077" d="M303.026,49.549c-4.042,6.381-8.072,12.745-12.223,19.3h5.39q1.041-1.514,2.12-3.083h14.931c.655,1.062,1.29,2.089,1.875,3.038H320.8L308.667,49.549Zm-2.154,11.709c1.673-2.689,3.271-5.26,4.986-8.016,1.653,2.73,3.206,5.3,4.848,8.016Z" transform="translate(606.141 13862.988)" fill="#d3dcde"/>
    <path id="Path_3078" data-name="Path 3078" d="M438.875,60.743Q434.349,55,430.058,49.561h-6.323c4.136,5.16,8.075,10.08,12.052,15.043-1.026,1.386-2.008,2.718-3.131,4.233h5.782c4.986-6.361,9.966-12.716,15.116-19.289h-6.226C444.509,53.283,441.707,56.99,438.875,60.743Z" transform="translate(498.649 13862.988)" fill="#d3dcde"/>
    <path id="Path_3080" data-name="Path 3080" d="M121.8-.283H2v.054H121.8Z" transform="translate(839.673 13903.283)" fill="#d3dcde"/>
  </g>
</svg>
