<svg xmlns="http://www.w3.org/2000/svg" width="166.149" height="29.074" viewBox="0 0 166.149 29.074">
  <path id="santander" d="M254,99.94a9.053,9.053,0,0,1-.247,2.687,7.545,7.545,0,0,0-2.441-.244c-.734,0-1.468.244-2.2.244v12.216h-3.174V100.672a17.545,17.545,0,0,1,5.376-.977A9.149,9.149,0,0,1,254,99.94Zm-21.259,6.107h7.331a3.464,3.464,0,0,0-3.669-3.664Q233.115,102.383,232.744,106.047ZM243,108.735H232.991c.239,2.688,1.707,3.909,4.643,3.909a13.156,13.156,0,0,0,5.129-1.221,12.077,12.077,0,0,0-.487,2.932,10.611,10.611,0,0,1-4.642.977c-5.376,0-8.065-2.932-8.065-7.818,0-4.4,2.193-7.819,7.083-7.819,4.643,0,6.6,2.932,6.6,6.6C243.249,107.268,243,108,243,108.735Zm-19.057,2.932v-9.04c-.734,0-1.707-.244-2.441-.244-3.175,0-4.643,1.954-4.643,5.374,0,2.932,1.221,4.887,3.909,4.887A6.911,6.911,0,0,0,223.945,111.667Zm3.174-16.858v20.035h-2.927l-.247-1.71a4.452,4.452,0,0,1-4.148,2.2c-3.669,0-6.11-2.932-6.11-7.574,0-5.131,2.688-8.063,7.817-8.063.982,0,1.707.245,2.441.245V95.3A7.219,7.219,0,0,1,227.119,94.808ZM211,105.314v9.529h-3.175V105.8c0-2.2-.734-3.42-3.909-3.42-.734,0-1.468.244-2.449.244v12.216h-3.174V100.672a26.736,26.736,0,0,1,5.863-.977C209.291,99.694,211,101.894,211,105.314Zm-19.3,6.353v-9.04c-.734,0-1.468-.244-2.193-.244-3.422,0-4.89,2.2-4.89,5.374,0,2.932,1.22,4.887,3.909,4.887A4.506,4.506,0,0,0,191.694,111.667Zm3.175-10.995v14.171h-2.928l-.247-1.71a4.322,4.322,0,0,1-3.909,2.2c-3.909,0-6.349-2.932-6.349-7.574,0-5.131,2.688-8.063,8.065-8.063A13.119,13.119,0,0,1,194.869,100.672Zm-17.1,11.972a8.783,8.783,0,0,0,2.688-.488c-.239.733-.239,1.71-.486,2.687a8.763,8.763,0,0,1-2.689.488c-2.935,0-4.89-1.466-4.89-4.886V95.3a12.291,12.291,0,0,1,2.936-.489v5.375h5.129c0,.977-.239,1.954-.239,2.687h-4.89v7.086C175.325,111.911,176.306,112.644,177.766,112.644Zm-8.55-7.33v9.529H166.04V105.8c0-2.2-.733-3.42-3.909-3.42-.734,0-1.71.244-2.688.244v12.216h-3.176V100.672a32.329,32.329,0,0,1,5.864-.977C167.505,99.694,169.216,101.894,169.216,105.314Zm-19.546,6.353v-9.04c-.489,0-1.222-.244-2.2-.244-3.176,0-4.887,2.2-4.887,5.374,0,2.932,1.222,4.887,4.154,4.887A3.9,3.9,0,0,0,149.67,111.667Zm3.176-10.995v14.171h-2.932v-1.71a5.067,5.067,0,0,1-4.153,2.2c-3.665,0-6.353-2.932-6.353-7.574,0-5.131,2.689-8.063,8.063-8.063A11.769,11.769,0,0,1,152.846,100.672Zm-28.587,13.683a10.485,10.485,0,0,1,.489-2.932,13.927,13.927,0,0,0,5.375.977c2.687,0,4.154-.733,4.154-2.443s-1.221-2.443-3.91-3.665L128.9,105.8c-2.689-1.222-4.4-2.688-4.4-5.863s2.2-5.376,6.842-5.376a16.229,16.229,0,0,1,5.131.734,9.11,9.11,0,0,1-.489,2.932,16.583,16.583,0,0,0-4.641-.733c-2.443,0-3.665.977-3.665,2.443s.977,2.443,3.176,3.176l1.467.733c3.664,1.466,5.131,3.176,5.131,5.864,0,3.42-2.443,5.619-7.33,5.619A13.353,13.353,0,0,1,124.259,114.354Zm-14.416-14.171a12.06,12.06,0,0,0-.977-3.176L103.979,88.7a16.907,16.907,0,0,1-.733-1.954v.488a6.392,6.392,0,0,0,0,6.6l3.665,6.6a6.4,6.4,0,0,1,0,6.6l-.245.489a3.944,3.944,0,0,0-.733-2.2l-3.42-6.107-2.2-3.665a3.938,3.938,0,0,1-.733-2.2l-.245.488a6.39,6.39,0,0,0,0,6.6h0l3.909,6.6a7.782,7.782,0,0,1,0,6.6l-.245.488a16.564,16.564,0,0,0-.733-1.954l-4.887-8.308a6.9,6.9,0,0,1-.977-3.665c-5.131,1.221-8.551,4.154-8.551,7.33,0,4.642,6.842,8.307,15.393,8.307,8.308,0,15.149-3.665,15.149-8.307C118.4,104.337,114.974,101.4,109.842,100.183Z" transform="translate(-87.853 -86.746)" fill="#d3dcde"/>
</svg>
