<svg xmlns="http://www.w3.org/2000/svg" width="168" height="34.146"><g fill="#d3dcde" fill-rule="evenodd"><path data-name="Path 3055" d="M19.256 26.019l.4-.042.42-.063.987-.126 1.092-.231 1.113-.252 1.092-.315 1.134-.336 1.134-.4.861-.273.357-.168.336-.21.294-.273.273-.294.21-.357 5.439-11.424 8.715 21.714.105.252.147.231.189.21.21.168.252.147.252.084.273.063h.273l7.413.021L38.661 5.06h-8.022L19.257 26.018z"/><path data-name="Path 3056" d="M57.262 6.803v-5.25L44.015 8.782l-.126.063-.273.105-.294.084h-.273l-.231-.042-.252-.084-.21-.084-.084-.042.1.336.21.672.273.693.357.693.42.63.441.525.42.378.378.21.357.084h.357l.336-.042.252-.084.21-.084.084-.063 10.794-5.922z"/><path data-name="Path 3057" d="M83.832 24.822h-.147l-.126.021-.126.021-.084.042-.105.063-.084.063-.084.084-.063.1-1.008 1.7h4.557v3l-.357.1-.315.084-.294.063-.315.063-.294.063-.4.042-.315.042-.273.021h-.9l-.315-.042-.441-.042-.273-.042-.273-.063-.273-.063-.273-.084-.252-.105-.315-.168-.252-.147-.21-.168-.21-.168-.21-.189-.189-.189-.189-.21-.147-.231-.189-.315-.126-.252-.105-.273-.084-.273-.063-.273-.063-.294-.042-.273-.021-.294v-.84l.042-.273.063-.252.084-.273.084-.252.105-.252.126-.252.105-.147.168-.231.189-.21.189-.21.21-.189.21-.168.294-.189.252-.147.273-.147.294-.1.273-.105.4-.105.315-.063.315-.042.294-.042.315-.021.315-.021.315-.021h.294l.315.021.315.021.315.042.315.042.315.042.315.063.315.042.315.063.315.084.315.063.315.084.294.084.315.084.147.042v-2.184l-.357-.1-.294-.1-.315-.084-.315-.063-.294-.063-.315-.063-.315-.063-.567-.084-.315-.042-.315-.042-.315-.021-.315-.021-.294-.021h-1.6l-.315.021-.315.021-.315.042-.294.042-.294.042-.315.084-.294.084-.4.105-.294.084-.273.1-.294.126-.252.126-.273.126-.252.168-.252.147-.294.21-.231.189-.231.189-.21.21-.21.231-.21.21-.168.231-.168.252-.168.252-.147.252-.189.357-.105.252-.105.294-.1.273-.063.294-.084.294-.042.294-.042.294-.021.378v.588l.042.294.042.315.042.294.084.294.063.294.105.273.1.273.147.315.126.273.147.252.147.252.168.252.189.231.168.231.21.21.252.231.252.189.252.168.273.168.273.147.273.147.273.147.294.1.273.126.294.105.336.1.315.063.315.063.315.042.315.042.315.042.336.021.294.042.336.021h.315l.546.021.315-.021h.294l.315-.021.336-.021.315-.021.315-.042.315-.042.315-.042.336-.021.294-.063.315-.042.315-.063.315-.063.315-.042.315-.084.315-.084.315-.063.315-.084.273-.084v-6.7H83.83z"/><path data-name="Path 3058" d="M96.347 4.829l.231.021.273.063.21.063.168.063.189.1.147.105.147.126.147.147.147.189.084.189.084.168.042.189.042.21v.294l-.021.189-.042.168-.063.189-.105.168-.126.168-.126.168-.21.189-.189.126-.21.1-.21.063-.21.084-.21.042-.231.021h-2.079l-.105.021-.126.042-.084.021-.105.063-.084.084-.063.084-.042.042-.945 1.722 2.982-.021 3.024 4.515h3.57l-3.465-5.271.294-.084.252-.1.252-.126.336-.168.231-.147.21-.147.21-.168.189-.189.168-.21.21-.273.147-.21.126-.231.084-.231.084-.21.063-.231.021-.273.021-.252v-.189l-.021-.252-.042-.252-.063-.252-.084-.252-.084-.252-.126-.252-.147-.231-.168-.231-.168-.21-.189-.189-.189-.189-.21-.168-.231-.168-.231-.126-.252-.126-.252-.105-.252-.084-.252-.084-.273-.063-.273-.021-.273-.021-.273-.021-.231.021h-8.862v12.243h3.192V4.829l4.431-.021.189.021z"/><path data-name="Path 3059" d="M111.509 2.016L113.252 0h-2.982l-.987 2.016h2.226z"/><path data-name="Path 3060" d="M144.269 15.057h3.213V4.977h3.591l.1-.021.126-.021.084-.021.084-.042.063-.042.042-.063.063-.063.021-.063.042-.084.021-.042.021-.021.588-1.659h-11.55l-.1.042-.084.021-.084.063-.084.063-.063.063-.063.084-.042.084-.021.042-.819 1.68h4.851v10.08z"/><path data-name="Path 3061" d="M102.248 26.691l.252-.084.252-.084.231-.126.315-.168.21-.126.189-.168.189-.168.168-.189.147-.21.147-.21.126-.231.084-.252.084-.252.063-.252.042-.273.021-.273v-.231l-.021-.273-.042-.252-.042-.252-.084-.252-.084-.231-.126-.252-.1-.168-.147-.231-.168-.21-.189-.189-.189-.189-.315-.231-.252-.147-.252-.126-.273-.126-.441-.147-.294-.084-.315-.063-.294-.063-.294-.042-.315-.042-.315-.021-.315-.021h-7.833v12.264h3.213V22.012h4.284l.147.021.21.021.21.042.189.063.252.126.168.084.126.105.126.105.126.189.084.168.084.189.063.189.042.168.021.168v.105l-.021.168-.021.189-.063.147-.084.189-.105.189-.126.147-.21.231-.189.105-.189.126-.189.084-.231.084-.21.042-.21.042h-2.06l-.084.021-.084.042-.1.042-.084.042-.084.063-.084.063-.063.063-.063.063-.042.084-.84 1.575h2.793l3.213 4.494h3.486l-3.507-5.271.294-.084z"/><path data-name="Path 3062" d="M64.826 19.761l-6.237 12.285h3.444l1.281-2.772h3.738l.147-.042.147-.042.126-.063.126-.084.1-.105.1-.1.084-.126.021-.042.966-1.6h-4.557l2.562-5.376 4.634 10.31h3.318l-5.67-12.243z"/><path data-name="Path 3063" d="M137.991 2.793h-3.129v12.264h3.129V2.793z"/><path data-name="Path 3064" d="M75.474 13.272l.231.21.231.189.231.189.252.168.252.168.252.168.273.147.273.126.21.084.294.084.294.1.294.084.315.084.294.063.315.042.294.063.378.042.315.021.315.021h.315l.315.021h.315l.315-.021.462-.021.315-.021.315-.021.294-.042.315-.042.294-.063.294-.063.315-.063.294-.063.315-.105.294-.063.294-.105.294-.105.231-.063v-2.31l-.126.063-.294.105-.294.126-.294.084-.294.1-.294.084-.315.063-.441.084-.273.042-.315.042-.294.042-.294.021-.315.021h-.63l-.294.021-.273-.021-.294-.021-.273-.042-.294-.063-.273-.084-.315-.084-.252-.084-.252-.105-.231-.126-.231-.147-.21-.147-.21-.168-.273-.252-.168-.21-.168-.21-.168-.217-.126-.231-.105-.252-.105-.252-.1-.4-.063-.273-.042-.294v-.84l.042-.273.063-.4.063-.252.084-.273.084-.252.126-.231.126-.231.21-.294.189-.21.189-.189.231-.189.21-.168.231-.168.378-.21.252-.126.294-.105.273-.084.294-.084.4-.084.294-.021.315-.042h.924l.441.021.315.021.315.042.315.042.273.042.315.063.294.063.315.084.294.063.294.105.294.084.147.063.357.1.021-2.289-.189-.042-.294-.084-.294-.1-.315-.084-.294-.063-.315-.084-.294-.063-.315-.063-.357-.063-.315-.042-.294-.042-.315-.042-.315-.021-.315-.021h-1.218l-.294.021-.315.021-.315.042-.294.042-.294.063-.294.063-.294.084-.294.084-.336.105-.273.1-.273.1-.294.126-.252.147-.273.147-.252.147-.252.168-.231.189-.231.189-.21.189-.21.21-.21.21-.189.231-.189.231-.168.252-.168.231-.126.273-.147.252-.168.4-.1.273-.084.273-.084.294-.063.294-.063.294-.021.42-.021.294v.588l.042.294.042.294.042.294.084.273.084.294.147.42.126.273.126.252.147.273.147.252.168.231.168.231.189.252.252.231z"/><path data-name="Path 3065" d="M107.792 32.046h3.234V19.803h-3.208l-.021 12.243z"/><path data-name="Path 3066" d="M146.411 19.803h-3v12.243h9.555l.924-2.184h-7.476V19.803z"/><path data-name="Path 3067" d="M117.201 12.915h-9.807V4.872h9.345l-.777-2.1h-11.676v12.243h11.865l1.05-2.1z"/><path data-name="Path 3068" d="M162.141 29.82h-3.969v-7.917h9.345l-.735-2.142H154.96v12.264h12.075l.966-2.2z"/><path data-name="Path 3069" d="M160.44 24.717l-.084.021h-.105l-.126.021-.105.042-.084.063-.1.063-.084.084-.021.042-1.218 1.806h5.355l.084-.021.105-.021.1-.042.1-.042.084-.063.084-.084.042-.063 1.3-1.806h-5.334z"/><path data-name="Path 3070" d="M142.233 25.515l-.022-.295-.041-.231-.042-.295-.063-.273-.084-.294-.084-.273-.127-.273-.105-.273-.146-.252-.147-.251-.189-.252-.189-.231-.189-.231-.209-.232-.21-.209-.231-.21-.231-.189-.274-.189-.252-.168-.272-.168-.273-.147-.295-.126-.273-.147-.273-.105-.294-.105-.294-.105-.295-.084-.294-.083-.315-.063-.294-.063-.315-.064-.315-.021-.294-.021-.295-.022h-.269l-.105-.021h-.146l-.252.021h-.252l-.294.022-.295.021-.315.021-.294.042-.315.063-.294.064-.294.063-.295.083-.294.084-.273.105-.273.126-.295.126-.251.127-.295.189-.231.147-.251.189-.232.189-.231.189-.21.21-.21.231-.189.21-.21.273-.168.232-.168.251-.147.252-.126.273-.105.273-.126.273-.084.294-.105.4-.042.294-.041.315-.042.294v.841l.042.314.021.295.063.294.063.295.063.273.105.314.105.295.127.273.126.251.147.273.168.252.251.378.189.231.209.21.211.231.209.21.232.189.273.21.251.168.252.146.273.168.273.127.294.146.273.105.295.127.4.105.294.083.315.063.315.063.294.042.315.042.295.021.314.042h.315l.273.022h.336l.315-.022.315-.021.315-.022.294-.042.5-.083.295-.063.294-.063.295-.084.294-.083.294-.127.274-.105.272-.126.4-.21.272-.147.252-.146.231-.168.232-.189.231-.189.21-.21.21-.21.273-.336.168-.252.168-.251.147-.274.126-.251.126-.273.105-.294.105-.274.063-.294.084-.294.042-.295.041-.294.042-.315.021-.294v-.168l-.021-.295-.021-.314zm-3.445.524v.252l-.021.294-.042.295-.041.231-.063.294-.064.294-.1.274-.106.273-.105.273-.146.273-.147.231-.189.21-.189.189-.189.189-.21.189-.252.147-.231.146-.252.106-.251.084-.252.084-.251.063-.4.063-.294.021h-.555l-.295-.042-.273-.041-.273-.063-.273-.084-.273-.084-.273-.106-.315-.167-.231-.147-.21-.168-.209-.189-.189-.189-.294-.357-.147-.21-.127-.231-.126-.251-.105-.252-.105-.273-.084-.273-.063-.273-.063-.4-.042-.295v-.567l.042-.357.041-.315.042-.294.063-.273.084-.294.105-.252.105-.273.146-.231.127-.252.189-.21.168-.21.189-.189.209-.168.315-.232.231-.126.252-.126.252-.105.252-.084.251-.063.42-.063.4-.042h.273l.127-.021.419.042.5.084.251.063.273.084.252.105.231.105.251.146.211.147.209.168.21.189.189.189.189.21.147.231.146.232.105.251.106.252.1.251.064.252.041.21.042.294.042.295.041.273v.294z"/><path data-name="Path 3071" d="M109.809 7.791h-.105l-.126.021-.147.021-.105.063-.126.042-.084.084-.105.105-1.3 1.764h5.187l.126-.021.126-.021.105-.042.126-.063.105-.084.084-.063.084-.105.063-.063 1.134-1.638h-5.04z"/><path data-name="Path 3072" d="M127.554 14.805l.42-.105.294-.105.273-.105.273-.105.273-.147.42-.231.252-.147.231-.146.252-.169.209-.189.21-.21.19-.189.251-.295.169-.231.146-.231.147-.252.147-.273.105-.273.126-.315.063-.314.084-.295.062-.294.042-.295.021-.294.021-.315.022-.273.021-.273v-.231l-.021-.273-.042-.294-.042-.295-.063-.273-.084-.294-.083-.273-.105-.273-.126-.273-.127-.252-.146-.252-.168-.251-.211-.295-.189-.231-.21-.21-.21-.21-.231-.189-.231-.147-.231-.168-.232-.146-.251-.147-.231-.127-.252-.126-.252-.105-.273-.105-.251-.084-.274-.084-.251-.084-.273-.063-.273-.064-.273-.041-.252-.042-.273-.022-.251-.021-.273-.021h-.084l-.168.021h-6.489v12.243h7.177l.294-.022.294-.041.294-.042.315-.063.294-.063zm-.756-2.079l-.251.084-.252.063-.252.042-.251.042h-3.759V4.829h3.086l.295.022h.126l.147.021.251.063.273.064.252.084.252.105.251.127.231.126.232.146.231.168.189.189.168.147.189.209.147.21.147.232.1.231.127.251.083.232.064.273.041.168.063.273.042.273v.777l-.042.273-.041.273-.084.273-.063.231-.084.273-.105.273-.126.252-.147.252-.146.251-.168.232-.168.209-.169.189-.209.147-.21.146-.231.126-.232.106z"/><path data-name="Path 3073" d="M125.537 29.4l-.231.084-.315.084-.294.084-.315.084-.315.063-.294.063-.315.063-.315.021-.273.042-.315.042-.294.021-.294.021h-.315l-.294-.021-.315-.021-.4-.021-.273-.042-.294-.042-.252-.063-.273-.1-.252-.084-.294-.147-.252-.126-.21-.147-.231-.147-.21-.168-.252-.273-.168-.21-.168-.21-.147-.231-.126-.231-.1-.252-.126-.42-.063-.294-.021-.294-.021-.273v-.294l.021-.294.021-.273.042-.273.042-.273.084-.252.084-.252.105-.231.168-.294.147-.231.168-.231.189-.189.189-.189.21-.189.231-.168.252-.147.252-.126.273-.126.273-.1.273-.084.315-.063.294-.042.294-.042.315-.021.294-.021.4.021.294.021.336.042.315.021.294.063.315.042.315.063.294.084.315.084.294.084.315.084.294.105.294.105h.021l.336.126v-2.352l-.105-.042-.231-.084-.063-.021-.294-.1-.315-.1-.294-.084-.378-.084-.294-.063-.315-.063-.315-.042-.315-.042-.609-.063-.315-.021-.315-.021-.315-.021-.378-.021h-.609l-.315.021-.315.021-.483.063-.315.042-.294.063-.294.063-.294.084-.273.105-.378.147-.273.105-.273.147-.252.147-.273.147-.231.168-.294.231-.231.189-.21.189-.231.21-.189.231-.189.231-.273.336-.168.273-.147.252-.147.273-.1.273-.1.21-.1.294-.084.273-.063.294-.063.294-.063.483-.021.294v.588l.021.378.042.294.063.294.063.294.063.294.147.378.1.273.126.273.147.252.147.273.21.336.189.231.189.231.189.231.231.21.294.252.231.189.252.189.252.147.294.189.273.126.294.126.294.1.273.105.294.084.588.126.315.042.315.042.315.042.315.021.483.021.315.021h.63l.315-.021h.315l.336-.042.294-.021.273-.021.315-.042.315-.042.315-.063.294-.063.315-.084.315-.084.294-.084.294-.084.126-.042.021-.021.336-.1.021-2.289-.315.126-.063.021z"/><path data-name="Path 3074" d="M57.265 15.582V9.366l-4.368 2.478-4.221 2.373-3.948 2.184-3.591 1.953-3.234 1.722-2.9 1.491-2.646 1.281-2.373 1.071-2.226.945-2.121.777-2.1.693-2.037.588-2.037.483-1.974.42-1.869.315-1.764.252-1.575.168-1.407.084-1.176.063-1.029-.042-1.554-.168-1.071-.252-.777-.315-.63-.42-.5-.483-.4-.567-.231-.63-.084-.735.084-.882.315-1.008.5-1.092L4.993 21l.84-1.113.945-1.071.966-.987.987-.861 1.071-.84 1.2-.9 1.239-.819 1.2-.735 1.239-.693 1.281-.651 1.281-.567 1.3-.525 1.239-.42 1.155-.357 1.029-.231.945-.147.945-.042.987.084.525.063-.273-.966-.483-1.638-.378-1.155-.294-.693-.231-.378-.231-.231-.252-.168-.4-.147-.63-.063-.9.042-1.134.147-1.281.273-1.323.378-1.386.5-1.344.567-1.281.588-1.239.651-1.218.693-1.239.777-1.281.861-1.26.9-1.113.9-.987.819-.882.84-.861.882-.8.966-.735 1.008-.651 1.029-.525 1.113-.42 1.113-.231 1.134-.1 1.092.084 1.176.21 1.239.336 1.239.441 1.176.5 1.071.588.945.693.924.8.84.861.735.924.63 1.029.5 1.218.441 1.449.4 1.554.273 1.6.168 1.575.042 1.512-.084 1.365-.105 1.3-.189 1.3-.231 1.3-.252 1.218-.294 1.2-.294 1.26-.378 1.3-.378 1.3-.42 1.323-.462 1.323-.5 1.323-.525 1.323-.567 1.344-.63 1.428-.693.819-.441 1.071-.567 1.47-.8 2.142-1.155 2.961-1.638 3.927-2.163 4.7-2.625 5.187-2.856z"/></g></svg>