<svg xmlns="http://www.w3.org/2000/svg" width="106.549" height="27.074"><g fill-rule="evenodd"><path data-name="Path 3082" d="M.661 7.494a2.329 2.329 0 011.7.516 2.827 2.827 0 01.562 2.075v13.09c0 1.811-.38 2.619-2.621 2.619h-.307v.8h10.07v-.8h-.3c-2.22-.027-2.595-.83-2.595-2.619v-13.09a2.815 2.815 0 01.561-2.069 2.365 2.365 0 011.735-.523h.6v-.815H-.004v.815z" fill="#d3dcde"/><path data-name="Path 3083" d="M32.869 19.921a11.379 11.379 0 01-.2-1.275v-5.978c-.039-3.486.437-5.221-2.612-5.208v-.783h7.012v.783c-3.139-.013-2.745 1.723-2.762 5.208v13.96l-1-.011-15.142-15.845a11.432 11.432 0 01.2 1.274v9.79c-.086 3.571.357 4 2.658 3.961v.816h-7.316v-.816c2.3 0 2.757-.3 2.754-4.252v-9.414l-.019-1.531c.086-1.982-.646-3.132-2.881-3.113v-.783h6.73l12.575 13.217z" fill="#d3dcde"/><path data-name="Path 3084" d="M58.25 6.295h-.773l-.035.265c-.053.395-.209 1.057-.659 1.057a2.308 2.308 0 01-.808-.225 14.226 14.226 0 00-5.3-1.1 11.825 11.825 0 00-8.49 3.353 10.6 10.6 0 00-3.044 7.614 8.944 8.944 0 003.367 7.043c2.269 1.941 4.813 2.769 8.507 2.769a13.74 13.74 0 007.544-1.893l.473-.257v-5.223c0-2.226.273-2.573 2.084-2.646l.3-.011v-.776h-8.85v.776l.295.011c2.018.078 2.4.44 2.4 2.281v4.841a6.661 6.661 0 01-3.963 1.359 7.272 7.272 0 01-5.224-2.17 9.236 9.236 0 01-2.416-6.669c0-2.883.767-5.341 2.349-6.921a6.7 6.7 0 014.837-1.958 8.664 8.664 0 015.039 1.808 5.91 5.91 0 012.108 3.222l.066.219h.755l-.562-6.773z" fill="#d3dcde"/><path data-name="Path 3085" d="M97.01 26.544a2.432 2.432 0 001.406-.424 6.456 6.456 0 004.655-1.071 9.732 9.732 0 001.811-1.9 6.869 6.869 0 001.015-1.892 8.791 8.791 0 00.4-1.331 12.666 12.666 0 00-.477-6.621c-.129-.381-.276-.75-.436-1.1a11.48 11.48 0 00-3.906-4.911 7.845 7.845 0 01-2.571-2.676c-.317-.286-.622-.665-1.033-.733a1.587 1.587 0 01.267.584l-.024.03a1.511 1.511 0 01-1.077-.5l.329-.3a1.768 1.768 0 00-.4-.119c-1.256-.143-2.289.437-3.4.716l-.018.062c.685.3.827 1.059 1.226 1.569.1-.118.267-.032.4-.043.2.011.386.156.578.105a1.824 1.824 0 00-.118-.447.829.829 0 01.392 0c.361.211.939-.037 1.164.447a6.782 6.782 0 00-1.183.205c.026.156.182.28.168.436a3.92 3.92 0 00-1.045-.267l-.019.056a3.6 3.6 0 001.762 1.063c.94.217 1.767-.23 2.674-.074a10.425 10.425 0 014.961 5.572c.041.106.08.214.116.324a10.787 10.787 0 01.13 6.621 8.106 8.106 0 01-1.429 2.42 4.98 4.98 0 01-.816.8 3.662 3.662 0 01-3.273.723c-.074-.051-.224-.064-.2-.194.041-.173.08-.349.114-.529a13.129 13.129 0 00.234-3.139v-.136a11.98 11.98 0 00-.94-4.269 14.914 14.914 0 00-1.341-2.353 5.566 5.566 0 00-2.493-2.053 1.868 1.868 0 00-1.9.329 1.284 1.284 0 00-.436 1.146 3.91 3.91 0 01-1.792.578 4.933 4.933 0 01-.492.071 2.755 2.755 0 01-.464-.018 4.6 4.6 0 01-2.19-1.008c-.013-.324-.032-.628-.045-.971a1.167 1.167 0 01-.659-.927l.031-.031a2.654 2.654 0 01.554.267 4.1 4.1 0 00-.416-1.387c-.225-.094-.449-.168-.66-.281a1.061 1.061 0 01-.436-.721c.217.211.6.137.765.361a12.717 12.717 0 00-.778-2.645c-.243-.585-.878-.852-1.313-1.281-.168-.207-.237-.493-.541-.524-.249-.062-.269-.342-.311-.523.155.019.285.124.416.149a4.691 4.691 0 00-1.654-2.632l-.168.106a10.388 10.388 0 01-1.163.093 1.593 1.593 0 01.7-.467 1.674 1.674 0 00-.842-.31 1.733 1.733 0 01-.813.354l-.032-.025c-.006-.224-.057-.5.28-.555a1.955 1.955 0 00-1.19 0c-.092.243-.359.461-.34.748a5.091 5.091 0 01-.529.609A5.757 5.757 0 0178.48.375c-.279.106-.564.255-.839.386a11.45 11.45 0 00-1.38-.7c-.043-.019-.136-.037-.118.044.4.292.248.84.291 1.256l-.256-.211c-.124-.317-.483-.547-.545-.9a4.741 4.741 0 00-1.087.361l-.054.031a.876.876 0 01.684.461 8.042 8.042 0 01-1.27-.194c-.043-.043-.08-.093-.15-.087a2.376 2.376 0 00-.6.386 4.2 4.2 0 00-1.071 1.45.932.932 0 01.429.105c-.236.143-.441.386-.672.523a5.728 5.728 0 00-.087 1.046 4.642 4.642 0 00-.541.822 12.186 12.186 0 00-.429 4.056c-.125.119-.287.194-.4.287l.013 1.269h.031c.056-.267.373-.416.566-.6h.062c-.031.286-.068.573-.074.865l-.36.3c-.362.317-.057.8-.087 1.2.025.1.043.26.118.286a1.705 1.705 0 01.268-.4c.156-.037.292-.162.435-.18a6.635 6.635 0 01-.311.914 1.109 1.109 0 00-.19.156.457.457 0 00-.128.23 28.332 28.332 0 001.225 4.318c-.341.579-.535 1.261-.82 1.858-.041.084-.077.17-.112.255-.286.723-.373 1.533-.728 2.228a2.6 2.6 0 00-.461-.243 1.873 1.873 0 00-1.942.436 1.666 1.666 0 00-1.227.224 1.631 1.631 0 00-.544.665 1.351 1.351 0 00-.1.592 1.432 1.432 0 00-.522.79 2.456 2.456 0 00.491 1.888z" fill="#fff"/><path data-name="Path 3086" d="M92.89 12.552c-.006.162-.124.343-.019.479.15-.168.4-.162.6-.237a4.917 4.917 0 011.6.249c-.13-.206-.217-.436-.36-.622-.287-.074-.722.124-.771-.3-.174-.15-.449-.043-.628-.032a1.407 1.407 0 00-.418.461z" fill="#fff"/><path data-name="Path 3087" d="M73.871 7.18l-.009-.007v.007z" fill="#fff"/><path data-name="Path 3088" d="M76.133 12.712l.374-.361a.084.084 0 01.074.032l-.032.69a.97.97 0 00.641.237c.019-.187.162-.317.243-.479.068-.131.025-.324.162-.418l.043.044a2.051 2.051 0 00.138.616l.043.311a1.552 1.552 0 00.735-.162 2.788 2.788 0 01.105-.648c.057-.074-.068-.211.087-.2.087.186.243.379.33.578a2.439 2.439 0 00.6-1.343c-.105-.144-.267-.144-.392-.237a4.68 4.68 0 00-3.435.118 1.584 1.584 0 00.287 1.226z" fill="#fff"/><path data-name="Path 3089" d="M66.245 24.387a9.677 9.677 0 00.03 1.4.716.716 0 00.461.348l.031-.317c.075-.443-.162-.912.088-1.285a3 3 0 01.5.223 1.091 1.091 0 00-.424-1.138l-.684.765z" fill="#fff"/><path data-name="Path 3090" d="M67.782 23.716a3.657 3.657 0 00-.13 2.392 2.766 2.766 0 00.491-.373 2.588 2.588 0 01.237-1.7 1.106 1.106 0 01.628.673 1.151 1.151 0 00.194-.971c.013-.273-.3-.211-.449-.324.051-.23.044-.5.287-.627l-.747.074a3.509 3.509 0 00-.51.852z" fill="#fff"/><path data-name="Path 3091" d="M69.318 25.865c.031.056 0 .156.062.168.094-.523.517-.861.747-1.322.111-.156.105-.373.286-.492.243 0 .418.175.654.194.074.056-.039.105-.044.167a6.109 6.109 0 00-.18 1.211h.043a6.327 6.327 0 00.8-1.124l.043-.354c.056-.423-.4-.7-.7-.87l.268-.342-.373-.131a1.7 1.7 0 00-1.133.566 5.062 5.062 0 00-.467 2.33z" fill="#fff"/><path data-name="Path 3092" d="M70.992 22.171c.143.044.273-.075.416-.012a3.769 3.769 0 011.6.908l.51 1.3.255-.8-.168-.437c-.142-.311-.535-.285-.8-.3-.111-.124.007-.268.045-.386.13-.442-.411-.418-.629-.6.013-.268-.311-.174-.492-.2l-.062-.074a.128.128 0 00-.18-.013c-.013-.018-.037-.031-.025-.062l-.138.031a.883.883 0 00-.329.64z" fill="#fff"/><path data-name="Path 3093" d="M71.353 20.742a.4.4 0 00.131.211c.281-.074.547-.267.871-.15a4.918 4.918 0 001.357.952l.18-.031c.112.038.237.044.311.168.069.168-.105.268-.162.4.281.2.168.573.342.821l.448-.6c-.105-.261.006-.709-.4-.733a.392.392 0 01-.224-.362c-.267-.243-.6-.348-.865-.6-.217-.174-.348-.442-.629-.5a2.325 2.325 0 00-.627-.211c-.418-.062-.454.435-.729.628z" fill="#fff"/><path data-name="Path 3094" d="M71.95 19.516l.075.118c.311-.019.592-.156.9-.15.2.126.473.119.684.224a2.39 2.39 0 00.6.648c.5.074.784.616.959 1.014v-.194a1.326 1.326 0 00-.106-.821c-.124-.125-.3-.206-.435-.318a.255.255 0 01.019-.193 4.041 4.041 0 00-.715-.478c-.33-.48-.965-.349-1.469-.48l-.5.629z" fill="#fff"/><path data-name="Path 3095" d="M71.94 14.95c.055.193.122.437.16.642.174-.386.518-.559.823-.877a1.579 1.579 0 00-.585-.212v-.011c-.138.136-.349.273-.4.459z" fill="#fff"/><path data-name="Path 3096" d="M73.07 16.997l.28-.286a1.767 1.767 0 00.554-.983.8.8 0 00-.653.031 7.878 7.878 0 00-.181 1.238z" fill="#fff"/><path data-name="Path 3097" d="M73.275 17.875a1.81 1.81 0 001.2-.13l.348-1.12a.851.851 0 00-.328-.019 2.727 2.727 0 01-1.215 1.27z" fill="#fff"/><path data-name="Path 3098" d="M73.402 13.905a2.491 2.491 0 001.225 1c-.056-.522-.5-.884-.733-1.331l-.013-.15a2.324 2.324 0 00-.586-.386 2.89 2.89 0 00.106.865z" fill="#fff"/><path data-name="Path 3099" d="M74.918 17.925a2.184 2.184 0 00.989-.094c.443-.1.686-.59.835-.97h-.552l-.6.584a4.831 4.831 0 00-.672.479z" fill="#fff"/><path data-name="Path 3100" d="M74.852 13.339a3.626 3.626 0 00.579 1.345l.074-.927-.654-.418z" fill="#fff"/><path data-name="Path 3101" d="M76.891 15.759a4.6 4.6 0 00-.128-.989c-.187-.125-.449-.112-.641-.236a1.827 1.827 0 00.769 1.225z" fill="#fff"/><path data-name="Path 3102" d="M76.325 18.921a6.166 6.166 0 001.132-.461c.23-.329.579-.629.629-1.015-.287.081-.535-.011-.8.119a2.05 2.05 0 01-.572.834c-.05.211-.28.355-.386.523z" fill="#fff"/><path data-name="Path 3103" d="M76.934 19.686l.467.61a.947.947 0 00.777-.088l-.168-.553a2.171 2.171 0 01-1.077.031z" fill="#fff"/><path data-name="Path 3104" d="M77.713 15.28l.18.822a1.653 1.653 0 00.513-1.419 1.952 1.952 0 01-.693.6z" fill="#fff"/><path data-name="Path 3105" d="M78.938 16.73a.6.6 0 00.106.324c.486.174.535.765.984.989a1.116 1.116 0 00.883-.149c-.192-.218-.411-.368-.6-.6-.132-.056-.262-.137-.255-.3l-1.121-.267z" fill="#fff"/><path data-name="Path 3106" d="M79.324 19.667a1.445 1.445 0 00.8.435c-.049-.068.031 0 .044-.043l-.374-.821c-.185 0-.379.043-.553.03a1.647 1.647 0 00.086.4z" fill="#fff"/><path data-name="Path 3107" d="M79.984 15.834a4.805 4.805 0 01-.3-1.343c-.187.223-.38.367-.555.6-.08.46.577.573.852.746z" fill="#fff"/><path data-name="Path 3108" d="M80.743 15.411c.224.292.715.192.99.105-.131-.224-.553-.354-.627-.6a5.4 5.4 0 00-.269-1.238 1.769 1.769 0 00-.094 1.73z" fill="#fff"/><path data-name="Path 3109" d="M81.135 16.73a2.558 2.558 0 002.1.791c.062-.044.168-.038.181-.118-.255-.162-.529-.286-.791-.436l-.3-.436h-.136a5.415 5.415 0 01-1.059.2z" fill="#fff"/><path data-name="Path 3110" d="M81.151 21.777h.043a3.363 3.363 0 011.257-.523c.119.044.044.174.149.225.269-.112.592-.087.865-.181a1.871 1.871 0 01.865.162c.211.279.61.249.884.435l-.044-.435a2.794 2.794 0 00-2.315-.716l-.019-.087a1.492 1.492 0 00-.609.131 3.159 3.159 0 00-.779.224 7.665 7.665 0 00-.3.765z" fill="#fff"/><path data-name="Path 3111" d="M81.65 14.129a1.053 1.053 0 001.014.479 1.183 1.183 0 01-.467-.716c.063-.554-.547-.6-.846-.884a3.739 3.739 0 00.3 1.121z" fill="#fff"/><path data-name="Path 3112" d="M81.584 22.879h.073c.331-.206.81-.051 1.133-.268.181-.094.192.155.318.223.3.187.341.747.771.616.516.268.386.9.4 1.358l.479-.3c-.044-.243.092-.537-.063-.748-.118-.267-.442-.292-.6-.509.187-.317-.237-.467-.324-.7l.025-.031.659.087a.982.982 0 01.373.616c.517.087.641.672.823 1.046.106-.255.149-.53.255-.778.006-.206-.268-.206-.4-.3a1.114 1.114 0 00-.46-.809 6.847 6.847 0 00-1.706-.461l-.523.162c-.286.068-.591-.019-.809.18-.323.025-.348.381-.428.611z" fill="#fff"/><path data-name="Path 3113" d="M81.913 20.315l.118.056c.254-.119.51-.255.778-.355.416-.118.74.355 1.089.056.13-.093.241.043.341.118.15.274.5.255.759.33-.13-.354-.291-.84-.746-.9a4.347 4.347 0 01-.567-.18c-.478-.528-.789.436-1.313.2a1.45 1.45 0 00-.46.673z" fill="#fff"/><path data-name="Path 3114" d="M82.032 23.346c.2.167.4.454.714.416.388.181.225.691.437.959l.224-.2-.019-.011.032-.032.013.019a1.187 1.187 0 00-.132-.735c-.143-.1-.311.007-.448-.087a.63.63 0 00-.286-.422c-.1-.075-.231.025-.342.019l-.193.075z" fill="#fff"/><path data-name="Path 3115" d="M82.814 15.76a3.209 3.209 0 00.921.79 1.473 1.473 0 00.884.087 5.717 5.717 0 01-.735-.728c-.087-.124-.106-.279-.224-.392a1.752 1.752 0 00-.846.243z" fill="#fff"/><path data-name="Path 3116" d="M83.153 13.532c.287.354.728.211 1.133.224v-.043l-.622-.523a1.668 1.668 0 00-.511.342z" fill="#fff"/><path data-name="Path 3117" d="M71.697 7.663l.36 1.12c-.007-.635.286-1.163.224-1.811l.268-.4-.567.175a2.1 2.1 0 00-.286.914z" fill="#fff"/><path data-name="Path 3118" d="M71.94 5.723l.491-.287v-.728a2.607 2.607 0 00-.478.5l-.013.51z" fill="#fff"/><path data-name="Path 3119" d="M82.033 6.855a.689.689 0 01-.448.224 2.126 2.126 0 00.18-1.687 2.36 2.36 0 00.417-.149l-.013-.012.343-.3c.454-.311.279-.9.448-1.344-.224-.348-.292-.771-.616-1.065l.019-.011c-.256-.324-.716-.287-1.065-.449-.461-.156-.815.162-1.144.374-.143.024-.056.211-.211.2a6.394 6.394 0 00-.255.734 2.492 2.492 0 00-1.773.33 2.614 2.614 0 00-.884-.317c-.223-.043-.479.038-.64-.088-.237-.267-.287-.752-.692-.821-.142-.049-.173-.2-.173-.342-.269-.043-.505-.167-.767-.224-.4-.181-.715.106-1.014.3a3.141 3.141 0 00-.4.15 5.719 5.719 0 00-.578 1.089 2.27 2.27 0 00.342.865 1.76 1.76 0 00.97.884 3.681 3.681 0 000 1.973l-.011.007-.02.017a.342.342 0 01-.172-.017h-.008a2.711 2.711 0 00.82 1.561c.162.057.125.249.194.374a.287.287 0 01.03.223 4.879 4.879 0 00-2.613.653c-.2.1-.112.374-.13.567a4.79 4.79 0 011.792-.746 2.7 2.7 0 01.865-.013l.031.535a7.888 7.888 0 00-2.184 1.244 2.544 2.544 0 00.031.579l.566-.461a6.758 6.758 0 011.748-1 2.184 2.184 0 00.567.535 4.251 4.251 0 011.226-.535c.23-.136.6-.012.746-.285l.106-.567c-.019-.013-.031-.037-.063-.031a.857.857 0 01-.46-.8.842.842 0 01-.33.087c-.1-.025-.193-.049-.237-.149-.007-.125-.068-.311.055-.4a2.412 2.412 0 011.438-.223c.38.049.928.03 1.057.479-.017.13-.006.273-.136.36s-.293-.007-.418-.062a1.028 1.028 0 01-.61.747l.044.361c.043.162.055.429.311.374a5.449 5.449 0 011.63.778 3.931 3.931 0 00.435-.554 8.129 8.129 0 012.476 1.642l.033-.522a8.533 8.533 0 00-2.36-1.451 3.248 3.248 0 00.075-.51 6.107 6.107 0 012.744.84l-.013-.448a6.1 6.1 0 00-2.825-.778.323.323 0 01-.043-.193 1.383 1.383 0 00.971-1.046c.255-.292.622-.609.535-1.045l.037-.111a.514.514 0 00.025-.324z" fill="#fff"/><path data-name="Path 3120" d="M82.898 8.454l.51-.162.056-.286c.144-.418-.161-.729-.311-1.059l-.255 1.506z" fill="#fff"/><path data-name="Path 3121" d="M84.185 10.427c.243.267.479.7.91.565a2.738 2.738 0 00-.194-.491c-.112-.132-.149-.5-.373-.373-.168-.112-.211-.3-.317-.449a4.325 4.325 0 00-.026.747z" fill="#fff"/><path data-name="Path 3122" d="M84.276 12.249c.094.132.118.3.211.418a1 1 0 00.622.074c.187-.043.305.162.479.043-.217-.137-.348-.386-.554-.565-.243-.194-.5-.025-.759.03z" fill="#fff"/><path data-name="Path 3123" d="M84.603 15.144a2.388 2.388 0 001.548.418c.063-.032.168-.025.18-.1a9.351 9.351 0 00-1.1-.555c-.206-.317-.473.081-.735.056.007.075.081.132.106.181z" fill="#fff"/><path data-name="Path 3124" d="M85.896 20.638l.094.2c.094.647.5 1.244.279 1.954.188.131.243.348.361.523h.031a4.17 4.17 0 00-.031-1.643c.057-.491-.441-.778-.734-1.033z" fill="#fff"/><path data-name="Path 3125" d="M86.004 14.267a1.389 1.389 0 001.213.15 3.722 3.722 0 01-.691-.448l-.522.3z" fill="#fff"/><path data-name="Path 3126" d="M87.539 16.176a.676.676 0 00.33.61 1.425 1.425 0 00.193-.46 1.142 1.142 0 00-.448-.691 1.521 1.521 0 00-.074.541z" fill="#fff"/><path data-name="Path 3127" d="M87.557 19.014c-.044.292.28.33.416.492.113.136-.074.23-.074.36a1.686 1.686 0 01.373 1.059 10.163 10.163 0 00.287-1.133c-.025-.273-.46-.217-.392-.523a1.355 1.355 0 00-.106-.9c-.025-.045-.081-.132-.13-.106-.113.255-.392.435-.374.746z" fill="#fff"/><path data-name="Path 3128" d="M88.41 17.533l.324.628c.143-.018.235-.156.348-.255.087-.261-.144-.43-.211-.641-.057-.149 0-.349-.106-.479-.08-.049-.174-.13-.268-.106l-.086.853z" fill="#fff"/><path data-name="Path 3129" d="M88.827 15.879a1.81 1.81 0 01.684.652c.219.635.567 1.208.823 1.824.094.429.168.812.286 1.236.044.111.019.328.193.311.049-.473.143-.927.149-1.419a1.886 1.886 0 00-.554-.418v-.043c.025-.106.112-.23.243-.211.055-.063.223-.125.149-.237-.324-.324-.305-.882-.822-.981a.469.469 0 01-.242-.435 1.478 1.478 0 00-.909-.279z" fill="#fff"/><path data-name="Path 3130" d="M89.125 19.251c.318.292.206.715.181 1.108-.049.237.249.1.343.223a1.361 1.361 0 01.011 1.015 6.082 6.082 0 00.492-.759c-.007-.106.13-.156.125-.286.056-.181-.156-.1-.243-.119s-.156-.069-.132-.168a1.521 1.521 0 00-.049-1c-.074-.255.031-.6-.087-.821-.2.273-.791.335-.642.8z" fill="#fff"/><path data-name="Path 3131" d="M89.704 14.836c.554.561.959 1.124 1.555 1.665a6.493 6.493 0 00-.031-.7 1.641 1.641 0 00-.386-.416c-.441-.044-.672-.639-1.138-.546z" fill="#fff"/><path data-name="Path 3132" d="M91.154 17.798a.911.911 0 00.061.162 8.038 8.038 0 01.642 1.238c-.05-.46.261-1.033-.15-1.387-.055-.149-.243-.1-.36-.087l-.193.074z" fill="#fff"/><path data-name="Path 3133" d="M92.647 22.344c.174.08.4-.063.567-.162a.508.508 0 01.4.13c.049.1 0 .192.017.286a3.792 3.792 0 011.071.46l.105-.105a.731.731 0 00-.386-.61c-.13-.076-.324-.031-.416-.15a.642.642 0 00.056-.36.894.894 0 01-.5-.162c-.105-.03-.2-.117-.286 0-.311.211-.33.523-.628.673z" fill="#fff"/><path data-name="Path 3134" d="M93.084 14.514a1.126 1.126 0 00.448-.2c.416-.38 1.021-.126 1.5-.132a3.357 3.357 0 00-.342-.479 1.432 1.432 0 00-.535-.15c-.424-.248-.709.168-1.033.373a.693.693 0 00-.043.586z" fill="#fff"/><path data-name="Path 3135" d="M93.095 15.794c0-.017 0-.037.019-.043.056.051-.007.168.087.193a3.569 3.569 0 00.46-.3c.418 0 .667-.4 1.077-.4a6.141 6.141 0 011.96.6 1.347 1.347 0 00-.746-.953.514.514 0 00-.5.15c-.418.262-.2-.38-.492-.392a3.081 3.081 0 01-1.194.213c-.249.092-.424.323-.7.3a1.571 1.571 0 00.031.64z" fill="#fff"/><path data-name="Path 3136" d="M93.382 17.182c.13.136.348.111.535.136l.541-.211c.006-.1-.162-.126-.126-.237.15-.168.356-.051.541-.119.263-.037.53-.3.791-.105-.006.031.013.075-.011.105-.082.193.056.311.2.386.305.057.59.336.9.211a5.505 5.505 0 00-.162-.734c-.254-.044-.434-.255-.672-.342a.51.51 0 01-.373.162c-.479-.112-1.052-.41-1.537-.105-.174.211-.485.149-.722.241a2.725 2.725 0 00.094.611z" fill="#fff"/><path data-name="Path 3137" d="M93.587 20.881c-.038.106-.143.281.049.33.4.013.91-.192 1.221.118.105.082.056.249.049.355l.523.436a4.429 4.429 0 00.149-.779.876.876 0 00-.316-.523c-.343 0-.543-.4-.91-.35-.192-.045-.36.127-.554.127a3.081 3.081 0 00-.211.286z" fill="#fff"/><path data-name="Path 3138" d="M93.736 17.947c.081.168.175.441.33.461a1.763 1.763 0 011.313-.087c.137.025.137.18.106.281.211.124.467.223.69.36l-.061-.373c-.013-.4-.524-.443-.555-.841a2.469 2.469 0 00-1.325-.074c-.144.131-.349.112-.523.15-.012.049.019.08.025.124z" fill="#fff"/><path data-name="Path 3139" d="M93.842 19.963c.243-.068.4-.336.66-.36a1.214 1.214 0 011 .51c.15.1.118.355.311.355a6.241 6.241 0 01.033-.9c-.263-.436-.908-.1-1.152-.61l-.46.031c-.33.08-.243.467-.287.728-.037.081-.111.143-.105.243z" fill="#fff"/><path data-name="Path 3140" d="M96.125 22.686c.194.386.618.678.661 1.12a2.1 2.1 0 00.237-.386c-.007-.126-.15-.126-.207-.224-.056-.162.032-.3.057-.449a1.215 1.215 0 00-.492-.584l-.256.523z" fill="#fff"/><path data-name="Path 3141" d="M96.892 21.698l.448.61a1.607 1.607 0 00.118-1.12c-.043-.069-.124-.18-.237-.131-.168.175-.192.442-.329.642z" fill="#fff"/><path data-name="Path 3142" d="M95.068 4.668a1.306 1.306 0 00.51.168.655.655 0 01.461-.074c.23.149.51-.032.777-.019a2.86 2.86 0 00-.777-.491c-.349.074-.628.322-.971.416z" fill="#fff"/><path data-name="Path 3143" d="M97.501 5.254c.329.031.565.323.789.567a1.109 1.109 0 01.66.448l-.106-.33a2.107 2.107 0 00-.491-.846 2.425 2.425 0 00-.852.162z" fill="#fff"/><path data-name="Path 3144" d="M74.279 2.523l.181.019c.485.243 1.27.367 1.313 1.071a3.836 3.836 0 00-1.355.852c-.3-.305-.9-.137-1-.672.094-.5.273-1.138.864-1.27z" fill="#ec6500"/><path data-name="Path 3145" d="M74.747 5.679c.565-.049 1.113.03 1.7-.019a.751.751 0 01.361.33c-.019.672-.224 1.313-.256 2a.922.922 0 00-.565.6 4.987 4.987 0 00-.66.311.656.656 0 01.094-.7c.243-.342.871-.261.821-.8.162-.262.007-.6.013-.872-.062-.2-.124.068-.223.063a.812.812 0 01-.578-.043c-.132-.138-.294-.249-.33-.436a1.023 1.023 0 01-.467-.4l.094-.024z" fill="#ec6500"/><path data-name="Path 3146" d="M75.43 9.737c.267.037.547-.081.777.049a.447.447 0 01-.285.15l-.418.193c-.156-.038-.068-.287-.074-.392z" fill="#ec6500"/><path data-name="Path 3147" d="M76.52 4.54c.267-.087.555-.267.841-.18a4.031 4.031 0 00-.523.721l-.852-.017a1.2 1.2 0 01.535-.524z" fill="#ec6500"/><path data-name="Path 3148" d="M79.015 4.33c.354-.062.334.4.659.418.056.074.138.142.106.254a5.408 5.408 0 01-.673.087c-.279-.156-.1-.641-.541-.61-.024-.037-.074-.112-.011-.136a1.043 1.043 0 01.461-.013z" fill="#ec6500"/><path data-name="Path 3149" d="M78.791 6.003a.85.85 0 01.616-.281l1.612.031c.068.062-.062.118-.062.192-.1.094-.243.119-.33.206-.211.007-.194.254-.342.36-.231.23-.566.126-.834.088a.717.717 0 01-.243-.269l-.075.074c.094.349.068.735.137 1.089l.386.255c.006.573.68.418.971.735a1.733 1.733 0 01-.354.554 2.08 2.08 0 00-.791-.479c-.025-.337-.392-.535-.6-.7-.056-.61-.068-1.232-.167-1.824l.074-.03z" fill="#ec6500"/><path data-name="Path 3150" d="M79.376 9.846h.747l-.094.392-.747-.317c-.017-.062.051-.081.094-.074z" fill="#ec6500"/><path data-name="Path 3151" d="M80.72 2.791l.554-.174a5.638 5.638 0 01.908.547 2.2 2.2 0 01.088 1.469c-.169.187-.535 0-.672.3h-.025a2.737 2.737 0 00-1.332-1.375 1.154 1.154 0 01.479-.765z" fill="#ec6500"/><path data-name="Path 3152" d="M93.699 26.505h3.32a2.426 2.426 0 001.406-.424 6.459 6.459 0 004.655-1.07 9.72 9.72 0 001.809-1.9 6.861 6.861 0 001.016-1.892 8.72 8.72 0 00.4-1.332 12.677 12.677 0 00-.475-6.621c-.13-.38-.276-.749-.437-1.1a11.467 11.467 0 00-3.905-4.911 7.863 7.863 0 01-2.571-2.676c-.318-.287-.623-.667-1.034-.735a1.605 1.605 0 01.269.585l-.025.032a1.512 1.512 0 01-1.077-.5l.33-.3a1.736 1.736 0 00-.4-.118 9.161 9.161 0 00-3.4.715l-.019.062c.684.305.827 1.057 1.225 1.569.1-.119.268-.032.4-.045.2.013.386.156.578.106a1.749 1.749 0 00-.118-.447c.118-.057.261-.007.392 0 .36.211.94-.038 1.164.447a6.767 6.767 0 00-1.183.2c.025.156.181.281.168.437a3.9 3.9 0 00-1.046-.269l-.018.056a3.6 3.6 0 001.761 1.065c.94.217 1.767-.231 2.675-.075a10.426 10.426 0 014.96 5.572c.041.106.08.214.116.322a10.78 10.78 0 01.13 6.621 8.108 8.108 0 01-1.429 2.421 5.112 5.112 0 01-.816.8 3.66 3.66 0 01-3.272.721c-.074-.049-.225-.063-.2-.193.043-.173.08-.35.114-.529a13.168 13.168 0 00.235-3.139c0-.045 0-.091-.005-.136a12 12 0 00-.941-4.269 14.834 14.834 0 00-1.341-2.353 5.564 5.564 0 00-2.493-2.054 1.867 1.867 0 00-1.9.33 1.276 1.276 0 00-.436 1.144 3.892 3.892 0 01-1.793.579c-.16.014-.325.073-.491.071a2.667 2.667 0 01-.464-.019 4.581 4.581 0 01-2.192-1.008c-.013-.323-.031-.628-.045-.969a1.175 1.175 0 01-.658-.928l.031-.031a2.6 2.6 0 01.553.268 4.064 4.064 0 00-.416-1.388c-.225-.094-.45-.168-.661-.281a1.065 1.065 0 01-.434-.722c.217.212.6.138.765.362a12.647 12.647 0 00-.778-2.645c-.243-.585-.878-.852-1.313-1.282-.168-.2-.237-.491-.541-.523-.249-.062-.268-.342-.311-.523a4.3 4.3 0 01.417.15 4.7 4.7 0 00-1.655-2.632l-.168.105a10.406 10.406 0 01-1.164.093 1.6 1.6 0 01.7-.467 1.675 1.675 0 00-.842-.311 1.717 1.717 0 01-.813.354l-.03-.024c-.007-.224-.059-.5.278-.554a1.936 1.936 0 00-1.189 0c-.094.243-.359.46-.341.746a5.052 5.052 0 01-.529.61 5.82 5.82 0 01.285-1.325c-.279.105-.564.254-.837.386a11.545 11.545 0 00-1.38-.7c-.045-.019-.138-.038-.119.043.4.292.248.84.291 1.257l-.255-.211c-.124-.318-.483-.548-.546-.9a4.738 4.738 0 00-1.086.362l-.055.031a.878.878 0 01.684.46A8.078 8.078 0 0173.91.864c-.044-.045-.08-.094-.15-.087a2.382 2.382 0 00-.6.386 4.194 4.194 0 00-1.07 1.45.947.947 0 01.43.106c-.235.143-.442.386-.672.523a5.718 5.718 0 00-.088 1.046 4.748 4.748 0 00-.541.821 12.188 12.188 0 00-.428 4.057c-.126.118-.287.194-.4.287l.013 1.269h.031c.056-.268.374-.417.566-.6h.063c-.031.286-.068.572-.075.865l-.36.3c-.36.318-.055.8-.087 1.194.026.106.043.261.119.287a1.679 1.679 0 01.267-.4c.156-.038.293-.162.435-.18a6.539 6.539 0 01-.311.914 1.088 1.088 0 00-.19.156.454.454 0 00-.126.232 27.961 27.961 0 001.224 4.317c-.342.578-.536 1.26-.822 1.858a3.642 3.642 0 00-.112.255c-.285.723-.373 1.531-.728 2.228a2.455 2.455 0 00-.46-.243 1.876 1.876 0 00-1.942.435 1.669 1.669 0 00-1.227.224 1.634 1.634 0 00-.544.667 1.35 1.35 0 00-.1.59 1.426 1.426 0 00-.522.791 2.45 2.45 0 00.491 1.888z" fill="#fff"/><path data-name="Path 3153" d="M105.831 13.257c-.13-.38-.276-.749-.437-1.1a11.467 11.467 0 00-3.905-4.911 7.863 7.863 0 01-2.571-2.676c-.318-.287-.623-.667-1.034-.735a1.605 1.605 0 01.269.585l-.025.032a1.512 1.512 0 01-1.077-.5l.33-.3a1.736 1.736 0 00-.4-.118 9.161 9.161 0 00-3.4.715l-.019.062c.684.305.827 1.057 1.225 1.569.1-.119.268-.032.4-.045.2.013.386.156.578.106a1.749 1.749 0 00-.118-.447c.118-.057.261-.007.392 0 .36.211.94-.038 1.164.447a6.767 6.767 0 00-1.183.2c.025.156.181.281.168.437a3.9 3.9 0 00-1.046-.269l-.018.056a3.6 3.6 0 001.761 1.065c.94.217 1.767-.231 2.675-.075a10.426 10.426 0 014.96 5.572c.041.106.08.214.116.322a10.78 10.78 0 01.13 6.621 8.108 8.108 0 01-1.429 2.421 5.112 5.112 0 01-.816.8 3.66 3.66 0 01-3.272.721c-.074-.049-.225-.063-.2-.193.043-.173.08-.35.114-.529a13.168 13.168 0 00.235-3.139c0-.045 0-.091-.005-.136a12 12 0 00-.941-4.269 14.834 14.834 0 00-1.341-2.353 5.564 5.564 0 00-2.493-2.054 1.867 1.867 0 00-1.9.33 1.276 1.276 0 00-.436 1.144 3.892 3.892 0 01-1.793.579c-.16.014-.325.073-.491.071a2.667 2.667 0 01-.464-.019 4.581 4.581 0 01-2.192-1.008c-.013-.323-.031-.628-.045-.969a1.175 1.175 0 01-.658-.928l.031-.031a2.6 2.6 0 01.553.268 4.064 4.064 0 00-.416-1.388c-.225-.094-.45-.168-.661-.281a1.065 1.065 0 01-.434-.722c.217.212.6.138.765.362a12.647 12.647 0 00-.778-2.645c-.243-.585-.878-.852-1.313-1.282-.168-.2-.237-.491-.541-.523-.249-.062-.268-.342-.311-.523a4.3 4.3 0 01.417.15 4.7 4.7 0 00-1.655-2.632l-.168.105a10.406 10.406 0 01-1.164.093 1.6 1.6 0 01.7-.467 1.675 1.675 0 00-.842-.311 1.717 1.717 0 01-.813.354l-.03-.024c-.007-.224-.059-.5.278-.554a1.936 1.936 0 00-1.189 0c-.094.243-.359.46-.341.746a5.052 5.052 0 01-.529.61 5.82 5.82 0 01.285-1.325c-.279.105-.564.254-.837.386a11.545 11.545 0 00-1.38-.7c-.045-.019-.138-.038-.119.043.4.292.248.84.291 1.257l-.255-.211c-.124-.318-.483-.548-.546-.9a4.738 4.738 0 00-1.086.362l-.055.031a.878.878 0 01.684.46 8.078 8.078 0 01-1.269-.192c-.044-.045-.08-.094-.15-.087a2.382 2.382 0 00-.6.386 4.194 4.194 0 00-1.07 1.45.947.947 0 01.43.106c-.235.143-.442.386-.672.523a5.718 5.718 0 00-.088 1.046 4.748 4.748 0 00-.541.821 12.188 12.188 0 00-.428 4.057c-.126.118-.287.194-.4.287l.013 1.269h.031c.056-.268.374-.417.566-.6h.063c-.031.286-.068.572-.075.865l-.36.3c-.36.318-.055.8-.087 1.194.026.106.043.261.119.287a1.679 1.679 0 01.267-.4c.156-.038.293-.162.435-.18a6.539 6.539 0 01-.311.914 1.088 1.088 0 00-.19.156.454.454 0 00-.126.232 27.961 27.961 0 001.224 4.317c-.342.578-.536 1.26-.822 1.858a3.642 3.642 0 00-.112.255c-.285.723-.373 1.531-.728 2.228a2.455 2.455 0 00-.46-.243 1.876 1.876 0 00-1.942.435 1.669 1.669 0 00-1.227.224 1.634 1.634 0 00-.544.667 1.35 1.35 0 00-.1.59 1.426 1.426 0 00-.522.791 2.45 2.45 0 00.491 1.888h11a3.59 3.59 0 01-.424-.691c-.236-.356-.074-.859-.1-1.27.223-.452.452-.907.708-1.349.053-.088.1-.176.158-.262l.5-.194c.267 0 .493-.193.747-.124.342.342.342-.342.673-.374a1.893 1.893 0 011.972.629c0 .087.138.087.106.168-.1.03-.194-.032-.3-.032-.473-.118-1.027-.418-1.493-.149-.018.111-.043.225-.064.336a3.382 3.382 0 00-.055.348 1.883 1.883 0 01.791.541 1.262 1.262 0 01.778-.541 1.8 1.8 0 01.747.223c.392.362.2.978.162 1.438.354.2.746.311 1.106.5a1.734 1.734 0 01-.6.287l-.6-.119c-.068-.049-.187-.049-.213-.136a3.14 3.14 0 00-.565.765h8.524a4.509 4.509 0 00-.4-.691 3.546 3.546 0 01-.124-1.282l.8-1.214a7.309 7.309 0 011.4-.087.478.478 0 00.068-.037c.2-.136.256-.45.548-.412a1.605 1.605 0 011.313.33.539.539 0 01-.04.081c-.164.263-.471-.031-.7.049-.093.1.045.217.062.33.082.111-.08.1-.136.118a.423.423 0 01-.373-.118c-.025-.031-.006-.068-.056-.074a1.941 1.941 0 00-.317.565 1.553 1.553 0 01.4.449c.143.2-.112.36-.162.541a.054.054 0 01-.094 0c-.131-.074-.243-.262-.386-.213-.125.555.043 1.108-.031 1.662a4.74 4.74 0 00.79 0l.106-1.17a3.836 3.836 0 011.089-1.974c.572-.39.94.381 1.362.648.069.013.045.087.075.13-.007.125-.136.174-.223.212-.262.092-.455-.193-.616-.362-.156.168-.224.392-.4.524l.062.018a1.355 1.355 0 01.45.7.786.786 0 01-.374.616 6.2 6.2 0 01-.416-.9c.006.013-.007.019-.019.032-.342.092-.435.477-.492.791.019.3-.211.428-.149.733h4.437a2.426 2.426 0 001.406-.424 6.459 6.459 0 004.655-1.07 9.72 9.72 0 001.809-1.9 6.861 6.861 0 001.016-1.892 8.72 8.72 0 00.4-1.332 12.677 12.677 0 00-.475-6.621z" fill="#d3dcde"/><path data-name="Path 3154" d="M77.273 24.808c.243-.156.635-.194.691-.554a.87.87 0 00-.3-.194l-.255.075a3.152 3.152 0 01.15-.479l.821-.267a6.684 6.684 0 00-.193 1.269 4.578 4.578 0 00.493 1.842h-.884c-.1-.585-.71-1.008-.523-1.692z" fill="#d3dcde"/><path data-name="Path 3155" d="M79.185 24.06h.05l.6.543.087-.019c-.049.635-.08 1.257-.087 1.916h-.646a7.929 7.929 0 01-.324-1.929 2.95 2.95 0 01.324-.511z" fill="#d3dcde"/><path data-name="Path 3156" d="M80.515 24.659c.119-.156.169-.418.4-.448a.636.636 0 01.449.149c.218.273.005.622-.074.9a10.488 10.488 0 01-.375 1.245h-.628l.223-1.842z" fill="#d3dcde"/><path data-name="Path 3157" d="M89.956 24.465c.137.175.181.411.386.567a1.176 1.176 0 00.136-.952l-.18-.181c.23-.056.473-.074.7-.118a2.605 2.605 0 00-.255 1.014c.006.561.1 1.12.149 1.706h-.684a3.768 3.768 0 01-.479-1.706 1.539 1.539 0 01.224-.33z" fill="#d3dcde"/><path data-name="Path 3158" d="M92.899 12.509c-.006.162-.124.342-.019.479.15-.168.4-.162.6-.237a4.9 4.9 0 011.6.249c-.13-.206-.217-.436-.361-.622-.287-.076-.722.124-.771-.3-.174-.149-.448-.043-.628-.031a1.4 1.4 0 00-.418.461z" fill="#fff"/><path data-name="Path 3159" d="M73.881 7.135l-.009-.007v.007z" fill="#fff"/><path data-name="Path 3160" d="M76.143 12.667l.373-.36a.084.084 0 01.074.03l-.031.691a.969.969 0 00.64.237c.019-.186.162-.318.243-.479.068-.13.025-.324.162-.416l.044.043a1.979 1.979 0 00.137.616l.043.311a1.541 1.541 0 00.735-.162 2.769 2.769 0 01.106-.646c.056-.075-.069-.213.086-.206.088.187.243.379.331.579a2.434 2.434 0 00.6-1.345c-.105-.143-.267-.143-.392-.237a4.68 4.68 0 00-3.434.119 1.58 1.58 0 00.286 1.226z" fill="#fff"/><path data-name="Path 3161" d="M66.253 24.346a9.574 9.574 0 00.031 1.4.709.709 0 00.461.348l.03-.317c.075-.442-.162-.911.088-1.284a3.015 3.015 0 01.5.223 1.091 1.091 0 00-.424-1.139l-.684.767z" fill="#fff"/><path data-name="Path 3162" d="M67.79 23.672a3.673 3.673 0 00-.13 2.393 2.818 2.818 0 00.491-.373 2.585 2.585 0 01.237-1.7 1.105 1.105 0 01.628.672 1.15 1.15 0 00.194-.97c.012-.274-.3-.211-.448-.324.049-.23.043-.5.286-.628l-.746.074a3.517 3.517 0 00-.511.852z" fill="#fff"/><path data-name="Path 3163" d="M69.327 25.822c.032.056 0 .156.063.168.092-.523.516-.861.747-1.323.111-.154.106-.373.286-.491.243 0 .417.174.654.193.074.056-.038.106-.045.168a6.094 6.094 0 00-.18 1.21h.043a6.371 6.371 0 00.8-1.123l.043-.354c.056-.424-.4-.7-.7-.871l.269-.343-.374-.13a1.7 1.7 0 00-1.133.567 5.061 5.061 0 00-.467 2.329z" fill="#fff"/><path data-name="Path 3164" d="M71.002 22.129c.142.043.273-.074.416-.013a3.789 3.789 0 011.6.908l.509 1.3.255-.8-.168-.436c-.143-.31-.535-.285-.8-.3-.112-.126.006-.269.044-.386.13-.442-.411-.417-.628-.6.013-.267-.311-.174-.492-.2l-.062-.074a.126.126 0 00-.181-.013c-.011-.019-.037-.032-.025-.062l-.136.03a.877.877 0 00-.33.642z" fill="#fff"/><path data-name="Path 3165" d="M71.361 20.694a.406.406 0 00.131.211c.28-.074.549-.268.871-.149a4.91 4.91 0 001.357.951l.181-.031c.111.037.235.043.31.168.07.168-.105.267-.16.4.279.205.168.573.341.822l.448-.6c-.105-.262.006-.71-.4-.735a.392.392 0 01-.225-.361c-.267-.243-.6-.348-.864-.6-.219-.173-.349-.441-.628-.5a2.308 2.308 0 00-.629-.211c-.417-.063-.454.435-.729.629z" fill="#fff"/><path data-name="Path 3166" d="M71.96 19.471l.075.12c.311-.019.59-.156.9-.15.206.124.473.117.684.224a2.384 2.384 0 00.6.646c.5.075.784.618.959 1.015v-.192a1.345 1.345 0 00-.105-.823c-.125-.124-.306-.2-.436-.316a.26.26 0 01.019-.193 4.155 4.155 0 00-.716-.479c-.33-.479-.964-.348-1.468-.479l-.5.628z" fill="#fff"/><path data-name="Path 3167" d="M71.949 14.906c.056.194.123.436.161.642.173-.386.517-.561.822-.878a1.586 1.586 0 00-.584-.211v-.013c-.138.137-.349.275-.4.46z" fill="#fff"/><path data-name="Path 3168" d="M73.08 16.954l.279-.286a1.767 1.767 0 00.554-.984.8.8 0 00-.652.032 7.856 7.856 0 00-.181 1.238z" fill="#fff"/><path data-name="Path 3169" d="M73.284 17.832a1.805 1.805 0 001.2-.132l.349-1.119c-.113-.007-.225-.057-.331-.019a2.722 2.722 0 01-1.214 1.27z" fill="#fff"/><path data-name="Path 3170" d="M73.406 13.862a2.515 2.515 0 001.225 1c-.055-.523-.5-.884-.733-1.332l-.013-.15a2.3 2.3 0 00-.585-.386 2.915 2.915 0 00.106.865z" fill="#fff"/><path data-name="Path 3171" d="M74.928 17.882a2.216 2.216 0 00.99-.094c.442-.106.685-.591.834-.97h-.554l-.6.584a4.462 4.462 0 00-.673.479z" fill="#fff"/><path data-name="Path 3172" d="M74.86 13.295a3.641 3.641 0 00.58 1.344l.074-.927-.654-.418z" fill="#fff"/><path data-name="Path 3173" d="M76.9 15.716a4.55 4.55 0 00-.129-.989c-.187-.125-.448-.112-.641-.236a1.832 1.832 0 00.77 1.225z" fill="#fff"/><path data-name="Path 3174" d="M76.334 18.877a6.138 6.138 0 001.134-.46c.23-.33.578-.628.628-1.014-.287.08-.535-.013-.8.118a2.054 2.054 0 01-.573.834c-.049.211-.279.354-.386.522z" fill="#fff"/><path data-name="Path 3175" d="M76.944 19.642l.467.61a.946.946 0 00.777-.086l-.166-.554a2.169 2.169 0 01-1.078.03z" fill="#fff"/><path data-name="Path 3176" d="M77.722 15.237l.18.821a1.647 1.647 0 00.513-1.418 1.929 1.929 0 01-.693.6z" fill="#fff"/><path data-name="Path 3177" d="M78.948 16.687a.587.587 0 00.105.324c.485.174.535.765.984.989a1.1 1.1 0 00.882-.15c-.192-.217-.41-.367-.6-.6-.13-.056-.261-.136-.255-.3l-1.119-.268z" fill="#fff"/><path data-name="Path 3178" d="M79.334 19.625a1.451 1.451 0 00.8.435c-.05-.069.031 0 .044-.043l-.373-.823c-.187.007-.381.045-.554.033a1.656 1.656 0 00.087.4z" fill="#fff"/><path data-name="Path 3179" d="M79.993 15.791a4.877 4.877 0 01-.3-1.345c-.186.224-.38.368-.555.6-.08.46.578.573.852.747z" fill="#fff"/><path data-name="Path 3180" d="M80.75 15.367c.225.294.716.193.99.106-.131-.224-.552-.356-.627-.6a5.327 5.327 0 00-.268-1.238 1.766 1.766 0 00-.1 1.729z" fill="#fff"/><path data-name="Path 3181" d="M81.144 16.687a2.556 2.556 0 002.1.791c.062-.043.168-.038.181-.118-.255-.162-.529-.287-.791-.436l-.3-.436h-.136a5.436 5.436 0 01-1.059.2z" fill="#fff"/><path data-name="Path 3182" d="M81.157 21.734h.045a3.3 3.3 0 011.255-.523c.119.044.045.174.151.223.267-.111.59-.087.864-.18a1.862 1.862 0 01.865.161c.213.281.609.249.884.436l-.045-.436a2.8 2.8 0 00-2.315-.715l-.014-.082a1.494 1.494 0 00-.61.13 3.173 3.173 0 00-.778.224 7.349 7.349 0 00-.3.765z" fill="#fff"/><path data-name="Path 3183" d="M81.656 14.086a1.052 1.052 0 001.015.479 1.179 1.179 0 01-.467-.716c.062-.555-.548-.6-.846-.884a3.807 3.807 0 00.3 1.12z" fill="#fff"/><path data-name="Path 3184" d="M81.593 22.835h.074c.329-.2.809-.049 1.132-.267.181-.094.193.156.317.223.3.186.343.747.772.616.515.267.386.9.4 1.356l.479-.3c-.044-.243.094-.535-.062-.747-.119-.268-.443-.292-.6-.509.187-.318-.236-.469-.324-.7l.025-.03.66.087a.982.982 0 01.373.616c.516.087.64.672.821 1.045.106-.254.149-.529.255-.778.007-.2-.268-.2-.4-.3a1.109 1.109 0 00-.46-.809 6.793 6.793 0 00-1.7-.46l-.523.161c-.287.069-.592-.019-.809.18-.324.026-.348.38-.429.61z" fill="#fff"/><path data-name="Path 3185" d="M81.922 20.271l.118.057c.256-.119.51-.255.778-.355.416-.118.74.355 1.089.055.13-.092.243.045.341.119.151.273.5.254.761.328-.132-.354-.294-.839-.747-.9a4.412 4.412 0 01-.566-.181c-.479-.529-.791.436-1.314.2a1.454 1.454 0 00-.46.672z" fill="#fff"/><path data-name="Path 3186" d="M82.04 23.301c.2.168.4.454.716.417.386.18.224.691.435.959l.224-.2-.019-.013.032-.031.013.018a1.185 1.185 0 00-.132-.734c-.142-.1-.31.007-.448-.087a.62.62 0 00-.286-.422c-.1-.077-.23.024-.342.017l-.193.074z" fill="#fff"/><path data-name="Path 3187" d="M82.818 15.717a3.231 3.231 0 00.921.791 1.481 1.481 0 00.884.086 5.671 5.671 0 01-.735-.727c-.087-.125-.106-.281-.224-.392a1.732 1.732 0 00-.846.243z" fill="#fff"/><path data-name="Path 3188" d="M83.163 13.489c.285.354.727.211 1.132.223v-.044l-.622-.523a1.646 1.646 0 00-.509.343z" fill="#fff"/><path data-name="Path 3189" d="M71.709 7.621l.36 1.12c-.007-.636.287-1.165.225-1.811l.267-.4-.567.175a2.109 2.109 0 00-.286.915z" fill="#fff"/><path data-name="Path 3190" d="M71.949 5.68l.492-.286v-.729a2.666 2.666 0 00-.479.5l-.013.511z" fill="#fff"/><path data-name="Path 3191" d="M82.042 6.811a.689.689 0 01-.448.224 2.124 2.124 0 00.181-1.686 2.527 2.527 0 00.416-.149l-.013-.013.343-.3c.453-.311.279-.9.448-1.345-.224-.348-.293-.771-.616-1.064l.019-.013c-.255-.324-.716-.286-1.064-.448-.461-.156-.816.162-1.146.373-.143.025-.056.211-.211.2a6.266 6.266 0 00-.255.735 2.486 2.486 0 00-1.773.33 2.579 2.579 0 00-.884-.318c-.224-.045-.479.037-.64-.087-.237-.267-.287-.753-.692-.821-.144-.051-.174-.207-.174-.343-.268-.045-.5-.168-.765-.224-.4-.181-.715.106-1.014.3a3.008 3.008 0 00-.4.148 5.834 5.834 0 00-.579 1.09 2.3 2.3 0 00.342.865 1.755 1.755 0 00.97.884 3.675 3.675 0 000 1.972l-.01.007-.02.019a.324.324 0 01-.172-.019h-.01a2.723 2.723 0 00.821 1.562c.162.056.124.249.192.373a.292.292 0 01.032.224 4.888 4.888 0 00-2.615.654c-.2.1-.112.373-.13.566a4.8 4.8 0 011.792-.747 2.742 2.742 0 01.865-.013l.031.537a7.866 7.866 0 00-2.183 1.245 2.43 2.43 0 00.031.578l.567-.461a6.716 6.716 0 011.747-1 2.219 2.219 0 00.567.535 4.194 4.194 0 011.225-.535c.23-.137.6-.013.747-.286l.105-.567c-.018-.013-.031-.038-.062-.032a.855.855 0 01-.461-.8.838.838 0 01-.33.086c-.1-.024-.192-.049-.237-.15-.005-.124-.069-.311.057-.4a2.42 2.42 0 011.438-.225c.379.051.927.031 1.059.479-.019.132-.007.275-.138.362s-.292-.007-.416-.063a1.034 1.034 0 01-.609.747l.043.36c.043.162.056.43.311.373a5.507 5.507 0 011.63.778 3.743 3.743 0 00.435-.554 8.17 8.17 0 012.478 1.644l.03-.523a8.473 8.473 0 00-2.359-1.45 3.3 3.3 0 00.076-.511 6.122 6.122 0 012.743.84l-.013-.448a6.09 6.09 0 00-2.824-.778.308.308 0 01-.044-.193 1.382 1.382 0 00.971-1.045c.256-.293.622-.61.535-1.045.011-.037.024-.074.037-.112a.517.517 0 00.026-.324z" fill="#fff"/><path data-name="Path 3192" d="M82.907 8.411l.509-.162.057-.286c.142-.418-.162-.728-.311-1.059l-.255 1.506z" fill="#fff"/><path data-name="Path 3193" d="M84.195 10.383c.243.268.479.7.909.567a2.676 2.676 0 00-.193-.492c-.112-.13-.15-.5-.373-.373-.169-.112-.211-.3-.318-.447a4.306 4.306 0 00-.025.746z" fill="#fff"/><path data-name="Path 3194" d="M84.282 12.206c.094.13.119.3.211.418a1.011 1.011 0 00.624.074c.186-.044.3.161.477.043-.217-.136-.348-.386-.553-.566-.243-.192-.5-.024-.76.031z" fill="#fff"/><path data-name="Path 3195" d="M84.612 15.101a2.406 2.406 0 001.549.416c.062-.031.168-.025.18-.1-.355-.125-.727-.479-1.1-.554-.2-.317-.473.08-.735.056.006.074.08.13.106.181z" fill="#fff"/><path data-name="Path 3196" d="M85.904 20.595l.094.2c.094.648.5 1.245.279 1.954.188.132.243.349.362.523h.031a4.178 4.178 0 00-.031-1.642c.056-.492-.442-.779-.735-1.033z" fill="#fff"/><path data-name="Path 3197" d="M86.012 14.223a1.391 1.391 0 001.213.149 3.841 3.841 0 01-.69-.448l-.523.3z" fill="#fff"/><path data-name="Path 3198" d="M87.547 16.132a.684.684 0 00.33.611 1.448 1.448 0 00.192-.461 1.148 1.148 0 00-.447-.692 1.554 1.554 0 00-.075.541z" fill="#fff"/><path data-name="Path 3199" d="M87.567 18.971c-.045.293.279.33.416.492.113.136-.075.23-.075.36a1.684 1.684 0 01.375 1.058 10.556 10.556 0 00.285-1.132c-.025-.275-.46-.217-.392-.522a1.353 1.353 0 00-.106-.9c-.024-.043-.081-.13-.13-.105-.112.254-.392.435-.373.746z" fill="#fff"/><path data-name="Path 3200" d="M88.419 17.49l.324.628c.142-.019.236-.156.348-.255.087-.261-.143-.429-.211-.642-.056-.149 0-.348-.106-.477-.08-.051-.173-.132-.267-.107l-.087.853z" fill="#fff"/><path data-name="Path 3201" d="M88.835 15.834a1.812 1.812 0 01.685.654c.218.635.566 1.207.822 1.823.093.43.168.813.285 1.235.045.112.019.33.194.311.049-.473.143-.928.15-1.419a1.847 1.847 0 00-.555-.417v-.044c.025-.105.113-.23.243-.211.055-.063.224-.124.149-.237-.324-.324-.305-.88-.821-.981a.473.473 0 01-.243-.435 1.477 1.477 0 00-.909-.281z" fill="#fff"/><path data-name="Path 3202" d="M89.139 19.207c.316.293.205.715.18 1.108-.049.237.249.1.342.224a1.357 1.357 0 01.013 1.015 6.054 6.054 0 00.491-.761c-.005-.105.132-.156.126-.286.056-.18-.156-.1-.243-.118s-.156-.068-.13-.168a1.524 1.524 0 00-.051-.995c-.074-.256.032-.6-.087-.823-.2.275-.791.336-.64.8z" fill="#fff"/><path data-name="Path 3203" d="M89.713 14.79c.554.56.959 1.123 1.556 1.664a7.031 7.031 0 00-.031-.7 1.628 1.628 0 00-.388-.417c-.441-.043-.671-.638-1.138-.544z" fill="#fff"/><path data-name="Path 3204" d="M91.162 17.753a.874.874 0 00.064.162 8.1 8.1 0 01.641 1.238c-.051-.461.261-1.032-.15-1.387-.056-.15-.241-.1-.36-.088l-.194.074z" fill="#fff"/><path data-name="Path 3205" d="M92.652 22.3c.174.081.4-.062.567-.162a.514.514 0 01.4.132c.049.1 0 .192.019.286a3.775 3.775 0 011.069.46l.106-.106a.732.732 0 00-.386-.61c-.13-.075-.324-.031-.416-.15a.651.651 0 00.055-.36.9.9 0 01-.5-.162c-.106-.032-.2-.119-.287 0-.312.211-.33.522-.629.672z" fill="#fff"/><path data-name="Path 3206" d="M93.092 14.47a1.13 1.13 0 00.448-.2c.418-.38 1.02-.124 1.506-.13a3.344 3.344 0 00-.343-.479 1.427 1.427 0 00-.535-.149c-.424-.249-.709.168-1.033.373a.692.692 0 00-.043.586z" fill="#fff"/><path data-name="Path 3207" d="M93.103 15.748c0-.019 0-.038.019-.043.057.049-.006.168.087.192a3.635 3.635 0 00.461-.3c.417 0 .666-.4 1.076-.4a6.21 6.21 0 011.96.6 1.342 1.342 0 00-.746-.951.511.511 0 00-.5.149c-.416.262-.2-.38-.491-.392a3.091 3.091 0 01-1.2.211c-.249.094-.424.324-.7.3a1.6 1.6 0 00.03.641z" fill="#fff"/><path data-name="Path 3208" d="M93.391 17.138c.13.138.348.112.535.138l.541-.212c.006-.1-.162-.124-.124-.237.149-.168.354-.049.541-.118.26-.037.529-.3.79-.106-.007.032.011.075-.013.106-.081.193.056.311.205.386.3.056.59.336.895.211a5.484 5.484 0 00-.161-.734c-.255-.044-.436-.255-.672-.342a.507.507 0 01-.373.162c-.479-.113-1.053-.412-1.537-.106-.175.212-.486.15-.723.243a2.746 2.746 0 00.094.61z" fill="#fff"/><path data-name="Path 3209" d="M93.596 20.838c-.037.106-.144.279.051.33.4.012.908-.193 1.219.118.106.081.056.249.049.356l.523.435a4.447 4.447 0 00.15-.778.871.871 0 00-.317-.522c-.343 0-.541-.4-.91-.352-.192-.043-.36.128-.554.128a3.054 3.054 0 00-.211.286z" fill="#fff"/><path data-name="Path 3210" d="M93.745 17.903c.081.168.175.442.33.461a1.772 1.772 0 011.313-.086c.136.024.136.18.106.279.211.124.466.224.69.36l-.062-.373c-.013-.4-.523-.442-.554-.84a2.458 2.458 0 00-1.326-.074c-.143.13-.349.113-.522.149-.013.049.017.081.024.124z" fill="#fff"/><path data-name="Path 3211" d="M93.85 19.919c.243-.069.4-.335.661-.361a1.219 1.219 0 011 .511c.149.1.118.354.311.354a6.158 6.158 0 01.03-.9c-.26-.435-.908-.1-1.151-.61l-.46.032c-.33.081-.243.467-.285.729-.038.08-.113.143-.107.241z" fill="#fff"/><path data-name="Path 3212" d="M96.136 22.642c.192.386.616.678.659 1.119a1.981 1.981 0 00.236-.386c-.006-.124-.149-.124-.2-.223-.057-.162.03-.3.055-.448a1.22 1.22 0 00-.492-.585l-.254.523z" fill="#fff"/><path data-name="Path 3213" d="M96.901 21.658l.448.611a1.608 1.608 0 00.118-1.12c-.043-.069-.124-.181-.235-.13-.168.174-.194.442-.33.64z" fill="#fff"/><path data-name="Path 3214" d="M95.077 4.625a1.3 1.3 0 00.511.168.651.651 0 01.461-.074c.23.149.509-.031.778-.019a2.885 2.885 0 00-.778-.491c-.35.074-.629.324-.971.417z" fill="#fff"/><path data-name="Path 3215" d="M97.506 5.21c.33.031.567.324.791.567a1.113 1.113 0 01.659.448l-.105-.329a2.117 2.117 0 00-.492-.847 2.426 2.426 0 00-.852.162z" fill="#fff"/><path data-name="Path 3216" d="M74.288 2.48l.182.019c.484.243 1.268.366 1.313 1.07a3.811 3.811 0 00-1.357.852c-.3-.3-.9-.137-1-.672.094-.5.273-1.14.865-1.27z" fill="#d3dcde"/><path data-name="Path 3217" d="M74.756 5.636c.567-.051 1.114.03 1.7-.019a.743.743 0 01.36.328c-.019.673-.224 1.314-.255 2a.917.917 0 00-.567.6 4.905 4.905 0 00-.66.311.66.66 0 01.094-.7c.243-.342.872-.262.822-.8.162-.261.007-.6.011-.87-.062-.206-.124.068-.223.062a.8.8 0 01-.578-.044c-.132-.136-.293-.249-.33-.435a1.023 1.023 0 01-.467-.4l.094-.024z" fill="#d3dcde"/><path data-name="Path 3218" d="M75.437 9.692c.267.038.547-.081.777.051a.441.441 0 01-.286.15l-.418.192c-.155-.037-.068-.286-.074-.392z" fill="#d3dcde"/><path data-name="Path 3219" d="M76.528 4.497c.267-.087.554-.267.84-.18a4.068 4.068 0 00-.523.721l-.852-.019a1.214 1.214 0 01.535-.523z" fill="#d3dcde"/><path data-name="Path 3220" d="M79.024 4.291c.354-.062.335.4.659.416.057.074.138.143.106.255a5.322 5.322 0 01-.672.087c-.281-.156-.1-.641-.541-.609-.025-.038-.074-.113-.013-.137a1.035 1.035 0 01.461-.013z" fill="#d3dcde"/><path data-name="Path 3221" d="M78.8 5.958a.85.85 0 01.616-.279l1.611.03c.068.063-.062.119-.062.193-.1.094-.243.12-.33.205-.212.006-.193.255-.342.361-.23.231-.566.124-.835.088a.743.743 0 01-.243-.268l-.075.074c.094.349.07.735.138 1.089l.386.255c.007.572.678.416.971.733a1.723 1.723 0 01-.354.554 2.119 2.119 0 00-.791-.479c-.026-.335-.392-.535-.6-.7-.057-.61-.069-1.233-.168-1.824l.074-.031z" fill="#d3dcde"/><path data-name="Path 3222" d="M79.388 9.798h.747l-.094.392-.747-.317c-.018-.062.051-.08.094-.074z" fill="#d3dcde"/><path data-name="Path 3223" d="M80.729 2.749l.554-.175a5.555 5.555 0 01.908.548 2.191 2.191 0 01.087 1.468c-.168.186-.535 0-.672.3h-.025a2.726 2.726 0 00-1.332-1.375 1.15 1.15 0 01.479-.765z" fill="#d3dcde"/></g></svg>