<svg xmlns="http://www.w3.org/2000/svg" width="116.131" height="32.315"><path d="M4.716 15.874c0 2.677.9 5.617 4.094 5.617 3.171 0 4.067-2.966 4.067-5.617 0-2.67-.888-5.583-4.067-5.583s-4.094 2.9-4.094 5.583zm-4.716 0c0-5.542 2.99-9.656 8.815-9.656s8.81 4.126 8.81 9.656-2.984 9.674-8.81 9.674S0 21.423 0 15.874zm20.786 9.061V6.865h4.318v3.092c1.092-2.212 3.038-4.029 5.692-3.569l.017 4.9h-1.552c-2.626 0-3.82 1.559-3.82 4.091v9.554zm22.536-2.241a6.289 6.289 0 01-5.617 2.888 5.393 5.393 0 01-5.526-5.753c0-3.7 2.891-5.235 6.148-5.753.48-.074 1.108-.165 1.889-.261 1.976-.267 2.958-.862 2.958-1.782 0-1.779-1.2-2.021-2.844-2.042-1.539-.02-2.467.825-3.281 2.292l-3.673-2.176c1.1-2.62 4.079-3.683 6.79-3.888 3.422-.26 7.984 1.59 7.984 5.806v12.911h-4.83v-2.241zm-.082-6.654a12.043 12.043 0 01-2.614.885c-1.038.232-2.507.432-3.254 1.26a2.243 2.243 0 001.818 3.693 3.8 3.8 0 004.05-4.125V16.04zm8.521 8.9V6.87h4.558v2.145a6.331 6.331 0 015.262-2.627c4.021 0 5.742 2.378 5.742 6.235V24.94h-4.656V14.015c0-1.946-.41-3.608-2.685-3.608-2.3 0-3.564 1.6-3.564 3.807v10.723zm23.362-9.327c0 2.49.794 5.27 3.788 5.27 3.046 0 3.777-2.823 3.777-5.339s-.877-5.186-3.837-5.186c-2.929 0-3.728 2.836-3.728 5.254zm-4.2 11.075l5.088-.017c.334 1.376 1.473 1.81 2.783 1.81 3.149 0 3.9-1.513 3.9-4.488v-1.611a5.068 5.068 0 01-4.847 2.558c-5.186 0-7.434-4.553-7.434-9.157 0-4.622 2.009-9.56 7.358-9.56a5.313 5.313 0 015.022 2.825V6.87h4.41v16.873a14.019 14.019 0 01-.513 4.34c-1.163 3.436-4.908 4.238-8.122 4.238-3.719 0-7.383-1.431-7.642-5.633zm31.7-7.658l3.8 2.243c-1.288 2.624-5.049 4.28-7.815 4.28a7.4 7.4 0 01-5.982-2.632 10.876 10.876 0 01-2.468-7.143c0-5.127 2.763-9.554 8.385-9.554a7.623 7.623 0 016.384 2.81c1.606 2.073 2.057 4.975 1.683 8.146H95.131c.107 2.316 1.085 4.283 3.691 4.283a4.372 4.372 0 003.793-2.432zm-7.484-5.479h7.08c.015-2.011-1.236-3.287-3.58-3.287-2.272 0-3.52 1.228-3.5 3.287zm10.3-7.069h1.355V1.164h1.941V.007h-5.254v1.157h1.954v5.318zm4.077 0V.007h2l1.309 4.928 1.293-4.928h2.012v6.475h-1.269V1.26l-1.337 5.222h-1.386l-1.355-5.222v5.222z" fill="#d3dcde" fill-rule="evenodd"/></svg>