<svg xmlns="http://www.w3.org/2000/svg" width="119.802" height="28.838"><g fill="#d3dcde"><path data-name="Path 3075" d="M39.571 9.583H34.84v19.208h19.372v-4.216H39.571z"/><path data-name="Path 3076" d="M28.451 9.538H9.428v19.283h4.79v-3.986h1.557c3.881 0 7.765-.031 11.648.019a2.711 2.711 0 002.24-1 10.171 10.171 0 00-1.212-14.316zm-1.554 10.876H14.315v-6.4h12.528a6.7 6.7 0 01.054 6.4z"/><path data-name="Path 3077" d="M67.494 9.537l-12.223 19.3h5.39l2.12-3.083h14.931l1.875 3.038h5.681L73.135 9.537zM65.34 21.246l4.986-8.016c1.653 2.73 3.206 5.3 4.848 8.016z"/><path data-name="Path 3078" d="M95.851 20.731q-4.526-5.743-8.817-11.182h-6.323c4.136 5.16 8.075 10.08 12.052 15.043-1.026 1.386-2.008 2.718-3.131 4.233h5.782L110.53 9.536h-6.226c-2.819 3.735-5.621 7.442-8.453 11.195z"/><path data-name="Path 3080" d="M119.8 0H0v.054h119.8z"/></g></svg>