<svg xmlns="http://www.w3.org/2000/svg" width="166.149" height="29.074"><path d="M166.147 13.194a9.053 9.053 0 01-.247 2.687 7.545 7.545 0 00-2.441-.244c-.734 0-1.468.244-2.2.244v12.216h-3.174V13.926a17.545 17.545 0 015.376-.977 9.149 9.149 0 012.686.245zm-21.259 6.107h7.331a3.464 3.464 0 00-3.669-3.664q-3.288 0-3.659 3.664zm10.259 2.688h-10.009c.239 2.688 1.707 3.909 4.643 3.909a13.156 13.156 0 005.129-1.221 12.077 12.077 0 00-.487 2.932 10.611 10.611 0 01-4.642.977c-5.376 0-8.065-2.932-8.065-7.818 0-4.4 2.193-7.819 7.083-7.819 4.643 0 6.6 2.932 6.6 6.6-.003.973-.252 1.705-.252 2.44zm-19.057 2.932v-9.04c-.734 0-1.707-.244-2.441-.244-3.175 0-4.643 1.954-4.643 5.374 0 2.932 1.221 4.887 3.909 4.887a6.911 6.911 0 003.177-.977zm3.174-16.858v20.035h-2.927l-.247-1.71a4.452 4.452 0 01-4.148 2.2c-3.669 0-6.11-2.932-6.11-7.574 0-5.131 2.688-8.063 7.817-8.063.982 0 1.707.245 2.441.245V8.554a7.219 7.219 0 013.176-.492zm-16.117 10.505v9.529h-3.175v-9.043c0-2.2-.734-3.42-3.909-3.42-.734 0-1.468.244-2.449.244v12.216h-3.174V13.926a26.736 26.736 0 015.863-.977c5.135-.001 6.844 2.199 6.844 5.619zm-19.3 6.353v-9.04c-.734 0-1.468-.244-2.193-.244-3.422 0-4.89 2.2-4.89 5.374 0 2.932 1.22 4.887 3.909 4.887a4.506 4.506 0 003.168-.977zm3.175-10.995v14.171h-2.928l-.247-1.71a4.322 4.322 0 01-3.909 2.2c-3.909 0-6.349-2.932-6.349-7.574 0-5.131 2.688-8.063 8.065-8.063a13.119 13.119 0 015.362.976zm-17.1 11.972a8.783 8.783 0 002.688-.488c-.239.733-.239 1.71-.486 2.687a8.763 8.763 0 01-2.689.488c-2.935 0-4.89-1.466-4.89-4.886V8.554a12.291 12.291 0 012.936-.489v5.375h5.129c0 .977-.239 1.954-.239 2.687h-4.89v7.086c-.009 1.952.972 2.685 2.432 2.685zm-8.55-7.33v9.529h-3.185v-9.043c0-2.2-.733-3.42-3.909-3.42-.734 0-1.71.244-2.688.244v12.216h-3.176V13.926a32.329 32.329 0 015.864-.977c5.374-.001 7.085 2.199 7.085 5.619zm-19.546 6.353v-9.04c-.489 0-1.222-.244-2.2-.244-3.176 0-4.887 2.2-4.887 5.374 0 2.932 1.222 4.887 4.154 4.887a3.9 3.9 0 002.924-.977zm3.176-10.995v14.171H62.07v-1.71a5.067 5.067 0 01-4.153 2.2c-3.665 0-6.353-2.932-6.353-7.574 0-5.131 2.689-8.063 8.063-8.063a11.769 11.769 0 015.366.976zM36.415 27.609a10.485 10.485 0 01.489-2.932 13.927 13.927 0 005.375.977c2.687 0 4.154-.733 4.154-2.443s-1.221-2.443-3.91-3.665l-1.476-.492c-2.689-1.222-4.4-2.688-4.4-5.863s2.2-5.376 6.842-5.376a16.229 16.229 0 015.131.734 9.11 9.11 0 01-.489 2.932 16.583 16.583 0 00-4.641-.733c-2.443 0-3.665.977-3.665 2.443s.977 2.443 3.176 3.176l1.467.733c3.664 1.466 5.131 3.176 5.131 5.864 0 3.42-2.443 5.619-7.33 5.619a13.353 13.353 0 01-5.863-.975zM21.999 13.438a12.06 12.06 0 00-.977-3.176l-4.896-8.308A16.907 16.907 0 0115.393 0v.488a6.392 6.392 0 000 6.6l3.665 6.6a6.4 6.4 0 010 6.6l-.245.489a3.944 3.944 0 00-.733-2.2l-3.42-6.107-2.2-3.665a3.938 3.938 0 01-.733-2.2l-.245.488a6.39 6.39 0 000 6.6l3.909 6.6a7.782 7.782 0 010 6.6l-.245.488a16.564 16.564 0 00-.733-1.954l-4.887-8.308a6.9 6.9 0 01-.977-3.665c-5.131 1.221-8.551 4.154-8.551 7.33 0 4.642 6.842 8.307 15.393 8.307 8.308 0 15.149-3.665 15.149-8.307.007-3.193-3.419-6.13-8.551-7.347z" fill="#d3dcde"/></svg>