<?xml version="1.0" encoding="utf-8"?>
<!-- Generator: Adobe Illustrator 23.0.6, SVG Export Plug-In . SVG Version: 6.00 Build 0)  -->
<svg version="1.1" id="Warstwa_1" xmlns="http://www.w3.org/2000/svg" xmlns:xlink="http://www.w3.org/1999/xlink" x="0px" y="0px"
	 viewBox="0 0 13 9" style="enable-background:new 0 0 13 9;" xml:space="preserve">
<style type="text/css">
	.st0{fill:#1A1A1A;}
</style>
<g id="align-center" transform="translate(0.5 0.5)">
	<g id="Line_110">
		<path class="st0" d="M10,3.2H2c-0.3,0-0.5-0.2-0.5-0.5S1.7,2.2,2,2.2h8c0.3,0,0.5,0.2,0.5,0.5S10.3,3.2,10,3.2z"/>
	</g>
	<g id="Line_111">
		<path class="st0" d="M12,0.5H0c-0.3,0-0.5-0.2-0.5-0.5S-0.3-0.5,0-0.5h12c0.3,0,0.5,0.2,0.5,0.5S12.3,0.5,12,0.5z"/>
	</g>
	<g id="Line_112">
		<path class="st0" d="M12,5.8H0c-0.3,0-0.5-0.2-0.5-0.5S-0.3,4.8,0,4.8h12c0.3,0,0.5,0.2,0.5,0.5S12.3,5.8,12,5.8z"/>
	</g>
	<g id="Line_113">
		<path class="st0" d="M10,8.5H2C1.7,8.5,1.5,8.3,1.5,8S1.7,7.5,2,7.5h8c0.3,0,0.5,0.2,0.5,0.5S10.3,8.5,10,8.5z"/>
	</g>
</g>
</svg>
