<?xml version="1.0" encoding="utf-8"?>
<!-- Generator: Adobe Illustrator 23.0.6, SVG Export Plug-In . SVG Version: 6.00 Build 0)  -->
<svg version="1.1" id="Warstwa_1" xmlns="http://www.w3.org/2000/svg" xmlns:xlink="http://www.w3.org/1999/xlink" x="0px" y="0px"
	 viewBox="0 0 22 19" style="enable-background:new 0 0 22 19;" xml:space="preserve">
<g id="book-open" transform="translate(-1 -2)">
	<g id="Path_3052">
		<path d="M13,21h-2c0-1.1-0.9-2-2-2H1V2h7c2.8,0,5,2.2,5,5V21z M3,17h6c0.7,0,1.4,0.2,2,0.5V7c0-1.7-1.3-3-3-3H3V17z"/>
	</g>
	<g id="Path_3053">
		<path d="M13,21h-2V7c0-2.8,2.2-5,5-5h7v17h-8C13.9,19,13,19.9,13,21z M16,4c-1.7,0-3,1.3-3,3v10.5c0.6-0.3,1.3-0.5,2-0.5h6V4H16z"
			/>
	</g>
</g>
</svg>
