<?xml version="1.0" encoding="utf-8"?>
<!-- Generator: Adobe Illustrator 23.0.6, SVG Export Plug-In . SVG Version: 6.00 Build 0)  -->
<svg version="1.1" id="Warstwa_1" xmlns="http://www.w3.org/2000/svg" xmlns:xlink="http://www.w3.org/1999/xlink" x="0px" y="0px"
	 viewBox="0 0 22.4 24.7" style="enable-background:new 0 0 22.4 24.7;" xml:space="preserve">
<style type="text/css">
	.st0{fill:#1A1A1A;}
</style>
<path class="st0" d="M20.8,5l-7.9-4.5c-1-0.6-2.3-0.6-3.3,0L1.6,5C0.6,5.6,0,6.7,0,7.8v9.1c0,1.2,0.6,2.2,1.6,2.8l7.9,4.5
	c0.5,0.3,1.1,0.4,1.6,0.4c0.6,0,1.1-0.1,1.6-0.4l7.9-4.5c1-0.6,1.6-1.7,1.6-2.8V7.8C22.4,6.7,21.8,5.6,20.8,5z M10.6,2.2
	C10.8,2.1,11,2,11.2,2c0.2,0,0.4,0.1,0.6,0.2l7.5,4.3l-8.1,4.7L3,6.5L10.6,2.2z M2.6,18C2.2,17.8,2,17.3,2,16.9V8.2l8.2,4.7v9.4
	L2.6,18z M19.8,18l-7.6,4.3v-9.4l8.2-4.7v8.7C20.4,17.3,20.1,17.8,19.8,18z"/>
</svg>
