<?xml version="1.0" encoding="utf-8"?>
<!-- Generator: Adobe Illustrator 23.0.6, SVG Export Plug-In . SVG Version: 6.00 Build 0)  -->
<svg version="1.1" id="Warstwa_1" xmlns="http://www.w3.org/2000/svg" xmlns:xlink="http://www.w3.org/1999/xlink" x="0px" y="0px"
	 viewBox="0 0 22 20.3" style="enable-background:new 0 0 22 20.3;" xml:space="preserve">
<style type="text/css">
	.st0{fill:#1A1A1A;}
</style>
<path class="st0" d="M16,4.3V3c0-1.7-1.3-3-3-3H9C7.3,0,6,1.3,6,3v1.3H0v16h22v-16H16z M8,3c0-0.6,0.4-1,1-1h4c0.6,0,1,0.4,1,1v1.3
	H8V3z M14,6.3v12H8v-12H14z M2,6.3h4v12H2V6.3z M20,18.3h-4v-12h4V18.3z"/>
</svg>
