<?xml version="1.0" encoding="utf-8"?>
<!-- Generator: Adobe Illustrator 23.0.6, SVG Export Plug-In . SVG Version: 6.00 Build 0)  -->
<svg version="1.1" id="Warstwa_1" xmlns="http://www.w3.org/2000/svg" xmlns:xlink="http://www.w3.org/1999/xlink" x="0px" y="0px"
	 viewBox="0 0 10.4 18" style="enable-background:new 0 0 10.4 18;" xml:space="preserve">
<style type="text/css">
	.st0{fill:#1A1A1A;}
</style>
<g id="facebook">
	<path class="st0" d="M6.5,18H3c-0.3,0-0.5-0.2-0.5-0.5v-6.3h-2C0.2,11.2,0,11,0,10.7V7.3C0,7,0.2,6.8,0.5,6.8h2v-2
		C2.5,2.1,4.7,0,7.3,0h2.5c0.3,0,0.5,0.2,0.5,0.5v3.4c0,0.3-0.2,0.5-0.5,0.5H7.3C7.1,4.4,7,4.6,7,4.8v2h2.9c0.2,0,0.3,0.1,0.4,0.2
		c0.1,0.1,0.1,0.3,0.1,0.4l-0.8,3.4C9.4,11,9.2,11.2,9,11.2H7v6.3C7,17.8,6.7,18,6.5,18z M3.5,17H6v-6.3c0-0.3,0.2-0.5,0.5-0.5h2.2
		l0.6-2.4H6.5C6.2,7.8,6,7.6,6,7.3V4.8C6,4,6.6,3.4,7.3,3.4h2V1h-2C5.2,1,3.5,2.7,3.5,4.8v2.5c0,0.3-0.2,0.5-0.5,0.5H1v2.4h2
		c0.3,0,0.5,0.2,0.5,0.5V17z"/>
</g>
</svg>
