<?xml version="1.0" encoding="utf-8"?>
<!-- Generator: Adobe Illustrator 23.0.6, SVG Export Plug-In . SVG Version: 6.00 Build 0)  -->
<svg version="1.1" id="Warstwa_1" xmlns="http://www.w3.org/2000/svg" xmlns:xlink="http://www.w3.org/1999/xlink" x="0px" y="0px"
	 viewBox="0 0 15.4 15.4" style="enable-background:new 0 0 15.4 15.4;" xml:space="preserve">
<style type="text/css">
	.st0{fill:#1A1A1A;}
</style>
<path class="st0" d="M7.7,0C3.5,0,0,3.5,0,7.7v1.6v3.2v0.8c0,1.2,0.9,2.1,2.1,2.1h0.8c1.2,0,2.1-0.9,2.1-2.1v-2.4
	c0-1.2-0.9-2.1-2.1-2.1H1V7.7C1,4,4,1,7.7,1s6.7,3,6.7,6.7v1.1h-1.9c-1.2,0-2.1,0.9-2.1,2.1v2.4c0,1.2,0.9,2.1,2.1,2.1h0.8
	c1.2,0,2.1-0.9,2.1-2.1v-0.8V9.3V7.7C15.4,3.5,11.9,0,7.7,0z M2.9,9.8c0.6,0,1.1,0.5,1.1,1.1v2.4c0,0.6-0.5,1.1-1.1,1.1H2.1
	c-0.6,0-1.1-0.5-1.1-1.1v-0.8V9.8H2.9z M14.4,13.3c0,0.6-0.5,1.1-1.1,1.1h-0.8c-0.6,0-1.1-0.5-1.1-1.1v-2.4c0-0.6,0.5-1.1,1.1-1.1
	h1.9v2.7V13.3z"/>
</svg>
