<?xml version="1.0" encoding="utf-8"?>
<!-- Generator: Adobe Illustrator 23.0.6, SVG Export Plug-In . SVG Version: 6.00 Build 0)  -->
<svg version="1.1" id="Warstwa_1" xmlns="http://www.w3.org/2000/svg" xmlns:xlink="http://www.w3.org/1999/xlink" x="0px" y="0px"
	 viewBox="0 0 18 18" style="enable-background:new 0 0 18 18;" xml:space="preserve">
<style type="text/css">
	.st0{fill:#1A1A1A;}
</style>
<g id="instagram" transform="translate(-1.434 -1.434)">
	<g id="Rectangle_3981">
		<path class="st0" d="M13.9,19.4h-7c-3,0-5.5-2.5-5.5-5.5v-7c0-3,2.5-5.5,5.5-5.5h7c3,0,5.5,2.5,5.5,5.5v7
			C19.4,17,17,19.4,13.9,19.4z M6.9,2.4c-2.5,0-4.5,2-4.5,4.5v7c0,2.5,2,4.5,4.5,4.5h7c2.5,0,4.5-2,4.5-4.5v-7c0-2.5-2-4.5-4.5-4.5
			H6.9z"/>
	</g>
	<g id="Path_3037">
		<path class="st0" d="M10.4,14.2c-1.9,0-3.5-1.4-3.8-3.3C6.3,8.8,7.8,6.8,9.9,6.5c0.4-0.1,0.8-0.1,1.1,0c1.7,0.3,3,1.6,3.2,3.2l0,0
			c0.2,1-0.1,2-0.7,2.9C12.9,13.5,12,14,11,14.2C10.8,14.2,10.6,14.2,10.4,14.2z M10.4,7.5c-0.1,0-0.3,0-0.4,0
			c-1.6,0.2-2.6,1.7-2.4,3.2c0.2,1.6,1.7,2.6,3.2,2.4c0.8-0.1,1.4-0.5,1.9-1.1c0.5-0.6,0.6-1.4,0.5-2.1l0,0
			c-0.2-1.3-1.2-2.2-2.4-2.4C10.7,7.5,10.6,7.5,10.4,7.5z"/>
	</g>
	<g id="Line_115">
		<path class="st0" d="M15,6.3c-0.3,0-0.5-0.2-0.5-0.5s0.2-0.5,0.5-0.5h0c0.3,0,0.5,0.2,0.5,0.5S15.3,6.3,15,6.3z"/>
	</g>
</g>
</svg>
