<?xml version="1.0" encoding="utf-8"?>
<!-- Generator: Adobe Illustrator 23.0.6, SVG Export Plug-In . SVG Version: 6.00 Build 0)  -->
<svg version="1.1" id="Warstwa_1" xmlns="http://www.w3.org/2000/svg" xmlns:xlink="http://www.w3.org/1999/xlink" x="0px" y="0px"
	 viewBox="0 0 21 20" style="enable-background:new 0 0 21 20;" xml:space="preserve">
<g id="linkedin" transform="translate(-1.5 -1.5)">
	<g id="Path_3048">
		<path d="M22,21.5h-4c-0.3,0-0.5-0.2-0.5-0.5v-7c0-0.8-0.7-1.5-1.5-1.5s-1.5,0.7-1.5,1.5v7c0,0.3-0.2,0.5-0.5,0.5h-4
			c-0.3,0-0.5-0.2-0.5-0.5v-7c0-3.6,2.9-6.5,6.5-6.5s6.5,2.9,6.5,6.5v7C22.5,21.3,22.3,21.5,22,21.5z M18.5,20.5h3V14
			c0-3-2.5-5.5-5.5-5.5S10.5,11,10.5,14v6.5h3V14c0-1.4,1.1-2.5,2.5-2.5s2.5,1.1,2.5,2.5V20.5z"/>
	</g>
	<g id="Rectangle_4111">
		<path d="M6,21.5H2c-0.3,0-0.5-0.2-0.5-0.5V9c0-0.3,0.2-0.5,0.5-0.5h4c0.3,0,0.5,0.2,0.5,0.5v12C6.5,21.3,6.3,21.5,6,21.5z
			 M2.5,20.5h3v-11h-3V20.5z"/>
	</g>
	<g id="Ellipse_176">
		<path d="M4,6.5C2.6,6.5,1.5,5.4,1.5,4S2.6,1.5,4,1.5S6.5,2.6,6.5,4S5.4,6.5,4,6.5z M4,2.5C3.2,2.5,2.5,3.2,2.5,4S3.2,5.5,4,5.5
			S5.5,4.8,5.5,4S4.8,2.5,4,2.5z"/>
	</g>
</g>
</svg>
