<?xml version="1.0" encoding="utf-8"?>
<!-- Generator: Adobe Illustrator 23.0.6, SVG Export Plug-In . SVG Version: 6.00 Build 0)  -->
<svg version="1.1" id="Warstwa_1" xmlns="http://www.w3.org/2000/svg" xmlns:xlink="http://www.w3.org/1999/xlink" x="0px" y="0px"
	 viewBox="0 0 12 12" style="enable-background:new 0 0 12 12;" xml:space="preserve">
<g id="message-square">
	<path d="M1,12c-0.1,0-0.3,0-0.4-0.1C0.2,11.7,0,11.4,0,11V2.1C0,0.9,0.9,0,2.1,0h7.8C11,0,12,0.9,12,2.1v5.5c0,1.2-0.9,2.1-2.1,2.1
		H3.6l-1.9,1.9C1.5,11.9,1.3,12,1,12z M2.1,2C2,2,2,2,2,2.1v6.5l0.5-0.5C2.7,7.9,3,7.8,3.2,7.8h6.7c0.1,0,0.1,0,0.1-0.1V2.1
		C10,2,9.9,2,9.9,2H2.1z"/>
</g>
</svg>
