<?xml version="1.0" encoding="utf-8"?>
<!-- Generator: Adobe Illustrator 23.0.6, SVG Export Plug-In . SVG Version: 6.00 Build 0)  -->
<svg version="1.1" id="Warstwa_1" xmlns="http://www.w3.org/2000/svg" xmlns:xlink="http://www.w3.org/1999/xlink" x="0px" y="0px"
	 viewBox="0 0 22 22" style="enable-background:new 0 0 22 22;" xml:space="preserve">
<style type="text/css">
	.st0{fill:#1A1A1A;}
</style>
<g id="smile" transform="translate(-1 -1)">
	<g id="Ellipse_113">
		<path class="st0" d="M12,23C5.9,23,1,18.1,1,12S5.9,1,12,1s11,4.9,11,11S18.1,23,12,23z M12,3c-5,0-9,4-9,9c0,5,4,9,9,9
			c5,0,9-4,9-9C21,7,17,3,12,3z"/>
	</g>
	<g id="Path_3018">
		<path class="st0" d="M12,18c-1.9-0.1-3.7-0.9-4.8-2.4l1.6-1.3c0.8,1,2,1.6,3.3,1.6c1.2,0,2.4-0.6,3.2-1.6l1.6,1.3
			C15.6,17.1,13.9,17.9,12,18z"/>
	</g>
</g>
</svg>
