<?xml version="1.0" encoding="utf-8"?>
<!-- Generator: Adobe Illustrator 23.0.6, SVG Export Plug-In . SVG Version: 6.00 Build 0)  -->
<svg version="1.1" id="Warstwa_1" xmlns="http://www.w3.org/2000/svg" xmlns:xlink="http://www.w3.org/1999/xlink" x="0px" y="0px"
	 viewBox="0 0 24 24.7" style="enable-background:new 0 0 24 24.7;" xml:space="preserve">
<style type="text/css">
	.st0{fill:#1A1A1A;}
</style>
<g>
	<path class="st0" d="M12.4,12.3c-3.5-0.2-6.5,2.5-6.7,6.1c0,0.2,0,0.4,0,0.7l2-0.1c0-0.1,0-0.3,0-0.4c0.1-2.4,2.2-4.3,4.6-4.2
		c2.4,0.1,4.3,2.2,4.2,4.6l2,0.1C18.7,15.5,16,12.5,12.4,12.3z"/>
	<rect x="3.5" y="9.9" transform="matrix(0.7214 -0.6925 0.6925 0.7214 -6.3928 6.177)" class="st0" width="2" height="2.2"/>
	<rect y="18.7" class="st0" width="1.9" height="2"/>
	<rect x="22.1" y="18.7" class="st0" width="1.9" height="2"/>
	<rect x="18.6" y="10" transform="matrix(0.6923 -0.7216 0.7216 0.6923 -1.8902 17.6351)" class="st0" width="2.2" height="2"/>
	<rect y="22.7" class="st0" width="24" height="2"/>
	<path class="st0" d="M11.5,3.1v5.6h2V3.9l2.2,2.3l1.4-1.4L13.5,1V0.7h-0.3l-0.4-0.4C12.6,0.1,12.4,0,12.1,0s-0.5,0.1-0.7,0.3
		L7.1,4.8l1.4,1.4L11.5,3.1z"/>
</g>
</svg>
