<?xml version="1.0" encoding="utf-8"?>
<!-- Generator: Adobe Illustrator 23.0.6, SVG Export Plug-In . SVG Version: 6.00 Build 0)  -->
<svg version="1.1" id="Warstwa_1" xmlns="http://www.w3.org/2000/svg" xmlns:xlink="http://www.w3.org/1999/xlink" x="0px" y="0px"
	 viewBox="0 0 24 19" style="enable-background:new 0 0 24 19;" xml:space="preserve">
<g id="users" transform="translate(0 -2)">
	<g id="Path_3049">
		<path d="M18,21h-2v-2c0-1.7-1.3-3-3-3H5c-1.7,0-3,1.3-3,3v2H0v-2c0-2.8,2.2-5,5-5h8c2.8,0,5,2.2,5,5V21z"/>
	</g>
	<g id="Ellipse_177">
		<path d="M9,12c-2.8,0-5-2.2-5-5s2.2-5,5-5s5,2.2,5,5S11.8,12,9,12z M9,4C7.3,4,6,5.3,6,7s1.3,3,3,3s3-1.3,3-3S10.7,4,9,4z"/>
	</g>
	<g id="Path_3050">
		<path d="M24,21h-2v-2c0-1.4-0.9-2.6-2.2-2.9l0.5-1.9c2.2,0.6,3.7,2.6,3.8,4.8V21z"/>
	</g>
	<g id="Path_3051">
		<path d="M16.2,11.8l-0.5-1.9c1.1-0.3,1.9-1.1,2.2-2.2c0.4-1.6-0.6-3.2-2.2-3.7l0.5-1.9c2.7,0.7,4.3,3.4,3.6,6.1
			C19.4,10,18,11.4,16.2,11.8z"/>
	</g>
</g>
</svg>
