<?xml version="1.0" encoding="utf-8"?>
<!-- Generator: Adobe Illustrator 23.0.6, SVG Export Plug-In . SVG Version: 6.00 Build 0)  -->
<svg version="1.1" id="Warstwa_1" xmlns="http://www.w3.org/2000/svg" xmlns:xlink="http://www.w3.org/1999/xlink" x="0px" y="0px"
	 viewBox="0 0 27.4 21.5" style="enable-background:new 0 0 27.4 21.5;" xml:space="preserve">
<style type="text/css">
	.st0{fill:#1A1A1A;}
</style>
<g>
	<path class="st0" d="M13,11.3l-7.6,0c-2.9-0.1-5.3,2.2-5.4,5.1v5.1h2l0-5.1c0.1-1.8,1.6-3.2,3.4-3.1l7.7,0c1.8,0,3.3,1.3,3.3,3.1
		v5.1h2l0-5.2C18.3,13.5,15.9,11.2,13,11.3z"/>
	<path class="st0" d="M9.2,9.2c2.5,0,4.6-2.1,4.6-4.6S11.7,0,9.2,0S4.6,2.1,4.6,4.6S6.7,9.2,9.2,9.2z M9.2,2c1.4,0,2.6,1.2,2.6,2.6
		s-1.2,2.6-2.6,2.6S6.6,6,6.6,4.6S7.8,2,9.2,2z"/>
	<polygon class="st0" points="25.9,6.4 22.5,9.8 21.2,8.5 19.8,9.9 22.5,12.7 27.4,7.9 	"/>
</g>
</svg>
