<?xml version="1.0" encoding="utf-8"?>
<!-- Generator: Adobe Illustrator 23.0.6, SVG Export Plug-In . SVG Version: 6.00 Build 0)  -->
<svg version="1.1" id="Warstwa_1" xmlns="http://www.w3.org/2000/svg" xmlns:xlink="http://www.w3.org/1999/xlink" x="0px" y="0px"
	 viewBox="0 0 15.7 10.3" style="enable-background:new 0 0 15.7 10.3;" xml:space="preserve">
<style type="text/css">
	.st0{fill:#1A1A1A;}
</style>
<path class="st0" d="M15.7,0.9L11,4.2V2.5C11,1.1,9.9,0,8.5,0h-6C1.1,0,0,1.1,0,2.5v5.3c0,1.4,1.1,2.5,2.5,2.5h6
	c1.4,0,2.5-1.1,2.5-2.5V6.1l4.7,3.3V0.9z M10,7.8c0,0.8-0.7,1.5-1.5,1.5h-6C1.7,9.3,1,8.7,1,7.8V2.5C1,1.7,1.7,1,2.5,1h6
	C9.3,1,10,1.7,10,2.5v2.4L9.6,5.2L10,5.4V7.8z M14.7,7.5l-3.3-2.4l3.3-2.4V7.5z"/>
</svg>
