<?xml version="1.0" encoding="utf-8"?>
<!-- Generator: Adobe Illustrator 23.0.6, SVG Export Plug-In . SVG Version: 6.00 Build 0)  -->
<svg version="1.1" id="Warstwa_1" xmlns="http://www.w3.org/2000/svg" xmlns:xlink="http://www.w3.org/1999/xlink" x="0px" y="0px"
	 viewBox="0 0 20 29.2" style="enable-background:new 0 0 20 29.2;" xml:space="preserve">
<style type="text/css">
	.st0{fill:#1A1A1A;}
</style>
<g>
	<path class="st0" d="M20,14.4c0-2.9-1.4-5.4-3.5-7.2l-0.4-4.1C16,1.4,14.5,0,12.7,0H7.3C5.5,0,4,1.4,3.8,3.2L3.5,7.2
		C1.3,9,0,11.6,0,14.4c0,2.8,1.3,5.4,3.4,7.1l0.4,4.5c0.2,1.8,1.6,3.2,3.5,3.2c0,0,0,0,0,0h5.4c0,0,0,0,0,0c1.8,0,3.3-1.4,3.5-3.2
		l0.4-4.5C18.7,19.8,20,17.3,20,14.4z M5.8,3.3C5.9,2.6,6.5,2,7.3,2h5.4c0,0,0,0,0,0c0.8,0,1.4,0.6,1.5,1.3l0.2,2.5
		c-1.3-0.6-2.8-1-4.4-1c-1.6,0-3.1,0.4-4.4,1L5.8,3.3z M2,14.4c0-4.1,3.6-7.5,8-7.5s8,3.4,8,7.5s-3.6,7.5-8,7.5S2,18.5,2,14.4z
		 M14.1,25.9c-0.1,0.8-0.7,1.4-1.5,1.3H7.3c-0.8,0-1.4-0.6-1.5-1.3l-0.3-3c1.3,0.6,2.9,1,4.5,1c1.6,0,3.1-0.4,4.4-1L14.1,25.9z"/>
	<polygon class="st0" points="12.5,15.8 11,14.2 11,10.9 9,10.9 9,15 11.1,17.2 	"/>
</g>
</svg>
