<?xml version="1.0" encoding="utf-8"?>
<!-- Generator: Adobe Illustrator 23.0.6, SVG Export Plug-In . SVG Version: 6.00 Build 0)  -->
<svg version="1.1" id="Warstwa_1" xmlns="http://www.w3.org/2000/svg" xmlns:xlink="http://www.w3.org/1999/xlink" x="0px" y="0px"
	 viewBox="0 0 21.3 15.3" style="enable-background:new 0 0 21.3 15.3;" xml:space="preserve">
<style type="text/css">
	.st0{fill:#1A1A1A;}
</style>
<g>
	<path class="st0" d="M20.9,2.6C20.9,2.6,20.9,2.6,20.9,2.6c-0.3-1.1-1.1-1.9-2.2-2.3C16,0.1,13.3,0,10.7,0c-0.3,0-6.4,0-8.1,0.4
		C1.5,0.7,0.7,1.6,0.4,2.7C0.1,4.3,0,6,0,7.7c0,1.7,0.1,3.4,0.4,5.1c0.3,1,1.1,1.8,2.1,2.1c1.6,0.4,7.8,0.4,8.1,0.4s6.4,0,8.1-0.4
		c1.1-0.3,1.9-1.1,2.1-2.2c0.3-1.6,0.4-3.3,0.4-4.9C21.4,6,21.2,4.3,20.9,2.6z M19.9,12.4c-0.2,0.7-0.7,1.3-1.4,1.5
		c-1.3,0.3-6.1,0.4-7.8,0.4s-6.6-0.1-7.8-0.4c-0.7-0.2-1.2-0.7-1.4-1.4C1.1,10.9,1,9.3,1,7.7c0-1.6,0.1-3.2,0.4-4.8
		c0.2-0.7,0.7-1.3,1.4-1.5C4.1,1.1,8.9,1,10.7,1c0.2,0,0.5,0,0.7,0c2.4,0,4.8,0.1,7.1,0.4c0.7,0.2,1.3,0.8,1.4,1.5
		c0.3,1.6,0.4,3.2,0.4,4.8C20.3,9.3,20.2,10.9,19.9,12.4z"/>
	<path class="st0" d="M14.2,7.2l-5.3-3c-0.2-0.1-0.3-0.1-0.5,0S8.1,4.5,8.1,4.6v6c0,0.2,0.1,0.3,0.2,0.4c0.1,0,0.2,0.1,0.3,0.1
		c0.1,0,0.2,0,0.2-0.1l5.3-3c0.2-0.1,0.3-0.3,0.3-0.4C14.4,7.5,14.3,7.3,14.2,7.2z M9.1,9.8V5.5l3.8,2.2L9.1,9.8z"/>
</g>
</svg>
